<?xml version="1.0" encoding="utf-8"?>
<!-- Generator: Adobe Illustrator 23.0.1, SVG Export Plug-In . SVG Version: 6.00 Build 0)  -->
<svg version="1.1" id="Calque_1" xmlns="http://www.w3.org/2000/svg" xmlns:xlink="http://www.w3.org/1999/xlink" x="0px" y="0px"
	 viewBox="0 0 560 288" style="enable-background:new 0 0 560 288;" xml:space="preserve">
<style type="text/css">
	.st0{fill:#FEFEFE;}
	.st1{fill:#366059;}
	.st2{fill:#BCCAC7;}
	.st3{fill:#BFCDCA;}
	.st4{fill:#AFC0BD;}
	.st5{fill:#EAEEED;}
	.st6{fill:#8BA39F;}
	.st7{fill:#4C716A;}
	.st8{fill:#7A9691;}
	.st9{fill:#91A8A4;}
	.st10{fill:#658580;}
	.st11{fill:#AABCB9;}
	.st12{fill:#75928D;}
	.st13{fill:#50756E;}
	.st14{fill:#BDCBC8;}
	.st15{fill:#98AEAA;}
	.st16{fill:#567A74;}
	.st17{fill:#94AAA7;}
	.st18{fill:#4D726D;}
	.st19{fill:#6E8C87;}
	.st20{fill:#A3B6B3;}
	.st21{fill:#9EB2AF;}
	.st22{fill:#799590;}
	.st23{fill:#688782;}
	.st24{fill:#849E99;}
	.st25{fill:#B3C2C0;}
	.st26{fill:#A3B5B2;}
	.st27{fill:#BFCCCA;}
	.st28{fill:#E0E6E5;}
	.st29{fill:#829D98;}
</style>
<g>
	<g>
		<g>
			<path class="st0" d="M355.49,219.51c-50.08,0-100.17,0-150.25,0c0-50.48,0-100.96,0-151.44c50.08,0,100.17,0,150.25,0
				C355.49,118.55,355.49,169.03,355.49,219.51z M344.02,192.51c-0.17-0.23-0.34-0.45-0.51-0.68c-0.02-0.71-0.03-1.42-0.05-2.14
				c0-0.33,0-0.66,0-0.98c0.04-0.89,0.27-1.87-0.98-2.18c-0.01-0.3-0.01-0.6-0.02-0.9c-0.14-0.4-0.27-0.8-0.41-1.2
				c-0.03-0.39,0.03-0.81-0.09-1.17c-0.75-2.15-1.54-4.28-2.32-6.42c-0.46-1.19-0.91-2.38-1.38-3.59c-0.07,0-0.3,0-0.53,0
				c-0.36-0.79-0.92-1.56-1.04-2.39c-0.15-1.06-0.84-1.62-1.47-2.3c-0.21-0.22-0.43-0.46-0.57-0.73c-0.67-1.3-1.19-2.68-1.99-3.89
				c-0.96-1.44-2.65-2.19-3.38-4.02c-0.51-1.28-1.95-2.2-3.02-3.22c-1.08-1.04-2.25-1.98-3.33-3.02c-0.82-0.8-1.44-1.82-2.32-2.51
				c-1.76-1.37-3.64-2.59-5.49-3.84c-0.49-0.33-1.07-0.54-1.6-0.81c-0.38-0.19-0.76-0.39-1.11-0.61c-0.91-0.57-1.76-1.23-2.71-1.72
				c-1.06-0.55-2.2-0.96-3.3-1.43c0.12-0.19,0.25-0.38,0.46-0.7c-0.45,0.06-0.71,0.09-0.98,0.13c-0.29-0.03-0.58-0.06-0.87-0.08
				c-0.07-1.6-1.19-0.85-1.96-0.88c-0.29-0.02-0.59-0.05-0.88-0.07c-0.21-0.34-0.45-0.67-0.62-1.03c-0.14-0.3-0.21-0.63-0.32-0.94
				c1.08,0.11,1.52-0.84,2.15-1.4c1.22-1.09,2.17-2.55,3.5-3.45c1.18-0.79,1.46-1.99,2.16-3c0.77-0.06,1.65-1.16,1.48-1.85
				c0.3-0.41,0.63-0.8,0.9-1.23c0.19-0.29,0.3-0.63,0.45-0.95c0.57,0.08,1,0.01,1.04-0.73c0.02-0.37,0.14-0.94,0.38-1.05
				c1.01-0.46,0.8-1.19,0.58-1.96c0.09-0.68,0.02-1.43,0.28-2.03c0.83-1.92,1.55-3.84,1.54-5.97c0-0.86-0.17-1.75,0.55-2.5
				c0.19-0.2,0.02-0.73,0.02-1.12c0.93-0.69,0.89-2.93-0.07-3.82c-0.18-1.49-0.35-2.98-0.53-4.47c-0.03-0.94,0.17-1.94-0.79-2.6
				c-0.02-0.4-0.04-0.81-0.06-1.21c0.41-0.94-0.3-1.37-0.86-1.88c-0.09-0.53-0.05-1.14-0.3-1.59c-0.47-0.85-1.47-1.56-1.61-2.42
				c-0.3-1.9-2.32-2.68-2.58-4.5c0.08-0.19,0.17-0.38,0.33-0.76c-1.36,0.83-0.66-0.7-1.3-0.92c-0.56-0.2-1.23-0.77-1.38-1.3
				c-0.22-0.76-0.64-0.62-1.12-0.65c-0.02-0.27-0.05-0.54-0.08-0.86c-1.34,0.08-1.91-0.67-1.98-1.79c-0.38-0.16-0.73-0.24-0.99-0.43
				c-1.59-1.15-3.15-2.33-4.73-3.5c-0.12-0.09-0.25-0.17-0.39-0.23c-1.1-0.48-2.19-0.94-3.29-1.42c0.11-0.18,0.21-0.36,0.36-0.61
				c-0.64,0-1.23,0-1.81,0c-0.29-0.02-0.59-0.05-0.88-0.07c0.07-0.68-0.17-1.05-0.92-0.97c-0.42,0.05-0.85,0.06-1.28,0.08
				c-0.37-0.03-0.75-0.06-1.12-0.09c-0.26-0.86-0.98-0.75-1.64-0.77c-0.65-0.04-1.29-0.09-1.94-0.13c-2.99,0-5.97,0-8.96,0
				c-0.63,0-1.26,0-1.9-0.01c-0.92-0.13-1.72,0-2.14,0.97c-0.4,0.03-0.8,0.07-1.2,0.1c-0.32,0.09-0.64,0.17-0.97,0.26
				c-0.6,0.21-1.19,0.42-1.79,0.63c-0.91-0.16-1.91-0.47-2.02,0.99c-1.04,0.4-2.16,0.67-3.09,1.24c-1.37,0.83-2.63,1.87-3.9,2.85
				c-0.65,0.49-1.16,1.34-1.87,1.53c-1.31,0.36-1.86,1.44-2.72,2.24c-0.36,0.41-0.72,0.82-1.09,1.24c-0.02,0.23-0.05,0.47-0.07,0.7
				c-0.93-0.19-0.98,0.59-1.24,1.13c-0.79,1.05-1.77,1.98-2.12,3.31c-0.19-0.03-0.38-0.06-0.6-0.09c0.03,0.35,0.05,0.62,0.08,0.88
				c-0.02,0.23-0.05,0.46-0.07,0.7c-0.84,0-1.14,0.39-0.88,1.2c-0.06,0.3-0.12,0.6-0.18,0.9c-0.16,0.14-0.31,0.28-0.47,0.42
				c-0.47,1.3-1,2.57-1.39,3.89c-0.28,0.94-0.35,1.93-0.55,2.89c-0.29,1.39-0.6,2.78-0.91,4.17c-0.89,1.86-0.59,3.77-0.21,5.68
				c0,0.01,0.07,0.01,0.11,0.02c0.35,1.77,0.69,3.55,1.06,5.32c0.29,1.39,0.64,2.76,0.96,4.14c0.14,0.4,0.28,0.8,0.42,1.2
				c0.03,0.22,0.07,0.44,0.1,0.65c-0.2,0.84,0.03,1.35,0.99,1.31c0.04,0.3,0.08,0.59,0.11,0.89c-0.56,1.03,0.29,0.9,0.83,1.01
				c0.03,0.3,0.07,0.59,0.1,0.89c-0.18,0.95,0.78,2.03,1.9,2.14c-0.09,1.58,1.31,2.14,2.13,3.09c0.33,0.57,0.56,1.27,1.03,1.7
				c1.01,0.93,2.15,1.72,3.24,2.57c0.66,0.71,1.22,1.58,2.4,1.4c0.01,0.32,0.03,0.64,0.04,0.96l-0.01,0.01
				c-0.67,0.23-1.89-0.7-1.92,0.9c-0.61,0.2-1.23,0.38-1.84,0.6c-0.23,0.08-0.42,0.25-0.65,0.34c-1.24,0.47-2.52,0.85-3.72,1.39
				c-1.05,0.48-1.96,1.36-3.04,1.67c-2.21,0.63-3.71,2.37-5.71,3.34c-0.94,0.46-1.63,1.44-2.46,2.15c-0.27,0.23-0.65,0.34-0.99,0.5
				c-0.27,0.13-0.59,0.19-0.79,0.39c-2.06,2.01-4.1,4.05-6.15,6.08c-0.11-0.1-0.3-0.29-0.3-0.29c-0.64,0.63-1.33,1.23-1.89,1.93
				c-0.44,0.56-0.72,1.26-1.07,1.89c-0.14,0.38-0.21,0.83-0.45,1.13c-0.63,0.78-1.45,1.44-2.01,2.27c-0.83,1.24-1.46,2.59-2.23,3.87
				c-0.67,1.12-1.48,2.17-2.1,3.33c-0.56,1.05-0.96,2.19-1.42,3.29c-0.27,0.03-0.54,0.06-0.89,0.09c0.08,0.34,0.15,0.61,0.22,0.89
				c-0.01,0.23-0.01,0.46-0.02,0.69c-1.21,0.25-1.29,0.42-1.03,2.25c-0.02,0.29-0.04,0.57-0.06,0.86c-0.84-0.1-1.11,0.26-0.83,1.05
				c-0.03,0.6-0.06,1.2-0.09,1.8c-0.32,0.13-0.64,0.26-0.97,0.39c0,0.61,0,1.2,0,1.78c-0.17,0.81-0.38,1.61-0.49,2.43
				c-0.35,2.57-0.67,5.14-1,7.72c-0.14,0.87-0.28,1.74-0.42,2.62c0,2.6,0,5.2,0,7.81c0.14,0.88,0.28,1.76,0.42,2.64
				c0.27,0.61,0.44,1.3,0.83,1.82c0.84,1.11,1.96,1.74,3.42,1.55c-0.06,1.03,0.59,1.09,1.38,1.09c7.77-0.02,15.54-0.01,23.31-0.01
				c0.35,0,0.69-0.04,1.15-0.07c0-0.42,0-0.76,0-1.1c-0.01-8.53-0.02-17.05-0.03-25.58c0.02-0.31,0.04-0.62,0.06-0.93
				c1-0.11,1.5-1.41,2.68-1.11c0.07,0.01,0.12,0.03,0.17,0.08c0.08,0.32,0.09,0.67,0.26,0.94c0.24,0.38,0.59,0.68,0.89,1.02
				c0.01,8.53,0.02,17.06,0.04,25.59c-0.07,1.45,1.11,1.14,1.83,1.14c18.42,0.04,36.85,0.02,55.27,0.04c0.96,0,1.32-0.33,1.08-1.27
				c0-6.57-0.01-13.15-0.01-19.72c0-2.24,0.04-4.48,0.06-6.73c0.91,0.19,1.01-0.43,1.08-1.08c0.29-0.02,0.57-0.05,0.86-0.07
				c0.24,0,0.47,0,0.71,0c0.42,0.14,0.84,0.28,1.25,0.41c0.06,0.4,0.11,0.81,0.17,1.21c-0.08,0.38-0.23,0.76-0.23,1.14
				c-0.01,7.99,0,15.97-0.02,23.96c0,0.77,0.22,1.12,1.02,0.95l0.04-0.03c-0.21,0.86,0.09,1.22,1.01,1.22
				c7.55-0.02,15.1-0.02,22.65,0c0.81,0,1.17-0.29,1.16-1.08c0.69-0.04,1.39-0.09,2.08-0.13c0.18,0.05,0.37,0.09,0.55,0.14
				c-0.12-0.19-0.25-0.37-0.37-0.56c0.82-0.79,1.63-1.57,2.45-2.36c1.38-0.14,1.11-1.13,1.05-2.01c-0.02-0.99-0.05-1.99-0.07-2.98
				c0-1.66,0.01-3.31,0.01-4.97c0.02-1.24,0.05-2.47,0.07-3.71C344.4,193.96,345.14,193.04,344.02,192.51z"/>
			<path class="st1" d="M342.46,185.62c0.01,0.3,0.01,0.6,0.02,0.9c0.01,0.72,0.02,1.44,0.03,2.16c-0.22,0.85,0.29,0.99,0.95,1
				c0.02,0.71,0.03,1.42,0.05,2.14c-0.03,0.54-0.06,1.07-0.09,1.61c0.06,1.41,0.08,2.82,0.22,4.22c0.03,0.28,0.5,0.51,0.77,0.76
				c0,1.66-0.01,3.31-0.01,4.97c-0.24,0.13-0.69,0.25-0.7,0.4c-0.07,1.13-0.06,2.26-0.07,3.4c-0.07,0.4-0.14,0.8-0.2,1.19
				c-0.82,0.79-1.63,1.57-2.45,2.36c-0.06,0.14-0.12,0.28-0.18,0.43c-0.69,0.04-1.39,0.09-2.08,0.13c-0.39-0.02-0.78-0.06-1.18-0.06
				c-7.41,0-14.82,0-22.23,0c-0.47,0-0.94-0.05-1.41-0.08c0,0-0.04,0.03-0.04,0.03c0.01-8.31,0.03-16.61,0.03-24.92
				c0-0.36-0.23-0.72-0.36-1.07c0.4-0.71,0.01-1.04-0.6-1.25c-0.42-0.14-0.84-0.28-1.25-0.41c-0.14-0.14-0.27-0.28-0.41-0.42
				c-0.1,0.14-0.2,0.28-0.3,0.42c-0.29,0.02-0.57,0.05-0.86,0.07c-0.81-0.09-1.52-0.08-1.08,1.08c-0.02,2.24-0.06,4.48-0.06,6.73
				c-0.01,6.57,0,13.15,0.01,19.72c-0.47,0.04-0.93,0.13-1.4,0.13c-18.22,0.01-36.44,0.01-54.66,0c-0.39,0-0.79-0.03-1.18-0.04
				c-0.01-8.13,0-16.25-0.04-24.38c0-0.49-0.37-0.98-0.57-1.47c-0.12-0.27-0.35-0.55-0.34-0.82c0.02-0.9-0.47-1-1.17-0.87
				c-0.05-0.05-0.1-0.08-0.17-0.08c-0.99-1.53-1.74,0.43-2.68,0.03c0,0.47,0,0.78,0,1.08c-0.02,0.31-0.04,0.62-0.06,0.93
				c-1.01-0.13-0.91,0.56-0.91,1.21c0,8.13,0,16.25,0,24.38c-3.38,0.02-6.77,0.03-10.15,0.05c-4.92,0.02-9.84,0.03-14.76,0.05
				c-1.46,0.19-2.58-0.45-3.42-1.55c-0.39-0.52-0.56-1.21-0.83-1.82c0.15-0.76,0.34-1.51,0.42-2.28c0.01-0.09-0.54-0.24-0.83-0.37
				c0-2.6,0-5.2,0-7.81c0.29-0.12,0.85-0.27,0.84-0.36c-0.08-0.76-0.26-1.5-0.42-2.25c0.33-2.57,0.64-5.15,1-7.72
				c0.11-0.82,0.32-1.62,0.49-2.43c1.26-0.3,1.1-1.25,0.97-2.17c0.03-0.6,0.06-1.2,0.09-1.8c0.61-0.08,1.29-0.11,0.83-1.05
				c0.02-0.29,0.04-0.57,0.06-0.86c0.34-0.75,0.69-1.5,1.03-2.25c0.01-0.23,0.01-0.46,0.02-0.69c0.26-0.06,0.52-0.12,0.76-0.18
				c-0.03-0.29-0.06-0.54-0.09-0.8c0.47-1.1,0.86-2.24,1.42-3.29c0.62-1.15,1.42-2.2,2.1-3.33c0.76-1.28,1.4-2.64,2.23-3.87
				c0.55-0.83,1.37-1.48,2.01-2.27c0.24-0.3,0.31-0.75,0.45-1.13c0.89,0.23,0.95-0.64,1.41-1.01c0.87-0.69,1.68-1.36,1.86-2.54
				c2.05-2.03,4.09-4.06,6.15-6.08c0.2-0.2,0.53-0.26,0.79-0.39c0.33-0.16,0.71-0.27,0.99-0.5c0.83-0.71,1.52-1.69,2.46-2.15
				c1.99-0.97,3.49-2.71,5.71-3.34c1.08-0.31,1.99-1.19,3.04-1.67c1.2-0.55,2.48-0.93,3.72-1.39c0.23-0.08,0.42-0.26,0.65-0.34
				c0.61-0.21,1.23-0.4,1.84-0.6c1.17,0.41,1.68,0.18,1.92-0.9c0,0,0.01-0.01,0.01-0.01c0.36-0.17,0.73-0.34,1.09-0.51
				c-0.38-0.15-0.75-0.3-1.13-0.45c-1.18,0.19-1.74-0.69-2.4-1.4c0.12-0.18,0.25-0.35,0.41-0.58c-0.27-0.09-0.55-0.1-0.68-0.25
				c-0.76-0.84-1.37-1.85-2.26-2.51c-0.48-0.36-0.8-1.34-1.74-0.93c-0.82-0.96-2.22-1.51-2.13-3.09c-0.31-0.47-0.83-0.91-0.89-1.41
				c-0.09-0.76-0.48-0.76-1.01-0.73c-0.03-0.3-0.07-0.59-0.1-0.89c0.19-0.72,0.02-1.15-0.83-1.01c-0.04-0.3-0.08-0.59-0.11-0.89
				c0.29-0.9-0.07-1.32-0.99-1.31c-0.03-0.22-0.07-0.44-0.1-0.65c0.34-0.57,0.35-1.02-0.42-1.2c-0.32-1.38-0.66-2.75-0.96-4.14
				c-0.37-1.77-0.71-3.55-1.06-5.32c0.19-0.22,0.55-0.43,0.56-0.66c0.05-1.4,0.06-2.81,0.01-4.21c-0.01-0.28-0.3-0.56-0.46-0.83
				c0.3-1.39,0.62-2.78,0.91-4.17c0.2-0.96,0.27-1.96,0.55-2.89c0.39-1.32,0.92-2.6,1.39-3.89c0.19,0.14,0.37,0.28,0.56,0.42
				c0.07-0.04,0.13-0.09,0.2-0.13c-0.09-0.24-0.19-0.48-0.28-0.71c0.06-0.3,0.12-0.6,0.18-0.9c0.83,0,1.29-0.29,0.88-1.2
				c0.02-0.23,0.05-0.46,0.07-0.7c0.3-0.06,0.61-0.11,0.98-0.18c-0.2-0.27-0.33-0.44-0.46-0.61c0.35-1.34,1.33-2.26,2.12-3.31
				c0.38-0.02,0.75-0.04,1.14-0.06c0.04-0.44,0.07-0.75,0.1-1.06c0.02-0.23,0.05-0.47,0.07-0.7c0.95,0.1,1.28-0.34,1.09-1.24
				c0.86-0.8,1.41-1.88,2.72-2.24c0.71-0.19,1.22-1.04,1.87-1.53c1.28-0.98,2.53-2.01,3.9-2.85c0.94-0.57,2.06-0.84,3.09-1.24
				c0.94,0.22,1.57-0.21,2.02-0.99c0.6-0.21,1.19-0.42,1.79-0.63c0.32-0.09,0.64-0.17,0.97-0.26c0.4-0.03,0.8-0.07,1.2-0.1
				c0.68,0.01,1.37,0.02,2.05,0.03c0.79-0.07,1.86,0.4,1.98-1c2.99,0,5.97,0,8.96,0c0.22,0.95,0.8,1.21,1.92,0.86
				c0.55,0.02,1.1,0.03,1.66,0.05c0.37,0.03,0.75,0.06,1.12,0.09c0.52,0.83,1.18,1.29,2.2,0.88c0.29,0.02,0.59,0.05,0.88,0.07
				c0.48,0.2,0.97,0.41,1.45,0.61c1.1,0.47,2.2,0.94,3.29,1.42c0.14,0.06,0.27,0.14,0.39,0.23c1.58,1.17,3.14,2.35,4.73,3.5
				c0.26,0.19,0.61,0.27,0.99,0.43c0.07,1.12,0.64,1.87,1.98,1.79c0.03,0.32,0.05,0.59,0.08,0.86c-0.04,1.02,0.95,1.29,1.44,1.92
				c0.54,0.7,1.17,1.32,1.76,1.97c0.04-0.04,0.15-0.15,0.26-0.25c0.26,1.82,2.28,2.6,2.58,4.5c0.14,0.87,1.14,1.57,1.61,2.42
				c0.25,0.45,0.21,1.05,0.3,1.59c-0.17,0.83-0.55,1.77,0.86,1.88c0.02,0.4,0.04,0.81,0.06,1.21c-0.03,0.5-0.08,1-0.1,1.5
				c-0.02,0.62,0.12,1.11,0.88,1.1c0.18,1.49,0.35,2.98,0.53,4.47c0.02,1.27,0.04,2.55,0.07,3.82c0,0.38,0.17,0.92-0.02,1.12
				c-0.72,0.75-0.55,1.64-0.55,2.5c0.01,2.13-0.71,4.05-1.54,5.97c-0.26,0.61-0.2,1.35-0.28,2.03c-0.21,0.07-0.54,0.1-0.6,0.23
				c-0.5,1.16-0.94,2.34-1.41,3.51c-0.15,0.32-0.26,0.66-0.45,0.95c-0.27,0.43-0.6,0.82-0.9,1.23c-0.96,0.25-1.29,0.99-1.48,1.85
				c-0.69,1.01-0.98,2.2-2.16,3c-1.34,0.9-2.28,2.35-3.5,3.45c-0.62,0.56-1.07,1.5-2.15,1.4c-0.97,0-0.79,0.69-0.68,1.23
				c0.19,0.94,0.87,0.95,1.62,0.74c0.29,0.02,0.59,0.05,0.88,0.07c0.32,1.04,1.06,1.13,1.96,0.88c0.29,0.03,0.58,0.06,0.87,0.08
				c0.17,0.19,0.35,0.38,0.52,0.58c1.1,0.47,2.24,0.88,3.3,1.43c0.95,0.49,1.8,1.15,2.71,1.72c0.36,0.23,0.74,0.42,1.11,0.61
				c0.53,0.27,1.11,0.48,1.6,0.81c1.85,1.25,3.73,2.47,5.49,3.84c0.89,0.69,1.51,1.71,2.32,2.51c1.07,1.04,2.24,1.99,3.33,3.02
				c1.07,1.03,2.52,1.95,3.02,3.22c0.73,1.82,2.42,2.57,3.38,4.02c0.8,1.21,1.32,2.59,1.99,3.89c0.14,0.27,0.36,0.5,0.57,0.73
				c0.63,0.67,1.31,1.24,1.47,2.3c0.12,0.83,0.68,1.6,1.04,2.39c0.23,0.84,0.58,1.66,0.65,2.51c0.07,0.9,0.44,1.17,1.25,1.07
				c0.78,2.14,1.57,4.27,2.32,6.42c0.12,0.36,0.07,0.78,0.09,1.17c-0.16,0.28-0.33,0.56-0.49,0.84
				C341.86,185.38,342.16,185.5,342.46,185.62z"/>
			<path class="st2" d="M251.7,211.2c0.39,0.01,0.79,0.04,1.18,0.04c18.22,0,36.44,0,54.66,0c0.47,0,0.93-0.08,1.4-0.13
				c0.24,0.94-0.12,1.27-1.08,1.27c-18.42-0.02-36.85,0-55.27-0.04c-0.71,0-1.89,0.31-1.83-1.14
				C251.07,211.2,251.39,211.2,251.7,211.2z"/>
			<path class="st3" d="M220.84,211.3c4.92-0.02,9.84-0.03,14.76-0.05c3.38-0.01,6.77-0.03,10.15-0.05c0.31,0,0.62,0,0.93-0.01
				c0,0.34,0,0.69,0,1.1c-0.46,0.03-0.81,0.07-1.15,0.07c-7.77,0-15.54,0-23.31,0.01C221.43,212.39,220.78,212.33,220.84,211.3z"/>
			<path class="st4" d="M313.88,211.15c0.47,0.03,0.94,0.08,1.41,0.08c7.41,0,14.82,0,22.23,0c0.39,0,0.78,0.04,1.18,0.06
				c0.01,0.78-0.34,1.08-1.16,1.08c-7.55-0.02-15.1-0.02-22.65,0C313.96,212.37,313.67,212.01,313.88,211.15z"/>
			<path class="st5" d="M313.5,185.18c0.12,0.36,0.36,0.72,0.36,1.07c0.01,8.31-0.01,16.61-0.03,24.92
				c-0.8,0.18-1.02-0.18-1.02-0.95c0.02-7.99,0.01-15.97,0.02-23.96c0-0.38,0.15-0.76,0.23-1.14
				C313.21,185.15,313.36,185.17,313.5,185.18z"/>
			<path class="st6" d="M251.7,211.2c-0.32,0-0.63,0-0.95,0c-0.01-8.53-0.02-17.06-0.04-25.59c0.12-0.09,0.25-0.18,0.37-0.27
				c0.2,0.49,0.57,0.98,0.57,1.47C251.7,194.95,251.7,203.07,251.7,211.2z"/>
			<path class="st7" d="M246.69,211.19c-0.31,0-0.62,0-0.93,0.01c0-8.13,0-16.25,0-24.38c0-0.65-0.11-1.34,0.91-1.21
				C246.67,194.14,246.68,202.67,246.69,211.19z"/>
			<path class="st8" d="M253.78,133.51c0.94-0.41,1.26,0.57,1.74,0.93c0.88,0.66,1.5,1.67,2.26,2.51c0.13,0.15,0.41,0.16,0.68,0.25
				c-0.16,0.22-0.28,0.4-0.41,0.58c-1.09-0.85-2.23-1.64-3.24-2.57C254.34,134.78,254.11,134.09,253.78,133.51z"/>
			<path class="st9" d="M245.28,107.18c0.16,0.28,0.45,0.55,0.46,0.83c0.05,1.4,0.04,2.81-0.01,4.21c-0.01,0.23-0.36,0.44-0.56,0.66
				c-0.04-0.01-0.11-0.01-0.11-0.02C244.69,110.94,244.39,109.04,245.28,107.18z"/>
			<path class="st10" d="M344.4,198.42c-0.27-0.25-0.74-0.49-0.77-0.76c-0.14-1.4-0.16-2.81-0.22-4.22c0.14,0,0.27,0.01,0.41,0.01
				c0.22,0.42,0.43,0.84,0.65,1.27C344.45,195.95,344.43,197.18,344.4,198.42z"/>
			<path class="st11" d="M233.21,157.49c-0.17,1.17-0.99,1.85-1.86,2.54c-0.46,0.36-0.52,1.24-1.41,1.01
				c0.35-0.64,0.63-1.33,1.07-1.89c0.55-0.7,1.24-1.3,1.89-1.93C232.91,157.2,233.11,157.39,233.21,157.49z"/>
			<path class="st12" d="M309.45,89.44c-0.11,0.11-0.22,0.22-0.26,0.25c-0.58-0.65-1.22-1.27-1.76-1.97
				c-0.49-0.63-1.48-0.89-1.44-1.92c0.47,0.03,0.9-0.11,1.12,0.65c0.15,0.54,0.82,1.11,1.38,1.3c0.63,0.22-0.06,1.76,1.3,0.92
				C309.61,89.05,309.53,89.25,309.45,89.44z"/>
			<path class="st13" d="M343.62,207.18c0.01-1.13,0-2.27,0.07-3.4c0.01-0.15,0.46-0.27,0.7-0.4c0.02,0.99,0.05,1.99,0.07,2.98
				C344.18,206.64,343.9,206.91,343.62,207.18z"/>
			<path class="st14" d="M311.85,127.3c0.46-1.17,0.91-2.36,1.41-3.51c0.06-0.14,0.39-0.16,0.6-0.23c0.22,0.77,0.43,1.5-0.58,1.96
				c-0.24,0.11-0.36,0.69-0.38,1.05C312.85,127.31,312.42,127.37,311.85,127.3z"/>
			<path class="st15" d="M316.24,111.93c-0.02-1.27-0.04-2.55-0.07-3.82C317.13,109,317.16,111.24,316.24,111.93z"/>
			<path class="st16" d="M339.64,176.83c-0.81,0.1-1.18-0.17-1.25-1.07c-0.07-0.85-0.42-1.68-0.65-2.51c0.23,0,0.46,0,0.53,0
				C338.73,174.46,339.19,175.64,339.64,176.83z"/>
			<path class="st17" d="M302.15,141.14c-0.75,0.21-1.43,0.2-1.62-0.74c-0.11-0.55-0.29-1.24,0.68-1.23
				c0.1,0.32,0.17,0.65,0.32,0.94C301.71,140.47,301.94,140.8,302.15,141.14z"/>
			<path class="st16" d="M216.17,205.28c0.29,0.12,0.84,0.28,0.83,0.37c-0.08,0.76-0.27,1.52-0.42,2.28
				C216.45,207.04,216.31,206.16,216.17,205.28z"/>
			<path class="st18" d="M216.59,194.86c0.15,0.75,0.34,1.5,0.42,2.25c0.01,0.09-0.54,0.24-0.84,0.36
				C216.31,196.6,216.45,195.73,216.59,194.86z"/>
			<path class="st19" d="M342.51,188.69c-0.01-0.72-0.02-1.44-0.03-2.16c1.25,0.31,1.02,1.29,0.98,2.18
				C343.15,188.7,342.83,188.69,342.51,188.69z"/>
			<path class="st20" d="M219.05,182.54c0.12,0.92,0.29,1.87-0.97,2.17c0-0.58,0-1.17,0-1.78
				C218.42,182.8,218.73,182.67,219.05,182.54z"/>
			<path class="st17" d="M292.2,76.9c-1.01,0.4-1.68-0.05-2.2-0.88c0.43-0.03,0.85-0.03,1.28-0.08
				C292.03,75.85,292.27,76.22,292.2,76.9z"/>
			<path class="st9" d="M274.37,76.02c-0.68-0.01-1.37-0.02-2.05-0.03c0.42-0.97,1.22-1.11,2.14-0.97
				C274.43,75.35,274.4,75.68,274.37,76.02z"/>
			<path class="st21" d="M246.73,184.69c0-0.31,0-0.62,0-1.08c0.94,0.4,1.68-1.56,2.68-0.03
				C248.23,183.28,247.73,184.58,246.73,184.69z"/>
			<path class="st14" d="M249.75,128.28c0.53-0.03,0.92-0.03,1.01,0.73c0.06,0.5,0.57,0.94,0.89,1.41
				C250.53,130.3,249.57,129.22,249.75,128.28z"/>
			<path class="st17" d="M305,142.08c-0.9,0.25-1.64,0.16-1.96-0.88C303.81,141.23,304.93,140.49,305,142.08z"/>
			<path class="st22" d="M260.47,140.15c-0.24,1.08-0.75,1.31-1.92,0.9C258.58,139.45,259.8,140.38,260.47,140.15z"/>
			<path class="st23" d="M287.23,75.88c-1.12,0.36-1.7,0.1-1.92-0.86c0.65,0.04,1.29,0.09,1.94,0.13
				C287.24,75.4,287.24,75.64,287.23,75.88z"/>
			<path class="st23" d="M274.37,76.02c0.03-0.33,0.06-0.67,0.08-1c0.63,0,1.26,0,1.9,0.01C276.23,76.42,275.16,75.94,274.37,76.02z
				"/>
			<path class="st24" d="M315.64,103.64c-0.77,0.01-0.91-0.48-0.88-1.1c0.02-0.5,0.06-1,0.1-1.5
				C315.81,101.7,315.61,102.7,315.64,103.64z"/>
			<path class="st25" d="M221.06,176.59c-0.34,0.75-0.69,1.5-1.03,2.25C219.77,177.01,219.85,176.84,221.06,176.59z"/>
			<path class="st10" d="M309.02,131.33c0.19-0.86,0.52-1.6,1.48-1.85C310.68,130.16,309.79,131.27,309.02,131.33z"/>
			<path class="st26" d="M268.36,76.98c-0.45,0.78-1.07,1.22-2.02,0.99C266.45,76.5,267.45,76.82,268.36,76.98z"/>
			<path class="st24" d="M314.79,99.83c-1.41-0.11-1.02-1.05-0.86-1.88C314.49,98.45,315.2,98.88,314.79,99.83z"/>
			<path class="st27" d="M343.62,207.18c0.28-0.27,0.56-0.54,0.84-0.82c0.06,0.88,0.33,1.88-1.05,2.01
				C343.48,207.98,343.55,207.58,343.62,207.18z"/>
			<path class="st28" d="M251.09,185.35c-0.12,0.09-0.25,0.18-0.37,0.27c-0.3-0.34-0.65-0.64-0.89-1.02
				c-0.16-0.26-0.18-0.62-0.26-0.94c0.7-0.13,1.19-0.02,1.17,0.87C250.74,184.8,250.96,185.08,251.09,185.35z"/>
			<path class="st27" d="M344.48,194.71c-0.22-0.42-0.43-0.84-0.65-1.27c0.06-0.31,0.13-0.63,0.19-0.94
				C345.14,193.04,344.4,193.96,344.48,194.71z"/>
			<path class="st11" d="M247.72,124.18c0.92-0.01,1.27,0.41,0.99,1.31C247.74,125.53,247.51,125.02,247.72,124.18z"/>
			<path class="st29" d="M308.99,184.66c-0.43-1.16,0.27-1.17,1.08-1.08C310,184.23,309.9,184.86,308.99,184.66z"/>
			<path class="st23" d="M249.65,93.69c0.41,0.91-0.04,1.2-0.88,1.2C248.5,94.09,248.81,93.7,249.65,93.69z"/>
			<path class="st17" d="M287.23,75.88c0.01-0.24,0.01-0.48,0.02-0.72c0.66,0.02,1.38-0.09,1.64,0.77
				C288.34,75.91,287.78,75.9,287.23,75.88z"/>
			<path class="st19" d="M342.46,185.62c-0.3-0.12-0.6-0.24-0.9-0.36c0.16-0.28,0.33-0.56,0.49-0.84
				C342.19,184.82,342.33,185.22,342.46,185.62z"/>
			<path class="st17" d="M294.53,77.58c-0.48-0.2-0.97-0.41-1.45-0.61c0.58,0,1.17,0,1.81,0C294.74,77.23,294.64,77.41,294.53,77.58
				z"/>
			<path class="st12" d="M253.6,87.77c-0.03,0.31-0.06,0.62-0.1,1.06c-0.39,0.02-0.76,0.04-1.14,0.06
				C252.62,88.36,252.67,87.58,253.6,87.77z"/>
			<path class="st11" d="M248.82,126.38c0.85-0.14,1.02,0.29,0.83,1.01C249.1,127.27,248.25,127.41,248.82,126.38z"/>
			<path class="st22" d="M260.44,139.18c0.38,0.15,0.75,0.3,1.13,0.45c-0.36,0.17-0.73,0.34-1.09,0.51
				C260.47,139.82,260.46,139.5,260.44,139.18z"/>
			<path class="st10" d="M342.51,188.69c0.32,0,0.64,0.01,0.96,0.01c0,0.33,0,0.66,0,0.98C342.8,189.68,342.29,189.54,342.51,188.69
				z"/>
			<path class="st20" d="M219.97,179.7c0.47,0.94-0.22,0.96-0.83,1.05C218.86,179.96,219.12,179.6,219.97,179.7z"/>
			<path class="st25" d="M221.75,174.92c0.03,0.26,0.06,0.51,0.09,0.8c-0.24,0.06-0.5,0.12-0.76,0.18
				c-0.07-0.28-0.14-0.55-0.22-0.89C221.2,174.97,221.48,174.95,221.75,174.92z"/>
			<path class="st12" d="M254.75,85.83c0.19,0.9-0.14,1.34-1.09,1.24C254.03,86.65,254.39,86.24,254.75,85.83z"/>
			<path class="st19" d="M344.02,192.51c-0.06,0.31-0.13,0.63-0.19,0.94c-0.14,0-0.27-0.01-0.41-0.01c0.03-0.54,0.06-1.07,0.09-1.61
				C343.68,192.05,343.85,192.28,344.02,192.51z"/>
			<path class="st23" d="M250.24,92.21c0.13,0.17,0.25,0.34,0.46,0.61c-0.37,0.07-0.67,0.13-0.98,0.18
				c-0.02-0.27-0.05-0.53-0.08-0.88C249.86,92.15,250.05,92.18,250.24,92.21z"/>
			<path class="st29" d="M313.5,185.18c-0.14-0.01-0.29-0.03-0.43-0.04c-0.06-0.4-0.11-0.81-0.17-1.21
				C313.51,184.14,313.9,184.47,313.5,185.18z"/>
			<path class="st11" d="M247.19,122.33c0.77,0.18,0.76,0.63,0.42,1.2C247.47,123.13,247.33,122.73,247.19,122.33z"/>
			<path class="st23" d="M248.59,95.8c0.09,0.24,0.19,0.48,0.28,0.71c-0.07,0.04-0.13,0.09-0.2,0.13c-0.19-0.14-0.37-0.28-0.56-0.42
				C248.27,96.08,248.43,95.94,248.59,95.8z"/>
			<path class="st17" d="M306.39,142.75c-0.17-0.19-0.35-0.38-0.52-0.58c0.27-0.03,0.53-0.07,0.98-0.13
				C306.64,142.36,306.52,142.55,306.39,142.75z"/>
			<path class="st4" d="M340.78,211.16c0.06-0.14,0.12-0.28,0.18-0.43c0.12,0.19,0.25,0.37,0.37,0.56
				C341.15,211.25,340.97,211.21,340.78,211.16z"/>
			<path class="st9" d="M271.12,76.08c-0.32,0.09-0.64,0.17-0.97,0.26C270.47,76.26,270.79,76.17,271.12,76.08z"/>
			<path class="st29" d="M310.93,183.51c0.1-0.14,0.2-0.28,0.3-0.42c0.14,0.14,0.27,0.28,0.41,0.42
				C311.41,183.51,311.17,183.51,310.93,183.51z"/>
		</g>
	</g>
</g>
</svg>
