<?xml version="1.0" encoding="utf-8"?>
<!-- Generator: Adobe Illustrator 23.0.1, SVG Export Plug-In . SVG Version: 6.00 Build 0)  -->
<svg version="1.1" id="Calque_1" xmlns="http://www.w3.org/2000/svg" xmlns:xlink="http://www.w3.org/1999/xlink" x="0px" y="0px"
	 viewBox="0 0 560 288" style="enable-background:new 0 0 560 288;" xml:space="preserve">
<style type="text/css">
	.st0{fill:#FDFDFD;}
	.st1{fill:#365F59;}
	.st2{fill:#38605A;}
	.st3{fill:#92A8A5;}
	.st4{fill:#8CA39F;}
	.st5{fill:#92A7A3;}
	.st6{fill:#4F726D;}
	.st7{fill:#51736D;}
	.st8{fill:#406661;}
	.st9{fill:#9AAFAB;}
	.st10{fill:#708C88;}
	.st11{fill:#C8D4D1;}
	.st12{fill:#5E7F7A;}
	.st13{fill:#CFD8D7;}
	.st14{fill:#B8C6C4;}
	.st15{fill:#BCC9C7;}
	.st16{fill:#C6D2D0;}
	.st17{fill:#B3C3C0;}
	.st18{fill:#8EA5A1;}
	.st19{fill:#A5B7B5;}
	.st20{fill:#ABBDBA;}
	.st21{fill:#C2CECC;}
	.st22{fill:#6C8985;}
	.st23{fill:#64847F;}
	.st24{fill:#7C9692;}
	.st25{fill:#97ACA9;}
	.st26{fill:#F9FAFA;}
	.st27{fill:#819A97;}
	.st28{fill:#98ADAA;}
	.st29{fill:#A2B5B2;}
</style>
<g>
	<g>
		<path class="st0" d="M355.68,219.6c-50.16,0-100.32,0-150.48,0c0-50.16,0-100.32,0-150.48c50.16,0,100.32,0,150.48,0
			C355.68,119.28,355.68,169.44,355.68,219.6z M270.47,99.59c1.39,0.13,2.56-0.19,3.15-1.62c0.67-0.26,1.35-0.49,2-0.78
			c0.71-0.32,1.39-0.69,2.08-1.04c0.4-0.2,0.8-0.63,1.18-0.59c1.16,0.1,2.36,0.21,3.43,0.61c1.84,0.69,3.59,1.6,5.37,2.42
			c0.2,0.31,0.32,0.72,0.6,0.89c0.54,0.32,1.15,0.54,1.75,0.73c0.51,0.16,1.05,0.21,1.58,0.31c0.55,0.32,1.09,0.68,1.66,0.95
			c0.74,0.35,1.52,0.58,2.25,0.94c1.14,0.56,2.23,1.22,3.39,1.76c2.39,1.12,4.9,1.97,7.24,3.25c2.07,1.12,4.36,1.84,6.56,2.74
			c0.51,1.21,1.14,1.51,2.74,1.34c0.79,0.41,1.57,0.83,2.37,1.21c2.29,1.08,4.59,2.14,6.89,3.21c0.04,0.19,0.06,0.53,0.13,0.54
			c1.29,0.21,2.23,1.6,3.72,1.13c2.4,1.12,4.79,2.25,7.19,3.37c0.18,0.24,0.31,0.63,0.54,0.7c1.01,0.3,2.04,0.5,3.07,0.73
			c0.35,0.08,0.72,0.1,1.04,0.25c1.5,0.71,2.98,1.45,4.46,2.18c0.98,0.23,1.96,0.52,2.96,0.65c0.2,0.03,0.47-0.55,0.71-0.85
			c0.3-0.04,0.59-0.08,0.89-0.12c1.04,0.36,1.18-0.5,1.51-1.11c0.49-0.35,1.2-0.59,1.43-1.07c0.51-1.05,0.86-2.21,1.13-3.36
			c0.12-0.54-0.04-1.17-0.17-1.73c-0.22-0.91-0.53-1.81-0.8-2.71c-0.18-1.22-0.9-1.86-2.12-1.96c-0.26-0.07-0.54-0.11-0.78-0.22
			c-1.3-0.63-2.57-1.31-3.88-1.9c-1.27-0.57-2.6-1-3.85-1.6c-3.38-1.63-6.73-3.35-10.11-4.99c-1.41-0.68-2.87-1.25-4.3-1.89
			c-5.28-2.4-10.55-4.81-15.83-7.21c-0.32-0.15-0.69-0.19-1.03-0.27c0.07-1.18-0.67-1.22-1.53-1.07c-1.41-0.18-2.78-0.39-3.7-1.69
			c-0.14-0.2-0.57-0.21-0.87-0.28c-0.34-0.08-0.73-0.06-1.03-0.21c-4.04-2.05-8.13-3.98-12.37-5.58c-1.89-0.72-3.66-1.77-5.48-2.66
			c-0.64-1.42-1.77-1.82-3.22-1.56c-0.41-0.12-0.95-0.12-1.2-0.39c-0.74-0.78-1.62-0.69-2.53-0.6c-0.94-0.31-1.24,0.38-1.55,1.02
			c-0.71,0.37-1.42,0.77-2.14,1.11c-2.31,1.08-4.56,2.36-6.97,3.16c-2.42,0.8-4.24,2.64-6.75,3.3c-2,0.53-3.82,1.75-5.73,2.64
			c-3.17,1.49-6.35,2.96-9.52,4.44c-0.29,0.13-0.55,0.33-0.83,0.47c-2.17,1-4.35,2-6.53,2.99c-1.01-0.51-1.27,0.07-1.34,0.92
			c-1.74,0.78-3.48,1.56-5.23,2.32c-1.23,0.54-2.47,1.06-3.7,1.59c-0.27,0.12-0.74,0.23-0.77,0.41c-0.13,0.8-0.7,0.61-1.19,0.63
			c-0.89-0.17-1.69-0.17-1.81,1.02c-0.14,0.03-0.29,0.06-0.43,0.09c-0.94,0.23-1.87,0.56-2.82,0.66c-0.84,0.09-1.1,0.47-1.05,1.22
			l0.04,0.07c-0.63,0.22-1.28,0.38-1.87,0.68c-0.64,0.32-1.21,0.77-1.8,1.16c-0.79,0.33-1.54,0.79-2.36,0.96
			c-1.53,0.32-2.59,1.41-3.87,2.13c-0.41,0.23-0.73,0.74-0.93,1.2c-1.21,2.86-0.82,5.64,0.62,8.31c0.14,0.26,0.65,0.33,0.99,0.48
			c0.33,0.63,0.57,1.4,1.56,1.05c0.29,0.04,0.59,0.09,0.88,0.13c-0.05,0.66,0.25,0.94,0.92,0.9c0.67-0.04,1.38,0.07,2.02-0.08
			c0.38-0.09,0.67-0.55,1-0.84c0.3-0.04,0.59-0.09,0.89-0.13c0.88,0.28,1.21-0.23,1.36-0.97c0.28-0.04,0.55-0.09,0.83-0.13
			c0.22,0.03,0.43,0.07,0.65,0.1c-0.02-0.22-0.04-0.44-0.05-0.65c1.08-0.47,2.15-0.94,3.23-1.41c1.34,0.47,1.77,0.28,2.17-0.97
			c0.34-0.17,0.68-0.38,1.04-0.51c1.28-0.5,2.62-0.88,3.85-1.49c1.09-0.53,2.03-1.38,3.11-1.95c1.46-0.76,2.99-1.37,4.49-2.06
			c2.19-1.01,4.38-2.01,6.56-3.04c1.25-0.59,2.45-1.27,3.69-1.86c5.22-2.49,10.44-4.96,15.67-7.43c1.19-0.56,2.39-1.1,3.59-1.64
			C269.51,100.9,269.89,100.02,270.47,99.59z M265.4,201.36c0.03-0.56,0.07-1.11,0.07-1.67c0.02-11.34,0.02-22.69,0.04-34.03
			c9.16-0.01,18.31-0.03,27.47-0.04c0.15,0,0.29,0.08,0.51,0.14c0,0.5,0,0.98,0,1.45c0.01,10.92,0.01,21.83,0.05,32.75
			c0,0.63,0.31,1.25,0.47,1.88c0.7,0.24,1.4,0.69,2.1,0.69c9.58,0.05,19.15,0.04,28.73,0.03c4.51-0.01,9.02-0.05,13.52-0.07
			c0.38,0,0.75,0,1.21,0c0-0.62,0-1.09,0-1.57c0-23.9,0-47.79,0-71.69c0-0.88,0.05-1.76,0.01-2.64c-0.04-1.16-0.66-1.72-1.9-1.8
			c-1.18-0.5-2.38-0.96-3.54-1.51c-1.17-0.55-2.28-1.24-3.45-1.78c-3.26-1.51-6.54-2.98-9.8-4.48c-1.02-0.47-1.99-1.06-3.02-1.51
			c-1.19-0.52-2.55-0.75-3.61-1.45c-1.66-1.1-3.8-1.11-5.26-2.55c-0.07-0.07-0.23-0.06-0.35-0.06c-1.05,0-1.92-0.32-2.48-1.29
			c-0.13-0.21-0.43-0.36-0.68-0.46c-1.6-0.67-3.22-1.3-4.81-1.99c-1.74-0.76-3.46-1.59-5.19-2.39c-0.61-0.28-1.23-0.56-1.86-0.81
			c-1.06-0.42-2.16-0.77-3.19-1.25c-1.94-0.89-3.85-1.84-5.78-2.77c-0.02-0.77-0.2-1.35-1.18-1.02c-0.25,0.08-0.53,0.11-0.79,0.16
			c-0.52-0.39-0.98-0.94-1.56-1.14c-1.71-0.6-2.98,0.85-4.52,1.11c-0.06,0.01-0.14,0.11-0.14,0.17c-0.05,0.86-0.71,0.66-1.23,0.74
			c-0.39,0.06-0.8,0.1-1.14,0.28c-1.42,0.73-2.82,1.51-4.23,2.26c-0.85,0.45-1.7,0.89-2.58,1.28c-0.9,0.4-1.84,0.72-2.75,1.07
			c-1.19,0.14-2.47,0.1-2.95,1.57c-3.58,1.59-7.18,3.13-10.56,5.18c-2.15,1.31-4.55,2.2-6.86,3.25c-0.87,0.4-1.79,0.7-2.68,1.05
			c-0.74-0.01-1.65-0.36-1.72,0.9c-0.07,0.02-0.14,0.03-0.21,0.04c-1.4-0.14-2.57,0.16-3.17,1.61c-1.6,0.79-3.2,1.58-4.8,2.36
			c-0.75,0.36-1.49,0.72-2.27,1.01c-1.15,0.43-2.33,0.79-3.5,1.19c-0.03,0.01-0.08,0.04-0.09,0.08c-0.33,1.15-1.52,1.26-2.29,1.87
			c-1.12-0.15-0.94,0.64-0.94,1.3c0,24.49,0,48.99,0,73.48c0,0.44,0.01,0.88-0.01,1.32c-0.03,0.72,0.24,1.08,1,0.88
			c0.44,0.02,0.88,0.07,1.31,0.07c13.19,0,26.37,0,39.56,0c0.35,0,0.7-0.03,1.05-0.05C265.4,202.07,265.4,201.71,265.4,201.36z"/>
		<path class="st1" d="M241.48,116.44c0.9-0.35,1.81-0.65,2.68-1.05c2.3-1.05,4.71-1.94,6.86-3.25c3.37-2.05,6.97-3.58,10.56-5.18
			c1.15-0.22,2.31-0.41,2.95-1.57c0.92-0.35,1.85-0.67,2.75-1.07c0.88-0.39,1.73-0.83,2.58-1.28c1.41-0.75,2.81-1.53,4.23-2.26
			c0.34-0.17,0.75-0.22,1.14-0.28c0.52-0.08,1.19,0.12,1.23-0.74c0-0.06,0.09-0.16,0.14-0.17c1.54-0.27,2.81-1.71,4.52-1.11
			c0.58,0.2,1.04,0.75,1.56,1.14c0.47,0.72,1.07,1.14,1.98,0.87c1.92,0.93,3.83,1.88,5.78,2.77c1.04,0.47,2.13,0.82,3.19,1.25
			c0.63,0.25,1.24,0.53,1.86,0.81c1.73,0.79,3.44,1.62,5.19,2.39c1.59,0.7,3.21,1.32,4.81,1.99c0.25,0.11,0.55,0.25,0.68,0.46
			c0.57,0.97,1.43,1.29,2.48,1.29c0.12,0,0.28-0.01,0.35,0.06c1.46,1.44,3.61,1.45,5.26,2.55c1.06,0.7,2.42,0.93,3.61,1.45
			c1.03,0.45,2,1.04,3.02,1.51c3.26,1.5,6.54,2.97,9.8,4.48c1.17,0.55,2.28,1.23,3.45,1.78c1.16,0.55,2.36,1.01,3.54,1.51
			c0.24,1.07,0.7,2.13,0.7,3.2c0.03,24.13,0.02,48.27,0.01,72.4c0,0.4-0.03,0.8-0.05,1.2c-14.61,0-29.21,0-43.82,0
			c0-12.37,0-24.74,0-37.16c-9.86,0-19.46,0-29.05,0c-1.19-0.12-1.01,0.74-1.01,1.44c0,11.83,0,23.66,0,35.49c-13.6,0-27.2,0-40.8,0
			c-0.07-5.67-0.19-11.34-0.21-17c-0.03-14.26-0.01-28.53-0.01-42.79c0-5.35-0.02-10.71-0.03-16.06c0.77-0.61,1.96-0.72,2.29-1.87
			c0.01-0.03,0.05-0.06,0.09-0.08c1.17-0.39,2.35-0.76,3.5-1.19c0.77-0.29,1.52-0.65,2.27-1.01c1.61-0.78,3.2-1.57,4.8-2.36
			c1.28-0.1,2.44-0.42,3.17-1.61c0.07-0.01,0.14-0.02,0.21-0.04C240.72,117.78,241.26,117.41,241.48,116.44z M272.64,135.6
			c-0.65,1.06,0.2,1.48,0.86,1.97c0.97,1.28,1.74,2.82,3.65,2.91c0.31,0.6,0.41,1.54,1.48,0.93c0.64,0,1.29-0.01,1.93-0.01
			c1.65,0.39,1.81,0.31,1.97-0.92c2.29-0.77,3.73-2.37,4.47-4.63c0.81-1.39,0.77-2.72-0.12-3.39c-0.21-0.63-0.3-1.33-0.64-1.87
			c-1.01-1.59-2.47-2.7-4.2-3.44c-1.26-0.9-2.66-0.95-3.87-0.16c-1.21,0.78-2.43,1.57-3.64,2.35c-0.88,0.01-1.37,0.32-1.06,1.3
			c-0.03,0.22-0.07,0.44-0.1,0.66c-0.81,0.06-1.29,0.32-0.72,1.2C272.65,133.52,272.64,134.56,272.64,135.6z"/>
		<path class="st2" d="M310.6,94.49c0.35,0.09,0.71,0.13,1.03,0.27c5.28,2.4,10.55,4.81,15.83,7.21c1.43,0.65,2.89,1.21,4.3,1.89
			c3.38,1.64,6.72,3.36,10.11,4.99c1.25,0.6,2.59,1.03,3.85,1.6c1.31,0.59,2.59,1.27,3.88,1.9c0.24,0.12,0.52,0.15,0.78,0.22
			c0.3,1.09,0.98,1.78,2.12,1.96c0.27,0.9,0.58,1.8,0.8,2.71c0.14,0.56,0.3,1.19,0.17,1.73c-0.27,1.15-0.61,2.3-1.13,3.36
			c-0.23,0.48-0.94,0.72-1.43,1.07c-0.83-0.07-1.69-0.19-1.51,1.11c-0.3,0.04-0.59,0.08-0.89,0.12c-1.22,0.07-2.45,0.14-3.67,0.2
			c-1.49-0.73-2.96-1.47-4.46-2.18c-0.31-0.15-0.69-0.17-1.04-0.25c-0.92-1.19-2.26-1.32-3.61-1.43c-2.4-1.12-4.79-2.25-7.19-3.37
			c-0.98-1.25-2.35-1.62-3.85-1.67c-2.3-1.07-4.6-2.13-6.89-3.21c-0.8-0.38-1.58-0.81-2.37-1.21c-0.58-1.12-1.67-1.22-2.74-1.34
			c-2.19-0.9-4.49-1.62-6.56-2.74c-2.34-1.27-4.85-2.12-7.24-3.25c-1.15-0.54-2.24-1.2-3.39-1.76c-0.73-0.36-1.52-0.59-2.25-0.94
			c-0.58-0.27-1.11-0.63-1.66-0.95c-0.21-0.38-0.33-0.98-0.64-1.09c-1.07-0.37-2.2-0.57-3.3-0.84c-1.79-0.82-3.54-1.73-5.37-2.42
			c-1.07-0.4-2.27-0.51-3.43-0.61c-0.37-0.03-0.78,0.39-1.18,0.59c-0.69,0.35-1.37,0.72-2.08,1.04c-0.65,0.29-1.33,0.52-2,0.78
			c-1.21,0.11-2.38,0.3-3.19,1.37c-0.78,0.14-1.99-0.42-1.9,1.15c-1.2,0.55-2.4,1.08-3.59,1.64c-5.22,2.47-10.45,4.94-15.67,7.43
			c-1.24,0.59-2.45,1.27-3.69,1.86c-2.18,1.03-4.37,2.03-6.56,3.04c-1.5,0.69-3.03,1.3-4.49,2.06c-1.08,0.56-2.02,1.41-3.11,1.95
			c-1.23,0.6-2.57,0.99-3.85,1.49c-0.36,0.14-0.69,0.34-1.04,0.51c-0.9-0.08-1.71,0.04-2.17,0.97c-1.08,0.47-2.15,0.94-3.23,1.41
			c-0.2,0.18-0.4,0.37-0.59,0.55c-0.28,0.04-0.55,0.09-0.83,0.13c-0.95-0.38-1.36,0.01-1.36,0.97c-0.3,0.04-0.59,0.09-0.89,0.13
			c-1.31,0.01-2.62,0.02-3.94,0.02c-0.29-0.04-0.59-0.09-0.88-0.13c0.03-1.17-0.66-1.27-1.56-1.05c-0.34-0.16-0.84-0.22-0.99-0.48
			c-1.43-2.67-1.82-5.45-0.62-8.31c0.19-0.46,0.52-0.97,0.93-1.2c1.28-0.72,2.34-1.82,3.87-2.13c0.82-0.17,1.58-0.63,2.36-0.96
			c0.36,0.01,0.72,0.04,1.07,0.02c1.17-0.07,2.32-0.9,2.6-1.86c0,0-0.04-0.07-0.04-0.07c1.36-0.48,2.93-0.54,3.87-1.88
			c0.14-0.03,0.29-0.06,0.43-0.09c0.99,0.33,1.34-0.45,1.81-1.02c0.49-0.02,1.06,0.16,1.19-0.63c0.03-0.17,0.5-0.29,0.77-0.41
			c1.23-0.53,2.47-1.05,3.7-1.59c1.75-0.77,3.48-1.55,5.23-2.32c0.81,0.22,1.28-0.05,1.34-0.92c2.18-1,4.35-1.99,6.53-2.99
			c0.29-0.13,0.55-0.33,0.83-0.47c3.17-1.48,6.35-2.95,9.52-4.44c1.91-0.89,3.73-2.11,5.73-2.64c2.51-0.66,4.33-2.5,6.75-3.3
			c2.41-0.8,4.66-2.08,6.97-3.16c0.73-0.34,1.43-0.74,2.14-1.11c0.93,0.28,1.58,0.15,1.55-1.02c0.91-0.09,1.78-0.18,2.53,0.6
			c0.25,0.27,0.79,0.27,1.2,0.39c0.65,1.4,1.98,1.39,3.22,1.56c1.82,0.9,3.59,1.95,5.48,2.66c4.24,1.6,8.33,3.53,12.37,5.58
			c0.3,0.15,0.69,0.13,1.03,0.21c0.3,0.07,0.73,0.08,0.87,0.28c0.92,1.29,2.29,1.51,3.7,1.69C309.35,94.1,309.58,94.85,310.6,94.49z
			"/>
		<path class="st3" d="M338.36,201.58c0.02-0.4,0.05-0.8,0.05-1.2c0.01-24.13,0.03-48.27-0.01-72.4c0-1.07-0.46-2.13-0.7-3.2
			c1.24,0.08,1.86,0.64,1.9,1.8c0.03,0.88-0.01,1.76-0.01,2.64c0,23.9,0,47.79,0,71.69c0,0.47,0,0.95,0,1.57c-0.46,0-0.84,0-1.21,0
			C338.36,202.18,338.36,201.88,338.36,201.58z"/>
		<path class="st4" d="M223.42,125.5c0.01,5.35,0.03,10.71,0.03,16.06c0,14.26-0.02,28.53,0.01,42.79c0.01,5.67,0.13,11.34,0.21,17
			c-0.07,0.38-0.14,0.75-0.2,1.13c-0.76,0.19-1.03-0.17-1-0.88c0.02-0.44,0.01-0.88,0.01-1.32c0-24.49,0-48.99,0-73.48
			C222.48,126.14,222.31,125.35,223.42,125.5z"/>
		<path class="st5" d="M265.49,164.42c9.59,0,19.19,0,29.05,0c0,12.42,0,24.79,0,37.16c-0.18,0.09-0.35,0.17-0.53,0.26
			c-0.16-0.63-0.47-1.25-0.47-1.88c-0.04-10.92-0.04-21.83-0.05-32.75c0-0.47,0-0.95,0-1.45c-0.22-0.07-0.37-0.15-0.51-0.14
			c-9.16,0.01-18.31,0.02-27.47,0.04C265.5,165.24,265.5,164.83,265.49,164.42z"/>
		<path class="st6" d="M223.47,202.49c0.07-0.38,0.14-0.75,0.2-1.13c13.6,0,27.2,0,40.8,0c0.31,0,0.61,0,0.92,0
			c0,0.36,0,0.71,0,1.15c-0.35,0.02-0.7,0.05-1.05,0.05c-13.19,0-26.37,0-39.56,0C224.35,202.56,223.91,202.51,223.47,202.49z"/>
		<path class="st7" d="M294.01,201.84c0.17-0.09,0.35-0.17,0.53-0.26c14.61,0,29.21,0,43.82,0c0,0.3,0,0.6,0.01,0.9
			c-4.51,0.03-9.02,0.07-13.52,0.07c-9.58,0.01-19.15,0.02-28.73-0.03C295.41,202.53,294.71,202.08,294.01,201.84z"/>
		<path class="st8" d="M265.4,201.36c-0.31,0-0.61,0-0.92,0c0-11.83,0-23.66,0-35.49c0-0.7-0.18-1.56,1.01-1.44
			c0.01,0.41,0.02,0.82,0.02,1.23c-0.01,11.34-0.02,22.69-0.04,34.03C265.47,200.24,265.43,200.8,265.4,201.36z"/>
		<path class="st9" d="M213.54,124.64c1.31-0.01,2.62-0.02,3.94-0.02c-0.33,0.29-0.62,0.76-1,0.84c-0.65,0.15-1.35,0.04-2.02,0.08
			C213.79,125.58,213.5,125.3,213.54,124.64z"/>
		<path class="st10" d="M287.68,98.58c1.11,0.27,2.23,0.47,3.3,0.84c0.3,0.11,0.43,0.71,0.64,1.09c-0.53-0.1-1.07-0.15-1.58-0.31
			c-0.6-0.19-1.22-0.41-1.75-0.73C288,99.31,287.87,98.89,287.68,98.58z"/>
		<path class="st11" d="M224.18,106.57c-0.94,1.35-2.51,1.41-3.87,1.88c-0.05-0.75,0.21-1.13,1.05-1.22
			C222.31,107.13,223.24,106.8,224.18,106.57z"/>
		<path class="st12" d="M220.34,108.53c-0.28,0.96-1.43,1.79-2.6,1.86c-0.36,0.02-0.72-0.01-1.07-0.02c0.6-0.39,1.17-0.84,1.8-1.16
			C219.06,108.91,219.72,108.75,220.34,108.53z"/>
		<path class="st13" d="M324.72,115.92c1.5,0.05,2.87,0.42,3.85,1.67c-1.49,0.47-2.43-0.92-3.72-1.13
			C324.78,116.46,324.76,116.11,324.72,115.92z"/>
		<path class="st14" d="M285.62,82.99c-1.25-0.16-2.57-0.16-3.22-1.56C283.85,81.17,284.99,81.57,285.62,82.99z"/>
		<path class="st15" d="M270.43,99.34c0.8-1.06,1.98-1.26,3.19-1.37c-0.59,1.43-1.76,1.75-3.15,1.62
			C270.46,99.51,270.45,99.42,270.43,99.34z"/>
		<path class="st16" d="M335.76,120.96c1.35,0.11,2.69,0.24,3.61,1.43c-1.03-0.24-2.06-0.44-3.07-0.73
			C336.07,121.59,335.94,121.2,335.76,120.96z"/>
		<path class="st17" d="M239.55,117.38c-0.73,1.18-1.89,1.5-3.17,1.61C236.97,117.55,238.15,117.24,239.55,117.38z"/>
		<path class="st18" d="M344.86,124.82c1.22-0.07,2.45-0.14,3.67-0.2c-0.24,0.3-0.51,0.88-0.71,0.85
			C346.82,125.34,345.85,125.05,344.86,124.82z"/>
		<path class="st13" d="M264.53,105.4c-0.65,1.16-1.81,1.35-2.95,1.57C262.06,105.49,263.34,105.54,264.53,105.4z"/>
		<path class="st15" d="M312.72,110.16c1.07,0.12,2.16,0.22,2.74,1.34C313.86,111.67,313.23,111.36,312.72,110.16z"/>
		<path class="st19" d="M352.51,114.53c-1.14-0.18-1.82-0.86-2.12-1.96C351.61,112.67,352.33,113.3,352.51,114.53z"/>
		<path class="st13" d="M224.38,121.43c0.45-0.93,1.26-1.05,2.17-0.97C226.15,121.71,225.73,121.9,224.38,121.43z"/>
		<path class="st20" d="M241.48,116.44c-0.22,0.97-0.76,1.34-1.72,0.9C239.83,116.08,240.74,116.43,241.48,116.44z"/>
		<path class="st21" d="M284.67,100.49c-0.9,0.27-1.51-0.14-1.98-0.87c0.27-0.05,0.54-0.07,0.79-0.16
			C284.46,99.14,284.64,99.72,284.67,100.49z"/>
		<path class="st22" d="M270.43,99.34c0.01,0.09,0.02,0.17,0.04,0.26c-0.58,0.43-0.96,1.31-1.94,0.9
			C268.45,98.92,269.65,99.47,270.43,99.34z"/>
		<path class="st21" d="M226.43,105.46c-0.48,0.57-0.83,1.36-1.81,1.02C224.73,105.28,225.53,105.28,226.43,105.46z"/>
		<path class="st23" d="M349.42,124.5c-0.18-1.3,0.68-1.18,1.51-1.11C350.6,124,350.46,124.86,349.42,124.5z"/>
		<path class="st24" d="M211.11,123.46c0.9-0.22,1.59-0.12,1.56,1.05C211.67,124.86,211.44,124.09,211.11,123.46z"/>
		<path class="st20" d="M310.6,94.49c-1.02,0.36-1.25-0.39-1.53-1.07C309.93,93.27,310.67,93.3,310.6,94.49z"/>
		<path class="st25" d="M278.67,80.44c0.03,1.17-0.63,1.3-1.55,1.02C277.44,80.82,277.73,80.14,278.67,80.44z"/>
		<path class="st9" d="M238.65,99.57c-0.06,0.87-0.53,1.15-1.34,0.92C237.38,99.64,237.64,99.06,238.65,99.57z"/>
		<path class="st24" d="M218.37,124.49c0-0.96,0.41-1.35,1.36-0.97C219.57,124.26,219.25,124.76,218.37,124.49z"/>
		<path class="st24" d="M220.56,123.38c0.2-0.18,0.4-0.37,0.59-0.55c0.02,0.22,0.04,0.44,0.05,0.65
			C220.99,123.45,220.77,123.42,220.56,123.38z"/>
		<path class="st26" d="M273.37,131.28c0.03-0.22,0.07-0.44,0.1-0.66c0.89,0.01,1.23-0.44,1.06-1.3c1.21-0.78,2.43-1.57,3.64-2.35
			c1.26,0.7,2.56,0.66,3.87,0.16c1.73,0.75,3.19,1.85,4.2,3.44c0.34,0.54,0.43,1.24,0.64,1.87c-0.58,1.15-0.71,2.29,0.12,3.39
			c-0.74,2.27-2.18,3.86-4.47,4.63c-0.9-0.22-1.57,0.05-1.97,0.92c-0.64,0-1.29,0.01-1.93,0.01c0.02-1.13-0.71-1.06-1.48-0.93
			c-1.92-0.09-2.68-1.63-3.65-2.91c0.06-0.81,0.42-1.75-0.86-1.97c0-1.04,0.01-2.08,0.01-3.12
			C273.52,132.46,273.87,132.12,273.37,131.28z"/>
		<path class="st25" d="M282.03,127.14c-1.31,0.5-2.61,0.54-3.87-0.16C279.38,126.18,280.78,126.24,282.03,127.14z"/>
		<path class="st27" d="M287,135.84c-0.84-1.1-0.71-2.24-0.12-3.39C287.77,133.13,287.82,134.45,287,135.84z"/>
		<path class="st5" d="M280.56,141.39c0.39-0.87,1.07-1.13,1.97-0.92C282.37,141.7,282.21,141.78,280.56,141.39z"/>
		<path class="st28" d="M272.64,135.6c1.28,0.23,0.92,1.16,0.86,1.97C272.84,137.08,271.99,136.66,272.64,135.6z"/>
		<path class="st5" d="M277.15,140.48c0.77-0.13,1.5-0.2,1.48,0.93C277.56,142.02,277.46,141.08,277.15,140.48z"/>
		<path class="st29" d="M274.52,129.32c0.17,0.86-0.17,1.3-1.06,1.3C273.15,129.64,273.65,129.33,274.52,129.32z"/>
		<path class="st28" d="M273.37,131.28c0.5,0.84,0.15,1.18-0.72,1.2C272.08,131.6,272.56,131.34,273.37,131.28z"/>
	</g>
</g>
</svg>
