<?xml version="1.0" encoding="utf-8"?>
<!-- Generator: Adobe Illustrator 23.0.1, SVG Export Plug-In . SVG Version: 6.00 Build 0)  -->
<svg version="1.1" id="Calque_1" xmlns="http://www.w3.org/2000/svg" xmlns:xlink="http://www.w3.org/1999/xlink" x="0px" y="0px"
	 viewBox="0 0 560 288" style="enable-background:new 0 0 560 288;" xml:space="preserve">
<style type="text/css">
	.st0{fill:#FEFEFE;}
	.st1{fill:#375F59;}
	.st2{fill:#365F59;}
	.st3{fill:#386059;}
	.st4{fill:#EDC831;}
	.st5{fill:#EEC830;}
	.st6{fill:#ECC732;}
	.st7{fill:#406660;}
	.st8{fill:#3D645D;}
	.st9{fill:#E2E9E7;}
	.st10{fill:#8EA6A1;}
	.st11{fill:#FBF7E2;}
	.st12{fill:#F4DF8B;}
	.st13{fill:#8E8D4E;}
	.st14{fill:#6A8884;}
	.st15{fill:#638075;}
	.st16{fill:#A1B3B1;}
	.st17{fill:#BDCAC9;}
	.st18{fill:#A69B46;}
	.st19{fill:#D1B53D;}
	.st20{fill:#828451;}
	.st21{fill:#687953;}
	.st22{fill:#B9A843;}
	.st23{fill:#ECC831;}
	.st24{fill:#C5AE41;}
</style>
<g>
	<g>
		<path class="st0" d="M355.44,203.28c-50.07,0-100.13,0-150.22,0c0-39.65,0-79.31,0-119c50.06,0,100.14,0,150.22,0
			C355.44,123.93,355.44,163.6,355.44,203.28z M290.45,190.27c0.31-0.01,0.62-0.02,0.93-0.03c0.31,0.03,0.63,0.05,0.94,0.08
			c0.96,0.3,1.93,0.6,2.89,0.9c0.31,0.02,0.63,0.05,0.94,0.07c0.46,0.92,1.24,1.1,2.17,0.93c0.34,0.07,0.68,0.11,1,0.21
			c1.42,0.44,2.83,0.9,4.25,1.35c0.16,0.11,0.32,0.23,0.49,0.34c0.06-0.31,0.12-0.63,0.18-0.94c0.01-0.32,0.04-0.64,0.04-0.96
			c0-27.3,0-54.61,0-81.91c0-0.36-0.04-0.72-0.06-1.07c0.29-1.09-0.39-1.05-1.11-0.95c-0.63-0.02-1.29,0.06-1.89-0.09
			c-1.69-0.42-3.37-0.93-5.05-1.4c-0.2-0.41-0.39-0.89-0.92-0.3c-0.33-0.06-0.65-0.13-0.98-0.19c-0.32-0.32-0.6-0.81-0.98-0.91
			c-0.62-0.16-1.31-0.07-1.97-0.08c-0.32-0.02-0.63-0.05-0.95-0.07c-0.17-1.52-1.3-0.95-2.15-1c-0.71-0.04-1.42-0.08-2.12-0.13
			c-0.65-0.28-1.3-0.56-1.95-0.84c-0.39-0.03-0.78-0.06-1.17-0.09c-0.88-0.3-1.77-0.61-2.65-0.91c-0.38-0.04-0.78-0.04-1.15-0.13
			c-1.12-0.27-2.24-0.56-3.36-0.87c-0.35-0.1-0.69-0.28-1.03-0.43c0.13-0.18,0.26-0.35,0.61-0.83c-0.87,0.15-1.45,0.24-2.03,0.34
			c-0.31-0.03-0.62-0.06-0.93-0.09c-0.24-1.21-0.58-1.36-2.17-0.95c-0.65-0.04-1.29-0.08-1.94-0.12c0.02-1.7-1.22-0.82-1.96-0.96
			c-0.7-0.02-1.4-0.05-2.1-0.07c-0.05-1.63-1.25-0.74-1.97-0.89c-0.33,0.02-0.67,0.04-1.06,0.06c0,5.5-0.01,10.87,0,16.23
			c0,1.23,0.06,2.46,0.09,3.69c0,2.35-0.01,4.7-0.01,7.04c0,2.98,0,5.96,0,8.93c0,2.33,0,4.66,0.01,6.99
			c-0.02,3.64-0.03,7.28-0.05,10.92c0,0.32,0,0.64,0.01,0.97c0.01,2.74,0.02,5.47,0.04,8.21c-0.01,6.7-0.02,13.4-0.03,20.1
			c-0.2,0.81-0.11,0.92,0.56,0.73c0.57,0.17,1.14,0.33,1.71,0.5c-0.01,0.22-0.03,0.44-0.05,0.82c0.53-0.12,1-0.22,1.46-0.32
			c0.39,0.03,0.78,0.06,1.17,0.09c0.1,1.56,1.16,1.12,2.07,0.99c0.68,0.03,1.37,0.06,2.05,0.09c0.1,0.3,0.22,0.88,0.3,0.87
			c0.72-0.06,1.44-0.21,2.16-0.34c0.36,0.31,0.67,0.74,1.08,0.89c1.52,0.55,3.06,1.02,4.61,1.47c0.77,0.23,1.57,0.35,2.36,0.53
			c0.29,0.16,0.56,0.39,0.88,0.48c0.74,0.2,1.5,0.33,2.26,0.49c0.74,0.23,1.47,0.45,2.21,0.68c0.1,1.44,1.06,0.99,1.88,0.85
			c0.39,0.02,0.78,0.05,1.17,0.07C289.1,190.25,289.62,190.46,290.45,190.27z M321.16,104.23c-0.92-0.16-1.59,0.19-2.03,1
			c-0.38,0.03-0.76,0.05-1.14,0.08c-1.28-0.31-1.48-0.23-1.4,0.56c-2.75,0.82-5.5,1.63-8.27,2.46c0,28.3,0,56.55,0,85.05
			c0.79-0.18,1.5-0.3,2.19-0.5c0.61-0.17,1.19-0.45,1.8-0.63c0.3-0.09,0.64,0.01,0.95-0.07c1.16-0.3,2.31-0.63,3.46-0.96
			c0.25-0.07,0.49-0.21,0.73-0.3c0.64-0.23,1.28-0.44,1.92-0.66c0.79-0.07,1.96,0.65,1.98-0.98c0.29-0.01,0.57-0.02,0.86-0.03
			c0.64,0,1.27,0,1.91,0c0.07-0.11,0.14-0.23,0.22-0.34c-0.21-0.1-0.41-0.19-0.62-0.29c1.9-0.63,3.81-1.27,5.72-1.9
			c0.65-0.21,1.3-0.41,1.96-0.61c0.92-0.28,1.84-0.58,2.77-0.83c0.34-0.09,0.89,0.07,1.03-0.12c0.84-1.15,2.03-0.86,3.15-0.91
			c0.6-0.32,1.2-0.64,1.8-0.96c0.47-0.05,0.93-0.1,1.4-0.15c1.39,0.38,1.55,0.3,1.7-0.92c0.31-0.03,0.62-0.06,0.93-0.09
			c1.24,0.43,1.96,0.14,2.19-0.87c0.39-0.03,0.78-0.07,1.16-0.1c0.19,0.04,0.39,0.09,0.58,0.13c-0.13-0.2-0.25-0.39-0.38-0.59
			c0.32-0.33,0.65-0.67,0.97-1c0.21,0.09,0.58,0.3,0.61,0.26c0.56-0.81,1.6-1.46,0.98-2.69c0.01-0.2,0.02-0.4,0.02-0.6
			c0-24.86,0-49.72,0-74.58c0-0.6-0.08-1.19-0.12-1.79c0.11-0.71-0.18-1.05-0.9-1l-0.02-0.01c-0.03-0.34-0.06-0.69-0.07-0.85
			c-0.59-0.3-1.08-0.47-1.46-0.77c-1.12-0.87-3.51-0.67-4.52,0.43c-0.55,0.18-1.11,0.36-1.66,0.54c-0.33,0.14-0.65,0.28-0.98,0.42
			c-0.48,0.07-0.96,0.14-1.44,0.21c-1.65-0.33-1.79-0.26-1.97,0.96c-0.7,0.03-1.4,0.06-2.1,0.09c-1.15-0.39-1.72-0.14-1.95,0.86
			c-0.39,0.03-0.78,0.06-1.17,0.09c-1.19-0.46-1.53-0.34-1.41,0.49c-0.33,0.15-0.66,0.33-1,0.44c-0.56,0.18-1.12,0.31-1.69,0.46
			c-0.55,0.17-1.1,0.35-1.66,0.52c-0.31,0.03-0.63,0.05-0.94,0.08c-0.74,0.09-1.82-0.56-1.93,0.9c-0.32,0.02-0.63,0.03-0.95,0.05
			C321.94,104.23,321.55,104.23,321.16,104.23z M258.21,123.32c0.01-1.86,0.04-3.71,0.01-5.57c-0.01-0.38-0.28-0.75-0.44-1.12
			c0.15-0.51,0.44-1.02,0.44-1.53c0.03-5.9,0.02-11.8,0.02-17.71c0-0.35-0.03-0.7-0.06-1.34c-0.56,0.27-0.97,0.47-1.38,0.67
			c-0.16,0.01-0.31,0.02-0.47,0.03c-0.73,0.1-1.61-0.47-2.17,0.46c-0.31,0.03-0.62,0.05-0.94,0.08c-0.73,0.12-1.87-0.65-1.94,0.89
			c-0.63,0.02-1.27,0.05-1.9,0.07c-0.82,0.37-1.63,0.73-2.45,1.1c-0.08,0-0.16,0-0.24,0.02c-1.53,0.36-3.06,0.68-4.57,1.1
			c-1.35,0.37-2.67,0.88-4.02,1.27c-1.28,0.37-2.57,0.67-3.86,1.01c-0.25,0.14-0.49,0.27-0.74,0.41c-0.7,0.04-1.41,0.08-2.11,0.12
			c-1.09-0.23-1.87,0.22-2.48,1.09c-0.22,0.02-0.45,0.05-0.67,0.07c-0.61,0.11-1.51-0.52-1.7,0.66c-0.72,0.07-1.43,0.14-2.15,0.21
			c-0.57,0.17-1.15,0.33-1.72,0.5c-0.88,0.32-1.74,0.7-2.64,0.96c-1.09,0.32-2.24,0.49-3.32,0.85c-1.46,0.48-2.88,1.09-4.31,1.64
			c-0.38,0.39-0.75,0.78-1.13,1.17c-0.03,0.63-0.07,1.26-0.1,1.9c-1-0.14-0.95,0.51-0.95,1.19c0.01,7.6,0.01,15.21,0.01,22.81
			c0,4,0,8,0,12c0,13.28,0,26.57-0.01,39.85c0,0.68-0.06,1.34,0.95,1.19c-0.31,2.48,1.55,4.26,4.18,3.88
			c0.35-0.05,0.74,0.08,1.07-0.02c0.93-0.29,1.84-0.65,2.75-0.99c0.46-0.16,0.93-0.31,1.39-0.47c0.75-0.17,1.51-0.33,2.25-0.52
			c0.67-0.17,1.32-0.37,1.98-0.55c0.48-0.13,0.95-0.27,1.43-0.4c0.89,0.3,1.37-0.21,1.76-0.89c0.45-0.06,0.9-0.12,1.35-0.18
			c0.6,0.04,1.19,0.08,1.83,0.13c0.09-0.46,0.15-0.79,0.22-1.12c0.31-0.03,0.61-0.07,0.92-0.1c0.58,0.08,1.15,0.15,1.73,0.23
			c0.02-0.1,0.04-0.2,0.06-0.29c-0.14-0.13-0.27-0.26-0.41-0.38c0.53-0.17,1.06-0.33,1.59-0.5c0.27-0.02,0.63,0.07,0.8-0.08
			c0.83-0.71,1.93-0.61,2.8-0.97c1.13-0.46,2.17-0.98,3.41-1.04c0.11-0.01,0.22-0.31,0.32-0.48c0.9-0.25,1.8-0.49,2.7-0.74
			c0.23-0.16,0.46-0.32,0.69-0.48c0.38-0.06,0.75-0.11,1.13-0.17c1.84,0.29,1.99,0.22,2.27-1.01c0.3-0.04,0.61-0.08,0.91-0.11
			c0.57,0.43,0.87,0.28,0.92-0.42c0,0,0.04-0.02,0.04-0.02c0.71-0.14,1.42-0.29,2.12-0.43c0.26-0.05,0.62-0.03,0.77-0.19
			c0.87-0.91,1.99-0.8,3.07-0.84c0.69,0.14,1.07-0.07,0.99-0.85c-0.04-0.35-0.03-0.71-0.04-1.07c0-7.34,0-14.69,0.01-22.03
			c0-2.33,0-4.66,0-6.99c0-3.34,0-6.68,0-10.02c0-2.33,0-4.67,0-7C258.21,129.26,258.21,126.29,258.21,123.32z"/>
		<path class="st1" d="M348.69,179.71c-0.32,0.33-0.65,0.67-0.97,1c-0.07,0.15-0.13,0.3-0.2,0.46c-0.39,0.03-0.78,0.07-1.16,0.1
			c-0.91-0.15-1.67,0.05-2.19,0.87c-0.31,0.03-0.62,0.06-0.93,0.09c-0.79-0.11-1.59-0.22-1.7,0.92c-0.47,0.05-0.93,0.1-1.4,0.15
			c-0.88-0.21-1.62-0.15-1.8,0.96c-1.12,0.05-2.31-0.24-3.15,0.91c-0.14,0.19-0.69,0.03-1.03,0.12c-0.93,0.25-1.85,0.55-2.77,0.83
			c-0.65,0.2-1.31,0.4-1.96,0.61c-1.91,0.63-3.81,1.27-5.72,1.9c-0.5,0.21-1,0.42-1.51,0.63c-0.29,0.01-0.57,0.02-0.86,0.03
			c-0.92-0.21-1.68-0.08-1.98,0.98c-0.64,0.22-1.28,0.43-1.92,0.66c-0.25,0.09-0.48,0.23-0.73,0.3c-1.15,0.33-2.3,0.66-3.46,0.96
			c-0.3,0.08-0.65-0.02-0.95,0.07c-0.61,0.18-1.19,0.46-1.8,0.63c-0.69,0.2-1.4,0.32-2.19,0.5c0-28.5,0-56.75,0-85.05
			c2.77-0.82,5.52-1.64,8.27-2.46c0.47-0.19,0.93-0.37,1.4-0.56c0.38-0.03,0.76-0.05,1.14-0.08c0.66-0.04,1.32-0.08,1.98-0.12
			c0.64,0.04,1.22-0.02,1.23-0.88c0.32-0.02,0.63-0.03,0.95-0.05c1.17,0.32,1.74,0.05,1.93-0.9c0.31-0.03,0.63-0.05,0.94-0.08
			c0.47,0.07,0.94,0.18,1.41,0.18c0.08,0,0.16-0.45,0.24-0.7c0.56-0.15,1.13-0.28,1.69-0.46c0.35-0.11,0.67-0.29,1-0.44
			c0.47-0.16,0.94-0.33,1.41-0.49c0.39-0.03,0.78-0.06,1.17-0.09c0.85,0.17,1.52-0.08,1.95-0.86c0.7-0.03,1.4-0.06,2.1-0.09
			c0.89,0.16,1.6-0.06,1.97-0.96c0.48-0.07,0.96-0.14,1.44-0.21c0.6,0.48,0.89,0.26,0.98-0.42c0.55-0.18,1.11-0.36,1.66-0.54
			c0.36,0.04,0.8,0.22,1.08,0.08c1.14-0.58,2.2-0.12,3.28,0.13c0.23,0.05,0.44,0.23,0.66,0.36c0.34,0.2,0.69,0.41,1.03,0.61
			c0,0,0.02,0.01,0.02,0.01c-0.01,0.32-0.03,0.64-0.04,0.96c-0.01,0.16-0.02,0.32-0.02,0.48c0,25.41,0,50.82,0.01,76.23
			c0,0.37,0.17,0.74,0.26,1.1C349.21,178.63,348.95,179.17,348.69,179.71z"/>
		<path class="st2" d="M296.16,191.28c-0.31-0.02-0.63-0.05-0.94-0.07c-0.22-1.02-1.46-1.4-2.89-0.9c-0.31-0.03-0.63-0.05-0.94-0.08
			c-0.01-0.73-0.16-1.31-1.11-0.99c-0.38,0.01-0.75,0.03-1.13,0.04c-0.39-0.02-0.78-0.05-1.17-0.07c-0.63-0.28-1.25-0.56-1.88-0.85
			c-0.74-0.23-1.47-0.45-2.21-0.68c0.55-0.16,1.11-0.3,1.65-0.5c0.35-0.13,0.68-0.33,1.02-0.5c0.43-0.15,0.85-0.33,1.29-0.45
			c1.39-0.37,2.78-0.71,4.17-1.07c0.07-0.02,0.18-0.09,0.18-0.14c0.04-0.94,0.8-0.64,1.31-0.81c0.27-0.09,0.44-0.43,0.71-0.54
			c0.78-0.35,0.92-1.53,1.98-1.5c0.7,0.07,1.02-0.24,0.95-0.94l0.02-0.01c0.72,0.02,1.35-0.06,1.11-1.05
			c0.13-0.44,0.11-1.09,0.41-1.3c1.27-0.92,1.5-2.38,2.07-3.65c0.72-0.07,0.9-0.38,0.43-0.98c0.04-0.62,0.07-1.25,0.11-1.87
			c1.24-0.15,1.37-0.47,0.93-2.19c0-0.65,0-1.31,0-1.96c-0.01-1.67-0.02-3.34-0.03-5.01c0.01-0.72,0.01-1.45,0.02-2.17
			c0.41-1.46,0.28-1.74-0.92-1.95c-0.04-0.95-0.07-1.89-0.11-2.84c0.48-0.59,0.31-0.9-0.42-0.98c-0.17-0.78-0.26-1.6-0.53-2.34
			c-0.45-1.21-1.12-2.34-1.12-3.68c0-0.03-0.06-0.05-0.07-0.09c-0.26-0.66-0.52-1.33-0.78-2c0.24-0.81-0.09-1.12-0.89-0.99
			c-0.04-0.3-0.08-0.61-0.12-0.91c0.02-0.27,0.05-0.55,0.09-1c-0.34,0.24-0.51,0.37-0.68,0.49c-0.45-0.86-1-1.69-1.34-2.6
			c-0.59-1.61-1.29-3.14-2.53-4.36c0.14-0.2,0.27-0.39,0.48-0.69c-0.41-0.03-0.68-0.04-0.94-0.06c-0.13-0.24-0.26-0.7-0.4-0.7
			c-0.8-0.02-0.66-0.61-0.75-1.07c-0.13-1.25-0.87-2.05-1.8-1.95l-0.05-0.04c0.03-0.28,0.07-0.56,0.13-1.07
			c-0.38,0.29-0.55,0.42-0.73,0.56c-0.8-0.81-1.6-1.63-2.41-2.44c-0.02-0.51,0.18-1-0.62-1.27c-0.8-0.28-1.46-0.93-2.18-1.41
			c-0.51-0.37-1.03-0.74-1.54-1.11c0.02-0.03,0.04-0.06,0.06-0.1c-0.41-0.22-0.83-0.44-1.24-0.66c0.14-0.17,0.27-0.34,0.49-0.61
			c-0.75-0.31-1.44-0.59-2.12-0.88c-0.24-0.02-0.48-0.03-0.72-0.05c-0.07-1.22-0.07-1.22-0.98-0.92c-0.35,0-0.71,0-1.13,0
			c-0.07-0.37-0.13-0.71-0.2-1.12c-1.32-0.38-2.64-0.68-3.9-1.13c-0.86-0.3-1.64-0.82-2.47-1.21c-0.51-0.24-1.03-0.46-1.56-0.63
			c-0.37-0.12-0.87-0.01-1.13-0.23c-0.83-0.69-1.77-0.8-2.77-0.75c-0.06-0.34-0.13-0.68-0.21-1.12c-0.65,0.04-1.24,0.08-1.83,0.12
			c-0.31-0.01-0.62-0.02-0.93-0.03c-0.03-1.23-0.09-2.46-0.09-3.69c-0.01-5.37,0-10.74,0-16.23c0.39-0.02,0.72-0.04,1.06-0.06
			c0.43,0.8,1.12,1.03,1.97,0.89c0.7,0.02,1.4,0.05,2.1,0.07c0.24,1.16,1.04,1.18,1.96,0.96c0.65,0.04,1.29,0.08,1.94,0.12
			c0.44,0.97,1.25,1.08,2.17,0.95c0.31,0.03,0.62,0.06,0.93,0.09c0.47,0.16,0.94,0.33,1.42,0.49c0.34,0.15,0.67,0.33,1.03,0.43
			c1.11,0.31,2.23,0.6,3.36,0.87c0.37,0.09,0.77,0.09,1.15,0.13c0.21,1.06,1.3,1.43,2.65,0.91c0.39,0.03,0.78,0.06,1.17,0.09
			c0.24,0.99,0.87,1.26,1.95,0.84c0.71,0.04,1.42,0.08,2.12,0.13c0.13,1.24,0.27,1.31,2.15,1c0.32,0.02,0.63,0.05,0.95,0.07
			c0.63,1.37,1.95,0.71,2.95,0.99c0.33,0.06,0.65,0.13,0.98,0.19c0.31,0.1,0.61,0.2,0.92,0.3c1.68,0.47,3.35,0.98,5.05,1.4
			c0.6,0.15,1.26,0.06,1.89,0.09c-0.12,0.89,0.42,1.01,1.11,0.95c0.02,0.36,0.06,0.72,0.06,1.07c0,27.3,0,54.61,0,81.91
			c0,0.32-0.03,0.64-0.04,0.96c-0.22,0.2-0.44,0.4-0.66,0.59c-1.41-0.45-2.83-0.91-4.25-1.35c-0.33-0.1-0.67-0.14-1-0.21
			C298.15,191.16,297.42,190.85,296.16,191.28z"/>
		<path class="st3" d="M261.31,133.22c0-2.98,0-5.96,0-8.93c0.95-0.03,1.81-0.02,2.68,0.64c0.56,0.42,1.72,0.1,2.2,0.55
			c1.17,1.08,2.84,0.48,4.05,1.64c1.03,0.99,2.63,1.39,3.99,2.03c0.53,0.25,0.9,0.67,1.33,1.02c1.14,0.92,2.64,1.4,3.77,2.33
			c1.72,1.41,3.36,2.95,4.81,4.63c1.35,1.57,3.15,2.75,3.84,4.95c0.38,1.21,1.58,2.14,2.34,3.25c0.44,0.64,0.76,1.38,1.1,2.08
			c0.46,0.93,0.97,1.85,1.32,2.82c0.71,1.98,1.33,4,1.99,6c0.13,0.33,0.27,0.66,0.4,0.98c0.04,1.03,0.09,2.05,0.13,3.08
			c0,0.64-0.01,1.27-0.01,1.91c0.13,0.82,0.26,1.64,0.39,2.45c0.19,0.23,0.38,0.46,0.57,0.69c0,0.65,0.01,1.31,0.01,1.96
			c-0.89,0.87-0.94,2-0.96,3.15c0.14,1.8-1.04,3.09-1.78,4.53c-0.26,0.5-0.76,0.86-1.12,1.31c-0.51,0.63-0.87,1.55-1.52,1.88
			c-2.09,1.07-4.2,2.22-6.69,2.1c-0.65,0-1.29,0-1.93,0c-1.03-0.06-2.15,0.13-3.06-0.23c-1.23-0.48-2.31-1.35-3.41-2.12
			c-0.83-0.57-1.81-1.1-2.32-1.9c-0.88-1.39-1.79-2.75-2.31-4.4c-0.57-1.83-0.85-3.6-0.94-5.5c-0.07-1.6-0.49-3.19-0.9-4.76
			c-0.28-1.07-0.72-2.12-1.24-3.1c-0.43-0.83-1.08-1.54-1.63-2.3c-0.45-0.66-0.92-1.29-1.43-1.87c-0.31-0.35-0.69-0.66-1.07-0.93
			c-0.54-0.39-1.11-0.73-1.67-1.09c0.26-0.94-0.49-0.8-0.99-0.94c0.02-3.64,0.03-7.28,0.05-10.92c0.89-0.07,1.51,0.28,2.21,0.9
			c1.46,1.3,3.69,1.33,5.01,3.05c0.65,0.85,1.75,1.36,2.64,2.02c0.14,0.96,1.15,2.03,1.97,2.09c1,1.33,2.09,2.6,2.97,4
			c0.54,0.86,0.75,1.92,1.13,2.88c0.18,0.45,0.41,0.89,0.62,1.33c0.11-0.04,0.21-0.07,0.32-0.11c0.06,0.6,0.11,1.19,0.17,1.79
			c-0.5,0.97,0.2,1.12,0.88,1.29c0.02,0.93,0.04,1.86,0.06,2.79c0.02,1.1-0.02,2.21,0.1,3.29c0.04,0.31,0.55,0.56,0.84,0.84
			c0,0.2,0,0.4,0,0.6c-1.05,0.02-0.8,0.82-0.89,1.44c-0.1,0.71,0.21,1.03,0.89,1.07c0.12,0.74-0.39,1.83,1.01,1.87
			c-0.13,0.83,0.23,1.1,1.01,0.9c0.61,0,1.22-0.01,1.83-0.01c0.83,0.18,1.38,0.02,1.23-1c1.22,0.23,0.8-0.82,1.04-1.35
			c0.7-0.44,0.96-1.05,0.91-1.89c-0.06-1.02,0.04-2.05-0.05-3.06c-0.03-0.38-0.4-0.73-0.62-1.09c-0.12-1.49-0.24-2.98-0.37-4.46
			c0.12-0.72,0.21-1.42-0.9-1.26c-0.08-0.96-0.16-1.92-0.24-2.87c0.03-0.54,0.04-1.06-0.75-0.94c-0.03-0.31-0.07-0.62-0.1-0.93
			c0.32-0.95-0.14-1.28-1.01-1.31c-0.17-0.42-0.32-0.85-0.52-1.26c-0.13-0.27-0.34-0.51-0.49-0.78c-0.71-1.31-1.31-2.69-2.13-3.92
			c-0.86-1.29-1.93-2.44-2.94-3.63c-0.24-0.29-0.66-0.43-0.91-0.71c-0.44-0.49-0.71-1.32-1.24-1.52c-1.2-0.46-1.97-1.35-2.86-2.15
			c-0.4-0.36-0.89-0.63-1.37-0.88c-0.97-0.5-1.96-0.95-2.94-1.43c0.12-0.17,0.24-0.34,0.49-0.69c-0.47,0.06-0.76,0.09-1.04,0.12
			c-0.31-0.04-0.63-0.08-0.94-0.11c0.19-1.05-0.44-1.07-1.19-0.93c-0.39-0.05-0.78-0.06-1.15-0.17
			C263.1,133.8,262.21,133.5,261.31,133.22z"/>
		<path class="st2" d="M228.25,104.43c0.22-0.02,0.45-0.05,0.67-0.07c0.44-0.02,0.88-0.01,1.31-0.08c0.58-0.09,1.23-0.15,1.17-1.01
			c0.7-0.04,1.41-0.08,2.11-0.12c0.62,0.55,0.61-0.06,0.74-0.41c1.29-0.33,2.58-0.63,3.86-1.01c1.35-0.39,2.66-0.9,4.02-1.27
			c1.51-0.42,3.05-0.74,4.57-1.1c0.08-0.02,0.16-0.01,0.24-0.02c0.43,0,0.87-0.03,1.29,0.02c0.86,0.1,1.26-0.24,1.15-1.12
			c0.63-0.02,1.27-0.05,1.9-0.07c1.17,0.32,1.73,0.06,1.94-0.89c0.31-0.03,0.62-0.05,0.94-0.08c0.8,0.19,1.68,0.79,2.17-0.46
			c0.16-0.01,0.31-0.02,0.47-0.03c0.16,0.43,0.46,0.86,0.46,1.29c0.02,6.06,0,12.12,0,18.18c-0.96,0.02-1.92,0.04-2.88,0.06
			c-1.66,0-3.33,0-4.99,0c-1.03-0.01-2.06-0.01-3.09-0.02c-0.71,0.17-1.95-0.79-1.96,0.9c-1.04,0.09-2.07,0.17-3.11,0.26
			c-0.58-0.07-1.15-0.13-1.8-0.2c-0.07,0.4-0.13,0.74-0.19,1.08c-0.7,0.03-1.4,0.05-2.11,0.08c-1.13-0.39-1.73-0.13-1.96,0.86
			c-0.39,0.03-0.77,0.06-1.16,0.1c-0.62-0.52-0.68-0.05-0.74,0.42c-1.03,0.44-2.05,0.9-3.09,1.32c-0.32,0.13-0.68,0.14-1.03,0.2
			c-0.27,0.05-0.76,0.07-0.77,0.16c-0.19,1.28-1.3,0.55-1.85,0.94c-0.25,0.36-0.48,0.77-0.84,0.98c-1.28,0.78-2.61,1.47-3.9,2.25
			c-0.95,0.58-1.86,1.24-2.78,1.86c-0.19,0.13-0.4,0.25-0.56,0.41c-1.94,1.95-3.87,3.92-5.81,5.88c-0.1-0.14-0.2-0.27-0.3-0.41
			c-0.05,0.03-0.11,0.06-0.16,0.1c0.09,0.16,0.17,0.33,0.26,0.49c-0.07,0.15-0.14,0.3-0.22,0.45c-0.31,0-0.62,0-0.94,0
			c-0.02-2.04-0.04-4.08-0.05-6.11c-0.02-5.31-0.04-10.63-0.06-15.94c0.03-0.63,0.07-1.26,0.1-1.9c0.91,0.13,1.28-0.28,1.13-1.17
			c1.44-0.55,2.86-1.15,4.31-1.64c1.08-0.36,2.22-0.52,3.32-0.85c0.9-0.27,1.76-0.64,2.64-0.96c1.28,0.85,1.58,0.76,1.72-0.5
			c0.72-0.07,1.43-0.14,2.15-0.21C227.3,105.33,228.01,105.47,228.25,104.43z"/>
		<path class="st4" d="M295.28,160.29c-0.04-1.03-0.09-2.05-0.13-3.08c0.52-0.6,0.35-0.91-0.4-0.98c-0.66-2-1.28-4.02-1.99-6
			c-0.35-0.97-0.86-1.89-1.32-2.82c-0.35-0.71-0.66-1.44-1.1-2.08c-0.76-1.11-1.96-2.04-2.34-3.25c-0.69-2.2-2.49-3.38-3.84-4.95
			c-1.45-1.68-3.1-3.22-4.81-4.63c-1.13-0.93-2.63-1.41-3.77-2.33c-0.43-0.35-0.81-0.77-1.33-1.02c-1.36-0.64-2.96-1.04-3.99-2.03
			c-1.21-1.16-2.88-0.56-4.05-1.64c-0.49-0.45-1.65-0.13-2.2-0.55c-0.86-0.66-1.73-0.67-2.68-0.64c0-2.35,0.01-4.7,0.01-7.04
			c0.31,0.01,0.62,0.02,0.93,0.03c0.06,1.6,1.23,0.92,2.04,1c1-0.05,1.94,0.06,2.77,0.75c0.26,0.21,0.76,0.11,1.13,0.23
			c0.53,0.17,1.06,0.39,1.56,0.63c0.83,0.39,1.61,0.91,2.47,1.21c1.26,0.45,2.58,0.76,3.9,1.13c0.07,0.41,0.13,0.75,0.2,1.12
			c0.42,0,0.77,0,1.13,0c0.33,0.31,0.65,0.61,0.98,0.92c0.24,0.02,0.48,0.03,0.72,0.05c0,0.52-0.01,0.99,0.76,0.99
			c0.29,0,0.58,0.32,0.87,0.49c0.41,0.22,0.83,0.44,1.24,0.66c-0.02,0.03-0.04,0.06-0.06,0.1c0.51,0.37,1.03,0.74,1.54,1.11
			c0.25,0.44,0.4,1.04,0.78,1.28c0.7,0.44,0.9,1.61,2.02,1.4c0.8,0.81,1.6,1.63,2.41,2.44c0.2,0.17,0.4,0.34,0.6,0.51
			c0,0,0.05,0.04,0.05,0.03c0.34,0.61,0.65,1.24,1.05,1.81c0.1,0.15,0.49,0.1,0.75,0.14c0.09,0.46-0.04,1.06,0.75,1.07
			c0.14,0,0.26,0.46,0.4,0.7c0.15,0.25,0.31,0.5,0.46,0.74c1.25,1.22,1.94,2.74,2.53,4.36c0.33,0.91,0.88,1.73,1.34,2.6
			c0.2,0.17,0.4,0.34,0.6,0.51c0.04,0.3,0.08,0.61,0.12,0.91c-0.09,0.68,0.19,1.03,0.89,0.99c0.26,0.67,0.52,1.33,0.78,2
			c0.01,0.03,0.07,0.06,0.07,0.09c0,1.34,0.67,2.47,1.12,3.68c0.28,0.74,0.36,1.56,0.53,2.34c0.14,0.33,0.28,0.65,0.42,0.98
			c0.04,0.95,0.07,1.89,0.11,2.84c-0.01,0.63-0.02,1.26-0.02,1.9c-0.02,0.44-0.01,0.88-0.06,1.31c-0.09,0.77,0.3,1,0.99,0.91
			c0.01,1.67,0.02,3.34,0.03,5.01c-0.49,0.05-1.11-0.06-1.01,0.76c0.07,0.57,0.18,1.14,0.27,1.71c-0.06,0.56-0.12,1.12-0.19,1.69
			c-0.04,0.62-0.07,1.25-0.11,1.87c-0.14,0.33-0.28,0.65-0.43,0.98c-0.57,1.28-0.8,2.73-2.07,3.65c-0.29,0.21-0.28,0.85-0.41,1.3
			c-0.72-0.02-1.28,0.14-1.11,1.05c0,0-0.02,0.01-0.02,0.01c-0.8-0.18-1.01,0.25-0.95,0.94c-1.06-0.03-1.2,1.15-1.98,1.5
			c-0.26,0.12-0.44,0.45-0.71,0.54c-0.51,0.17-1.27-0.13-1.31,0.81c0,0.05-0.11,0.12-0.18,0.14c-1.39,0.36-2.78,0.7-4.17,1.07
			c-0.44,0.12-0.86,0.3-1.29,0.45c-0.13-0.14-0.27-0.4-0.4-0.4c-1.62-0.03-3.25-0.03-4.88,0c-0.18,0-0.35,0.28-0.52,0.43
			c-0.79-0.17-1.59-0.3-2.36-0.53c-1.55-0.45-3.09-0.93-4.61-1.47c-0.41-0.15-0.72-0.59-1.08-0.89c-0.48-0.24-0.96-0.49-1.45-0.73
			c-0.08-0.29-0.06-0.68-0.25-0.85c-0.49-0.43-1.17-0.67-1.59-1.15c-0.91-1.04-1.75-2.15-2.54-3.29c-0.32-0.46-0.43-1.06-0.64-1.59
			c0.4-1.03-0.31-1.04-0.99-1.09c-0.16-0.75-0.34-1.5-0.47-2.26c-0.2-1.19-0.42-2.38-0.54-3.57c-0.1-0.95,0.23-2.05-0.14-2.84
			c-0.82-1.75-0.54-3.81-1.77-5.45c-0.35-0.47-0.48-0.77-1.05-0.7c-0.01-2.74-0.02-5.47-0.04-8.21c0.33-0.01,0.66-0.02,0.98-0.03
			c0.56,0.36,1.13,0.7,1.67,1.09c0.38,0.28,0.76,0.58,1.07,0.93c0.52,0.58,0.98,1.2,1.43,1.87c0.55,0.76,1.2,1.48,1.63,2.3
			c0.52,0.98,0.96,2.03,1.24,3.1c0.41,1.56,0.82,3.16,0.9,4.76c0.09,1.89,0.37,3.67,0.94,5.5c0.52,1.66,1.43,3.02,2.31,4.4
			c0.51,0.8,1.49,1.33,2.32,1.9c1.1,0.76,2.19,1.63,3.41,2.12c0.91,0.36,2.03,0.17,3.06,0.23c-0.08,0.73,0.25,0.95,0.97,0.95
			c0.71,0,1.05-0.2,0.97-0.94c2.48,0.12,4.59-1.03,6.69-2.1c0.66-0.34,1.01-1.25,1.52-1.88c0.36-0.45,0.86-0.82,1.12-1.31
			c0.75-1.45,1.93-2.73,1.78-4.53c0.36-0.23,1-0.42,1.03-0.68c0.1-0.8-0.03-1.64-0.07-2.46c0-0.65-0.01-1.31-0.01-1.96
			c0.04-0.32,0.07-0.65,0.11-0.97c-0.05-0.71-0.1-1.43-0.15-2.14C296.5,161.05,296.24,160.5,295.28,160.29z"/>
		<path class="st3" d="M219.19,192.23c-0.92,0.34-1.82,0.7-2.75,0.99c-0.33,0.1-0.72-0.03-1.07,0.02c-2.63,0.38-4.49-1.4-4.18-3.88
			c0.02-0.28,0.05-0.56,0.05-0.83c0-13.09,0-26.17,0-39.26c0-0.32-0.03-0.64-0.05-0.95c0.1-0.55,0.2-1.09,0.3-1.64
			c0.54-0.64,1.32-1.19,1.57-1.92c0.57-1.64,1.71-2.86,2.68-4.21c0.18-0.25,0.33-0.52,0.5-0.77c0.46-0.67,0.87-1.37,1.39-1.98
			c0.45-0.53,1.01-0.96,1.52-1.44c0.89,0.28,0.8-0.92,1.29-0.95c0.9-0.05,0.86-0.6,0.9-1.19c0.75-0.65,1.42-1.44,2.26-1.93
			c1.66-0.96,3.2-2.09,4.79-3.15c0.49-0.33,0.97-0.68,1.49-0.95c0.82-0.42,1.66-0.79,2.51-1.17c0.98-0.44,1.96-0.91,2.97-1.26
			c0.87-0.3,1.93-0.23,2.66-0.7c1-0.66,2.01-0.83,3.12-0.81c0.91,0.22,1.57-0.06,1.98-0.92c1.04-0.06,2.08-0.11,3.12-0.17
			c0.72,0,1.44-0.01,2.16-0.01c1.92,0,3.84,0.01,5.76,0.01c0.71,0,1.43,0,2.14,0c0.31,0.01,0.63,0.01,0.94,0.02
			c0.01,0.06,0.03,0.12,0.07,0.16c-0.02,2.96-0.04,5.91-0.06,8.87c-0.95-0.15-1.9-0.3-2.85-0.45c-0.83-0.72-4.94-0.71-5.76,0.01
			c-0.41,0.16-0.8,0.38-1.22,0.46c-1.82,0.35-3.64,0.72-5.48,0.96c-1.19,0.15-2.2,0.57-3.24,1.16c-1.08,0.62-2.54,0.54-3.34,1.75
			c-0.07,0.1-0.28,0.11-0.41,0.17c-1,0.41-2.1,0.67-2.96,1.28c-1.75,1.24-3.44,2.59-5.01,4.05c-1.09,1.01-2.56,1.8-2.89,3.45
			c-0.36,0.27-0.63,0.61-0.89,0.96c-0.23,0.32-0.47,0.63-0.68,0.96c-0.72,1.12-1.45,2.23-2.14,3.37c-0.13,0.21-0.07,0.54-0.1,0.82
			c-0.62,0.09-1.42,0.01-0.99,1.07c-0.04,0.33-0.08,0.66-0.13,0.99c-0.81-0.02-1.1,0.33-0.81,1.11c-0.04,0.29-0.07,0.59-0.11,0.88
			c-0.7,0.04-1.26,0.2-0.97,1.1c-0.06,0.62-0.06,1.25-0.2,1.86c-0.41,1.85-0.87,3.68-1.32,5.52c-0.16,0.33-0.43,0.65-0.45,0.99
			c-0.06,0.87,0,1.74,0.01,2.62c0,0.64,0,1.27,0.01,1.91c0,0.72,0,1.43,0,2.15c-0.01,0.96-0.01,1.91-0.02,2.87
			c0.13,0.73,0.27,1.45,0.4,2.18c0.19,0.98,0.38,1.95,0.57,2.93c0.33,1.65,0.65,3.31,0.98,4.96c0.32,0.65,0.64,1.3,0.95,1.94
			c0.06,0.64,0.12,1.29,0.18,1.93c-0.57,1.01,0.24,1.08,0.87,1.28c0.01,0.53,0.03,1.07,0.04,1.6
			C219.26,191.44,219.23,191.84,219.19,192.23z"/>
		<path class="st1" d="M229.35,189.22c-0.45,0.06-0.9,0.12-1.35,0.18c-0.56,0.03-1.12,0.06-1.69,0.09
			c-0.02-0.34-0.04-0.69-0.06-1.03c0.17-0.79,0.08-1.38-0.95-1.25c-0.05-0.65-0.09-1.31-0.14-1.96c-0.09-0.39-0.17-0.78-0.26-1.17
			c-0.21-0.23-0.41-0.45-0.62-0.68c-0.01-0.4-0.03-0.79-0.04-1.19c0.03-0.46,0.13-0.93,0.07-1.38c-0.1-0.68-0.02-1.54-1.08-1.59
			c-0.02-0.7-0.03-1.41-0.05-2.11c0-0.64,0-1.27-0.01-1.91c-0.13-0.76,0.51-1.73-0.61-2.22c-0.11-0.49-0.33-0.99-0.3-1.47
			c0.11-2.38,0.29-4.75,0.44-7.12c0.95-0.54,0.4-1.42,0.5-2.16c0.02-0.63,0.05-1.26,0.07-1.88c0.68-0.02,1.38-0.04,1.01-1.06
			c-0.02-0.38-0.04-0.76-0.06-1.14c0.04-0.3,0.08-0.59,0.11-0.89c0.78,0.01,1.21-0.26,0.91-1.13c0.01-0.29,0.03-0.58,0.04-0.87
			c0.77,0.08,1.18-0.18,0.95-1.03c0.37-1.74,1.18-3.25,2.44-4.52c0.22,0.11,0.45,0.22,0.83,0.42c-0.12-0.44-0.18-0.7-0.25-0.95
			c0.02-0.04,0.05-0.07,0.1-0.08c0.49,0.23,0.82,0.29,1.09-0.38c0.2-0.5,0.65-1.1,1.12-1.24c0.82-0.26,0.78-0.75,0.73-1.35
			c0.83-0.85,1.66-1.7,2.51-2.53c0.18-0.18,0.48-0.23,0.72-0.34c0.44-0.2,0.88-0.41,1.34-0.59c0.38-0.15,0.78-0.26,1.17-0.39
			c0.33-0.31,0.67-0.61,1-0.92c0.37-0.04,0.74-0.09,1.11-0.13c0.98,0.35,1.11-0.24,1.1-0.99c0.3-0.04,0.6-0.08,0.9-0.12
			c0.6,0.4,1.08,0.48,1.22-0.43c0.95-0.17,1.91-0.34,2.86-0.51c0.71,0,1.43-0.01,2.14-0.01c2.26,0,4.51,0,6.77-0.01
			c0.7,0.01,1.4,0.03,2.11,0.04l0.03,0.05c-0.01,3.31-0.02,6.62-0.03,9.94c-0.3,0-0.6,0-0.9-0.01c-0.21-0.97-0.79-1.23-1.94-0.89
			c-0.72,0.01-1.44,0.02-2.17,0.02c-0.16,0-0.32,0-0.47-0.01c-1.2,0.01-2.4,0.02-3.59,0.02c-1.11-0.41-1.74-0.13-1.95,0.86
			c-0.39,0.03-0.78,0.05-1.17,0.08c-0.62-0.5-0.7-0.08-0.74,0.43c-0.59,0.18-1.25,0.24-1.75,0.56c-1.13,0.71-2.22,1.51-3.25,2.36
			c-0.7,0.58-1.28,1.32-1.91,1.99c-0.29,0.23-0.31,0.81-0.6,0.99c-1.21,0.78-1.64,2.06-2.15,3.24c-0.58,1.32-0.97,2.73-1.35,4.13
			c-0.25,0.93-0.36,1.89-0.53,2.84c-0.15,0.8-0.29,1.61-0.44,2.41c0,1.68-0.01,3.36-0.01,5.03c0.15,0.81,0.29,1.63,0.44,2.44
			c0.17,1.11,0.32,2.21,0.52,3.31c0.18,0.98,0.39,1.96,0.63,2.92c0.44,1.74,0.91,3.48,1.36,5.22c-0.53,0.17-1.06,0.33-1.59,0.5
			c-0.46,0.15-0.92,0.3-1.37,0.45c-0.31,0.03-0.61,0.07-0.92,0.1C230.52,188.14,229.7,188.19,229.35,189.22z"/>
		<path class="st5" d="M224.34,157.27c-0.04,0.3-0.08,0.59-0.11,0.89c-1.01-0.12-1.11,0.46-0.97,1.24c0.01,0.32,0.01,0.64,0.02,0.96
			c-0.02,0.63-0.05,1.26-0.07,1.88c-0.31,0.15-0.9,0.31-0.89,0.44c0.04,0.58,0.24,1.15,0.39,1.72c-0.15,2.37-0.33,4.75-0.44,7.12
			c-0.02,0.49,0.2,0.98,0.3,1.47c-0.11,0.73-0.21,1.46-0.32,2.19c0.27,0.67-0.73,1.94,0.93,1.94c0.02,0.7,0.03,1.41,0.05,2.11
			c-0.01,0.62,0.02,1.25-0.04,1.86c-0.09,0.82,0.29,1.13,1.05,1.11c0.01,0.4,0.03,0.79,0.04,1.19c-0.03,0.23-0.06,0.47-0.1,0.7
			c-0.01,0.66,0.03,1.29,0.97,1.15c0.05,0.65,0.09,1.31,0.14,1.96c-0.46,1.01,0.22,1.15,0.95,1.25c0.02,0.34,0.04,0.69,0.06,1.03
			c-0.02,0.27-0.05,0.54-0.07,0.8c-0.48,0.13-0.95,0.27-1.43,0.4c-0.66,0.19-1.32,0.38-1.98,0.55c-0.75,0.19-1.5,0.35-2.25,0.52
			c-0.43-0.24-0.85-0.48-1.28-0.72c-0.01-0.53-0.03-1.07-0.04-1.61c0.14-0.72,0.26-1.42-0.87-1.28c-0.06-0.64-0.12-1.29-0.18-1.93
			c0.32-1.28,0.1-1.72-0.95-1.94c-0.33-1.65-0.65-3.31-0.98-4.96c-0.19-0.97-0.38-1.95-0.57-2.93c0.18-0.2,0.48-0.38,0.51-0.6
			c0.07-0.5,0.01-1.02,0-1.54c0.01-0.97,0.01-1.94,0.02-2.91c0-0.44-0.03-0.88,0.01-1.31c0.07-0.71-0.29-0.92-0.92-0.85
			c0-0.64,0-1.27-0.01-1.91c0.28-0.09,0.67-0.09,0.83-0.28c0.35-0.42,0.01-2.86-0.39-3.32c0.44-1.84,0.9-3.67,1.32-5.52
			c0.13-0.6,0.13-1.24,0.2-1.86c0.72-0.02,1.37-0.09,0.97-1.1c0.04-0.29,0.07-0.59,0.11-0.88c0.27-0.37,0.54-0.74,0.81-1.11
			c0.04-0.33,0.08-0.66,0.13-0.99c0.72,0,1.22-0.2,0.99-1.07c0.03-0.27-0.03-0.6,0.1-0.82c0.69-1.14,1.42-2.25,2.14-3.37
			c0.21-0.33,0.45-0.65,0.68-0.96c0.26-0.35,0.52-0.68,0.89-0.96c0.33-1.65,1.8-2.44,2.89-3.45c1.57-1.46,3.26-2.81,5.01-4.05
			c0.86-0.61,1.97-0.87,2.96-1.28c0.14-0.06,0.35-0.07,0.41-0.17c0.8-1.21,2.26-1.13,3.34-1.75c1.04-0.6,2.05-1.01,3.24-1.16
			c1.84-0.23,3.66-0.61,5.48-0.96c0.42-0.08,0.81-0.3,1.22-0.46c0.25,0.16,0.49,0.44,0.74,0.45c1.5,0.04,3,0.04,4.49,0
			c0.18,0,0.35-0.3,0.53-0.46c0.95,0.15,1.9,0.3,2.85,0.45l0.05,0.09c-0.02,1.98-0.03,3.97-0.05,5.95c-0.72,0-1.43,0-2.15,0.01
			c-2.23,0-4.46,0-6.69,0c-0.43,0-0.86,0.03-1.28-0.02c-0.75-0.08-0.98,0.29-0.9,0.96c-0.95,0.17-1.91,0.34-2.86,0.51
			c-0.41,0.14-0.81,0.28-1.22,0.43c-0.3,0.04-0.6,0.08-0.9,0.12c-0.95-0.32-1.03,0.33-1.1,0.99c-0.37,0.04-0.74,0.09-1.11,0.13
			c-1.14-0.58-0.8,0.47-1,0.92c-0.39,0.13-0.79,0.24-1.17,0.39c-0.45,0.18-0.89,0.39-1.34,0.59c-0.24,0.11-0.54,0.17-0.72,0.34
			c-0.85,0.82-1.68,1.68-2.51,2.53c-0.34,0.07-0.82,0.02-0.99,0.23c-0.71,0.88-1.32,1.83-1.96,2.75c-0.05,0.01-0.08,0.04-0.09,0.08
			c-0.19,0.18-0.39,0.36-0.58,0.54c-1.26,1.26-2.07,2.77-2.44,4.52c-0.61,0.07-1.42-0.03-0.95,1.03c-0.01,0.29-0.03,0.58-0.04,0.87
			C224.6,156.24,223.91,156.31,224.34,157.27z"/>
		<path class="st1" d="M247.13,183.22c-0.38,0.06-0.75,0.11-1.13,0.17c-0.69-0.5-0.68,0.01-0.69,0.48c-0.9,0.25-1.8,0.49-2.7,0.74
			c-0.47-0.55-1.05-1.04-1.38-1.67c-0.33-0.64-0.32-1.44-0.6-2.11c-1.13-2.67-1.8-5.43-1.86-8.34c0-0.24,0.04-0.52-0.06-0.71
			c-0.78-1.4-0.42-2.83-0.2-4.27c0.25-0.27,0.65-0.51,0.72-0.82c0.12-0.51,0.02-1.07,0.01-1.61c0.03-1.58-0.27-3.23,1.35-4.36
			c0.35-0.25,0.37-0.93,0.67-1.29c0.63-0.76,1.26-1.59,2.07-2.1c0.91-0.57,2.03-0.81,3.05-1.22c0.07-0.03,0.07-0.22,0.11-0.33
			c0.16-0.16,0.31-0.31,0.47-0.47c0.47-0.04,0.94-0.08,1.4-0.11c1.62,0,3.24-0.01,4.86-0.01c0.71,0.05,1.41,0.09,2.12,0.14
			c0.16,0.15,0.31,0.3,0.47,0.45c0.48,0.16,0.96,0.32,1.43,0.48c0.01,6.06,0.03,12.11,0.01,18.17c0,0.43-0.32,0.85-0.49,1.28
			c-0.32-0.64-0.65-1.28-0.97-1.92c0.14-0.19,0.28-0.39,0.47-0.65c-0.41-0.07-0.71-0.12-1-0.17c-0.04-0.94-0.08-1.88-0.12-2.81
			c0.03-0.3,0.06-0.6,0.1-0.9c0.03-0.98,0.03-1.97,0.11-2.95c0.07-0.87-0.29-1.25-1.14-1.22c0.18-1.34-1.02-1.66-1.73-2.35
			c-0.77-0.71-1.86-0.72-2.64-0.02c-0.23,0.17-0.45,0.34-0.68,0.51c-0.5-0.09-0.7,0.08-1.06,0.54c-1.13,1.44-0.94,3.05-0.84,4.62
			c0.04,0.63,0.66,1.21,1.01,1.82c0.02,0.94,0.03,1.89,0.05,2.83c-0.41,1.03,0.14,1.67,0.91,2.21c0,0.35,0.01,0.69,0.01,1.04
			c-0.04,0.87-0.36,1.88,1.02,2.05c0.12,0.44,0.21,0.88,0.35,1.32c0.21,0.67,0.45,1.33,0.67,1.99c0,0-0.04,0.02-0.04,0.02
			c-0.31,0.14-0.62,0.28-0.92,0.42c-0.3,0.04-0.61,0.08-0.91,0.11C248.45,182.1,247.63,182.29,247.13,183.22z"/>
		<path class="st4" d="M257.25,156.26c-0.48-0.16-0.96-0.32-1.43-0.48c0.13-0.19,0.27-0.38,0.4-0.58c-0.05-0.07-0.1-0.13-0.14-0.2
			c-0.24,0.11-0.49,0.22-0.73,0.33c-0.71-0.05-1.41-0.09-2.12-0.14c0.03-0.63-0.23-0.92-0.9-0.89c-0.86,0.05-1.74-0.09-2.58,0.05
			c-0.49,0.08-0.92,0.55-1.37,0.84c-0.47,0.04-0.94,0.08-1.4,0.11c-0.19-0.05-0.38-0.11-0.57-0.16c0.03,0.21,0.07,0.42,0.1,0.63
			c-0.03,0.11-0.04,0.3-0.11,0.33c-1.02,0.4-2.14,0.65-3.05,1.22c-0.81,0.51-1.44,1.35-2.07,2.1c-0.31,0.37-0.32,1.04-0.67,1.29
			c-1.62,1.13-1.31,2.78-1.35,4.36c-1.05,0.2-1.26,0.91-0.73,2.43c-0.22,1.43-0.58,2.87,0.2,4.27c0.11,0.19,0.06,0.47,0.06,0.71
			c0.05,2.91,0.73,5.67,1.86,8.34c0.28,0.67,0.27,1.47,0.6,2.11c0.32,0.63,0.91,1.12,1.38,1.67c-0.11,0.17-0.21,0.47-0.32,0.48
			c-1.24,0.06-2.29,0.58-3.41,1.04c-0.87,0.36-1.97,0.26-2.8,0.97c-0.17,0.14-0.53,0.06-0.8,0.08c-0.46-1.74-0.92-3.47-1.36-5.22
			c-0.24-0.97-0.45-1.94-0.63-2.92c-0.2-1.1-0.35-2.21-0.52-3.31c0.16-0.7,0.35-1.39,0.43-2.09c0.01-0.08-0.57-0.23-0.87-0.35
			c0-1.68,0.01-3.36,0.01-5.03c0.3-0.12,0.87-0.27,0.86-0.35c-0.08-0.69-0.27-1.37-0.43-2.06c0.17-0.95,0.27-1.92,0.53-2.84
			c0.38-1.4,0.77-2.81,1.35-4.13c0.51-1.18,0.94-2.46,2.15-3.24c0.28-0.18,0.3-0.76,0.6-0.99c0.63-0.67,1.2-1.41,1.91-1.99
			c1.03-0.85,2.12-1.64,3.25-2.36c0.5-0.32,1.16-0.38,1.75-0.56c0.25-0.14,0.49-0.29,0.74-0.43c0.39-0.03,0.78-0.05,1.17-0.08
			c0.57-0.13,1.14-0.27,1.7-0.4c0.7,1.02,1.72,0.33,2.58,0.4c0.39,0.03,0.84-0.57,1.26-0.89c0.16,0,0.32,0,0.47,0.01
			c-0.09,0.72,0.22,1.03,0.95,0.95c0.43-0.05,0.87-0.05,1.3-0.07c0.62,0,1.24-0.01,1.86-0.01c0.3,0,0.6,0,0.9,0.01
			c0.01,0.04,0.03,0.08,0.05,0.12c0,2.28,0,4.57,0,6.85C257.3,156.17,257.25,156.26,257.25,156.26z"/>
		<path class="st6" d="M281.27,171.37c-1.41-0.05-0.9-1.13-1.01-1.87c0-0.84,0-1.68,0-2.52c0-0.2,0-0.4,0-0.6
			c-0.05-1.17-0.07-2.35-0.19-3.51c-0.03-0.23-0.49-0.42-0.75-0.63c-0.02-0.93-0.04-1.86-0.06-2.79c0.19-0.76,0.22-1.41-0.88-1.29
			c-0.06-0.6-0.11-1.19-0.17-1.79c-0.11,0.04-0.21,0.07-0.32,0.11c-0.21-0.44-0.44-0.88-0.62-1.33c-0.38-0.96-0.59-2.03-1.13-2.88
			c-0.88-1.4-1.97-2.67-2.97-4c-0.19-1.14-1.05-2.05-1.97-2.09c-0.9-0.66-1.99-1.17-2.64-2.02c-1.32-1.71-3.55-1.75-5.01-3.05
			c-0.7-0.62-1.32-0.97-2.21-0.9c0-2.33,0-4.66-0.01-6.99c0.9,0.28,1.8,0.58,2.7,0.83c0.37,0.1,0.77,0.12,1.15,0.17
			c-0.06,0.89,0.53,0.96,1.19,0.93c0.31,0.04,0.63,0.08,0.94,0.11c0.19,0.19,0.37,0.38,0.56,0.57c0.98,0.47,1.97,0.93,2.94,1.43
			c0.48,0.25,0.97,0.53,1.37,0.88c0.9,0.79,1.67,1.69,2.86,2.15c0.53,0.2,0.8,1.02,1.24,1.52c0.25,0.28,0.67,0.42,0.91,0.71
			c1.01,1.19,2.07,2.34,2.94,3.63c0.83,1.23,1.42,2.61,2.13,3.92c0.15,0.27,0.36,0.5,0.49,0.78c0.2,0.41,0.35,0.84,0.52,1.26
			c-0.2,0.85,0.17,1.27,1.01,1.31c0.03,0.31,0.07,0.62,0.1,0.93c-0.08,0.58-0.02,1.04,0.75,0.94c0.08,0.96,0.16,1.92,0.24,2.87
			c-0.1,0.71,0.01,1.27,0.9,1.26c0.12,1.49,0.24,2.98,0.37,4.46c-0.11,0.49-0.3,0.98-0.31,1.47c-0.02,1.52,0.04,3.04,0.07,4.57
			c-0.25,0.53,0.18,1.57-1.04,1.35c-0.99-0.38-1.15,0.25-1.23,1c-0.61,0-1.22,0.01-1.83,0.01
			C282.28,171.59,281.97,171.26,281.27,171.37z"/>
		<path class="st5" d="M255.8,173.79c0.32,0.64,0.65,1.28,0.97,1.92c0.18,0.85,0.36,1.71,0.54,2.56c-0.02,0.64-0.04,1.28-0.06,1.92
			c-1.09,0.04-2.21-0.08-3.07,0.84c-0.15,0.16-0.51,0.14-0.77,0.19c-0.71,0.15-1.42,0.29-2.12,0.43c-0.23-0.66-0.46-1.32-0.67-1.99
			c-0.14-0.43-0.23-0.88-0.35-1.32c0.19-0.95-0.26-1.57-1.02-2.05c0-0.35-0.01-0.69-0.01-1.04c-0.09-0.83,0.79-2.05-0.91-2.21
			c-0.02-0.94-0.03-1.89-0.05-2.83c0.43-2.31-0.57-4.8,0.88-6.98c0.23-0.17,0.45-0.34,0.68-0.51c0.88,0.57,1.75,0.93,2.64,0.02
			c0.71,0.69,1.9,1.01,1.73,2.35c0.06,1.37,0.12,2.74,0.19,4.12c-0.02,0.53-0.02,1.04,0.75,0.95c0.04,0.94,0.08,1.88,0.12,2.81
			C255.44,173.25,255.62,173.52,255.8,173.79z"/>
		<path class="st7" d="M349.47,178.09c-0.09-0.37-0.26-0.74-0.26-1.1c-0.01-25.41-0.01-50.82-0.01-76.23c0-0.16,0.01-0.32,0.02-0.48
			c0.31,0.01,0.63,0.03,0.94,0.04c0.04,0.6,0.12,1.19,0.12,1.79c0.01,24.86,0.01,49.72,0,74.58c0,0.2-0.01,0.4-0.02,0.6
			C350.01,177.55,349.74,177.82,349.47,178.09z"/>
		<path class="st8" d="M261.31,160.31c0.57-0.06,0.7,0.24,1.05,0.7c1.23,1.65,0.94,3.71,1.77,5.45c0.37,0.79,0.04,1.89,0.14,2.84
			c0.12,1.2,0.34,2.38,0.54,3.57c0.13,0.76,0.31,1.51,0.47,2.26c-0.27,0.91,0.3,1.05,0.99,1.09c0.21,0.53,0.32,1.13,0.64,1.59
			c0.79,1.14,1.63,2.25,2.54,3.29c0.42,0.48,1.1,0.72,1.59,1.15c0.19,0.16,0.17,0.56,0.25,0.85c-0.34,0.07-0.67,0.13-1.01,0.2
			c-0.68-0.03-1.37-0.06-2.05-0.09c-0.51-0.71-1.12-1.19-2.07-0.99c-0.39-0.03-0.78-0.06-1.17-0.09c-0.47-0.17-0.94-0.33-1.41-0.5
			c-0.57-0.17-1.14-0.33-1.71-0.5c-0.19-0.24-0.38-0.49-0.56-0.73C261.29,173.71,261.3,167.01,261.31,160.31z"/>
		<path class="st9" d="M211.18,148.32c0.02,0.32,0.05,0.64,0.05,0.95c0,13.09,0,26.17,0,39.26c0,0.28-0.03,0.56-0.05,0.83
			c-1.01,0.15-0.95-0.51-0.95-1.19c0.01-13.28,0.01-26.57,0.01-39.85C210.56,148.32,210.87,148.32,211.18,148.32z"/>
		<path class="st9" d="M211.18,112.32c0.02,5.31,0.04,10.63,0.06,15.94c0.01,2.04,0.03,4.08,0.05,6.11c0,0.3-0.01,0.61-0.01,0.91
			c-0.03,0.34-0.06,0.69-0.09,1.03c-0.31,0-0.63,0-0.94,0c0-7.6,0-15.21-0.01-22.81C210.23,112.83,210.18,112.17,211.18,112.32z"/>
		<path class="st10" d="M257.31,178.27c-0.18-0.85-0.36-1.71-0.54-2.56c0.17-0.43,0.49-0.85,0.49-1.28c0.02-6.06,0-12.11-0.01-18.17
			c0,0,0.05-0.09,0.04-0.09c0.3,0.02,0.61,0.05,0.91,0.07c0,7.34,0,14.69-0.01,22.03C257.9,178.28,257.61,178.28,257.31,178.27z"/>
		<path class="st10" d="M257.25,116.19c0.01-6.06,0.03-12.12,0-18.18c0-0.43-0.3-0.86-0.46-1.29c0.41-0.2,0.82-0.39,1.38-0.67
			c0.03,0.64,0.06,0.99,0.06,1.34c0,5.9,0.01,11.8-0.02,17.71c0,0.51-0.29,1.02-0.44,1.54c-0.08,0.01-0.16,0.02-0.24,0.02
			C257.45,116.5,257.35,116.35,257.25,116.19z"/>
		<path class="st11" d="M210.25,136.32c0.31,0,0.63,0,0.94,0c0.01,2.95,0.02,5.9,0.05,8.86c0.01,0.5,0.16,1,0.24,1.5
			c-0.1,0.55-0.2,1.09-0.3,1.64c-0.31,0-0.63,0-0.94,0C210.24,144.32,210.24,140.32,210.25,136.32z"/>
		<path class="st10" d="M257.25,149.21c0.01-3.31,0.02-6.62,0.03-9.94c0.31-0.01,0.61-0.02,0.92-0.03c0,3.34,0,6.68,0,10.02
			c-0.3,0.02-0.6,0.04-0.9,0.06C257.28,149.29,257.26,149.25,257.25,149.21z"/>
		<path class="st10" d="M257.25,132.21c0.02-2.96,0.04-5.91,0.06-8.87c0.3-0.01,0.6-0.01,0.9-0.02c0,2.97,0,5.94-0.01,8.91
			c-0.3,0.02-0.6,0.04-0.91,0.06L257.25,132.21z"/>
		<path class="st12" d="M257.3,149.32c0.3-0.02,0.6-0.04,0.9-0.06c0,2.33,0,4.66,0,6.99c-0.3-0.02-0.61-0.05-0.91-0.07
			C257.3,153.89,257.3,151.61,257.3,149.32z"/>
		<path class="st12" d="M257.3,132.3c0.3-0.02,0.6-0.04,0.91-0.06c0,2.33,0,4.67,0,7c-0.31,0.01-0.61,0.02-0.92,0.03
			c0,0-0.03-0.05-0.03-0.05c0-0.32,0-0.65,0-0.97C257.27,136.26,257.28,134.28,257.3,132.3z"/>
		<path class="st12" d="M258.21,123.32c-0.3,0.01-0.6,0.01-0.9,0.02c-0.04-0.05-0.06-0.1-0.07-0.16c0-1.94,0.01-3.88,0.01-5.82
			c0.1-0.23,0.19-0.46,0.29-0.69c0.08-0.01,0.16-0.02,0.24-0.02c0.15,0.37,0.43,0.74,0.44,1.12
			C258.26,119.61,258.22,121.46,258.21,123.32z"/>
		<path class="st13" d="M280.76,186.73c0.17-0.15,0.35-0.43,0.52-0.43c1.62-0.03,3.25-0.03,4.88,0c0.14,0,0.27,0.26,0.4,0.4
			c-0.34,0.17-0.67,0.38-1.02,0.5c-0.54,0.19-1.1,0.33-1.65,0.5c-0.75-0.16-1.51-0.29-2.26-0.49
			C281.32,187.13,281.05,186.9,280.76,186.73z"/>
		<path class="st10" d="M349.24,99.31c-0.34-0.21-0.68-0.41-1.03-0.61c-0.22-0.13-0.42-0.3-0.66-0.36
			c-1.08-0.25-2.14-0.72-3.28-0.13c-0.27,0.14-0.71-0.04-1.08-0.08c1.01-1.1,3.4-1.3,4.52-0.43c0.38,0.3,0.87,0.46,1.46,0.77
			C349.19,98.62,349.22,98.97,349.24,99.31z"/>
		<path class="st14" d="M294.27,106.3c-1-0.28-2.32,0.38-2.95-0.99c0.66,0.02,1.35-0.08,1.97,0.08
			C293.67,105.5,293.94,105.99,294.27,106.3z"/>
		<path class="st14" d="M270.25,183.31c0.34-0.07,0.67-0.13,1.01-0.2c0.48,0.24,0.96,0.49,1.45,0.73c-0.72,0.13-1.44,0.28-2.16,0.34
			C270.48,184.19,270.35,183.62,270.25,183.31z"/>
		<path class="st14" d="M290.37,105.24c-1.88,0.31-2.02,0.24-2.15-1C289.07,104.29,290.2,103.72,290.37,105.24z"/>
		<path class="st15" d="M292.32,190.31c1.43-0.51,2.67-0.12,2.89,0.9C294.25,190.91,293.29,190.61,292.32,190.31z"/>
		<path class="st16" d="M349.47,178.09c0.27-0.27,0.53-0.54,0.8-0.81c0.62,1.23-0.42,1.89-0.98,2.69c-0.03,0.04-0.4-0.17-0.61-0.26
			C348.95,179.17,349.21,178.63,349.47,178.09z"/>
		<path class="st17" d="M272.43,100.25c-0.92,0.13-1.74,0.02-2.17-0.95C271.85,98.89,272.19,99.04,272.43,100.25z"/>
		<path class="st17" d="M319.38,190.27c0.3-1.06,1.06-1.18,1.98-0.98C321.34,190.92,320.16,190.2,319.38,190.27z"/>
		<path class="st14" d="M282.97,103.18c-1.35,0.52-2.45,0.14-2.65-0.91C281.2,102.57,282.08,102.87,282.97,103.18z"/>
		<path class="st16" d="M268.31,99.18c-0.92,0.22-1.72,0.2-1.96-0.96C267.1,98.36,268.33,97.48,268.31,99.18z"/>
		<path class="st16" d="M229.35,189.22c0.34-1.03,1.17-1.07,2.05-1c-0.06,0.33-0.13,0.66-0.22,1.12
			C230.55,189.3,229.95,189.26,229.35,189.22z"/>
		<path class="st10" d="M247.13,183.22c0.49-0.93,1.32-1.12,2.27-1.01C249.12,183.45,248.97,183.51,247.13,183.22z"/>
		<path class="st14" d="M253.23,97.28c-0.21,0.95-0.77,1.21-1.94,0.89C251.36,96.63,252.49,97.4,253.23,97.28z"/>
		<path class="st15" d="M325.22,103.29c-0.19,0.95-0.76,1.21-1.93,0.9C323.4,102.73,324.48,103.38,325.22,103.29z"/>
		<path class="st14" d="M249.39,98.25c0.1,0.88-0.29,1.22-1.15,1.12c-0.43-0.05-0.86-0.02-1.29-0.02
			C247.75,98.98,248.57,98.61,249.39,98.25z"/>
		<path class="st15" d="M296.16,191.28c1.26-0.43,1.99-0.12,2.17,0.93C297.4,192.38,296.62,192.2,296.16,191.28z"/>
		<path class="st10" d="M231.4,103.27c0.07,0.86-0.58,0.92-1.17,1.01c-0.43,0.07-0.87,0.06-1.31,0.08
			C229.53,103.49,230.31,103.04,231.4,103.27z"/>
		<path class="st10" d="M339.11,99.29c-0.37,0.9-1.08,1.12-1.97,0.96C337.32,99.03,337.46,98.96,339.11,99.29z"/>
		<path class="st17" d="M344.16,182.15c0.52-0.83,1.28-1.03,2.19-0.87C346.12,182.29,345.4,182.58,344.16,182.15z"/>
		<path class="st16" d="M321.11,105.11c-0.66,0.04-1.32,0.08-1.98,0.12c0.44-0.81,1.11-1.16,2.03-1
			C321.14,104.52,321.13,104.82,321.11,105.11z"/>
		<path class="st12" d="M257.31,178.27c0.3,0,0.59,0,0.89,0c0.01,0.36,0,0.71,0.04,1.07c0.09,0.78-0.29,0.99-0.99,0.85
			C257.27,179.56,257.29,178.92,257.31,178.27z"/>
		<path class="st17" d="M341.53,183.16c0.11-1.15,0.91-1.04,1.7-0.92C343.08,183.46,342.92,183.54,341.53,183.16z"/>
		<path class="st17" d="M266.13,182.23c0.95-0.2,1.56,0.28,2.07,0.99C267.29,183.35,266.23,183.79,266.13,182.23z"/>
		<path class="st17" d="M335.04,100.35c-0.43,0.78-1.1,1.03-1.95,0.86C333.32,100.21,333.89,99.96,335.04,100.35z"/>
		<path class="st14" d="M224.4,105.3c-0.14,1.26-0.45,1.35-1.72,0.5C223.25,105.64,223.83,105.47,224.4,105.3z"/>
		<path class="st18" d="M219.3,191.05c0.43,0.24,0.85,0.48,1.28,0.72c-0.46,0.16-0.93,0.31-1.39,0.47
			C219.23,191.84,219.26,191.44,219.3,191.05z"/>
		<path class="st10" d="M264.26,98.15c-0.85,0.14-1.54-0.09-1.97-0.89C263.01,97.41,264.2,96.51,264.26,98.15z"/>
		<path class="st14" d="M256.33,96.75c-0.49,1.25-1.37,0.65-2.17,0.46C254.72,96.28,255.59,96.84,256.33,96.75z"/>
		<path class="st14" d="M286.09,104.12c-1.09,0.41-1.71,0.14-1.95-0.84C284.79,103.55,285.44,103.83,286.09,104.12z"/>
		<path class="st16" d="M226.24,190.29c0.02-0.27,0.05-0.54,0.07-0.8c0.56-0.03,1.12-0.06,1.69-0.09
			C227.61,190.08,227.13,190.58,226.24,190.29z"/>
		<path class="st17" d="M289.15,189.29c0.38-0.01,0.75-0.03,1.13-0.04c0.06,0.34,0.12,0.68,0.17,1.02
			C289.62,190.46,289.1,190.25,289.15,189.29z"/>
		<path class="st17" d="M338.34,184.26c0.18-1.11,0.92-1.16,1.8-0.96C339.54,183.63,338.94,183.95,338.34,184.26z"/>
		<path class="st17" d="M286.1,188.37c0.63,0.28,1.25,0.56,1.88,0.85C287.16,189.37,286.2,189.81,286.1,188.37z"/>
		<path class="st14" d="M228.25,104.43c-0.24,1.05-0.96,0.9-1.7,0.66C226.74,103.91,227.64,104.54,228.25,104.43z"/>
		<path class="st15" d="M327.82,102.69c-0.08,0.24-0.16,0.7-0.24,0.7c-0.47,0-0.94-0.11-1.41-0.18
			C326.72,103.04,327.27,102.86,327.82,102.69z"/>
		<path class="st16" d="M232.32,188.12c0.46-0.15,0.92-0.3,1.37-0.45c0.14,0.13,0.27,0.26,0.41,0.38c-0.02,0.1-0.04,0.2-0.06,0.29
			C233.47,188.27,232.89,188.19,232.32,188.12z"/>
		<path class="st17" d="M322.22,189.26c0.5-0.21,1-0.42,1.51-0.63c0.21,0.1,0.41,0.19,0.62,0.29c-0.07,0.11-0.14,0.23-0.22,0.34
			C323.49,189.26,322.86,189.26,322.22,189.26z"/>
		<path class="st17" d="M274.77,100.83c-0.47-0.16-0.94-0.33-1.42-0.49c0.58-0.1,1.16-0.19,2.03-0.34
			C275.03,100.48,274.9,100.65,274.77,100.83z"/>
		<path class="st14" d="M304.22,109.23c-0.69,0.06-1.23-0.06-1.11-0.95C303.83,108.18,304.51,108.14,304.22,109.23z"/>
		<path class="st10" d="M262.25,152.07c-0.33,0.01-0.66,0.02-0.98,0.03c0-0.32,0-0.65-0.01-0.97
			C261.76,151.27,262.52,151.13,262.25,152.07z"/>
		<path class="st15" d="M321.11,105.11c0.01-0.29,0.03-0.59,0.04-0.88c0.39,0,0.79,0.01,1.18,0.01
			C322.33,105.09,321.76,105.15,321.11,105.11z"/>
		<path class="st17" d="M331.92,101.3c-0.47,0.16-0.94,0.33-1.41,0.49C330.4,100.96,330.73,100.84,331.92,101.3z"/>
		<path class="st15" d="M290.45,190.27c-0.06-0.34-0.12-0.68-0.17-1.02c0.95-0.32,1.1,0.26,1.11,0.99
			C291.07,190.25,290.76,190.26,290.45,190.27z"/>
		<path class="st16" d="M317.99,105.31c-0.47,0.19-0.93,0.37-1.4,0.56C316.51,105.08,316.72,105,317.99,105.31z"/>
		<path class="st17" d="M263.55,181.64c0.47,0.17,0.94,0.33,1.41,0.5c-0.46,0.1-0.93,0.2-1.46,0.32
			C263.52,182.08,263.54,181.86,263.55,181.64z"/>
		<path class="st15" d="M212.41,109.25c0.14,0.89-0.22,1.3-1.13,1.17C211.66,110.03,212.04,109.64,212.41,109.25z"/>
		<path class="st16" d="M350.17,100.31c-0.31-0.01-0.63-0.03-0.94-0.04c0.01-0.32,0.03-0.64,0.04-0.96
			C349.99,99.27,350.28,99.61,350.17,100.31z"/>
		<path class="st10" d="M341.53,98.66c-0.09,0.68-0.39,0.91-0.98,0.42C340.88,98.94,341.21,98.8,341.53,98.66z"/>
		<path class="st14" d="M303.58,193.77c0.22-0.2,0.44-0.4,0.66-0.59c-0.06,0.31-0.12,0.63-0.18,0.94
			C303.9,194,303.74,193.88,303.58,193.77z"/>
		<path class="st10" d="M250.32,182.1c0.31-0.14,0.62-0.28,0.92-0.42C251.19,182.38,250.89,182.53,250.32,182.1z"/>
		<path class="st10" d="M261.28,180.41c0.19,0.24,0.38,0.49,0.56,0.73C261.17,181.33,261.08,181.22,261.28,180.41z"/>
		<path class="st14" d="M296.17,106.79c-0.31-0.1-0.61-0.2-0.92-0.3C295.78,105.9,295.96,106.38,296.17,106.79z"/>
		<path class="st10" d="M234.25,102.74c-0.13,0.35-0.12,0.95-0.74,0.41C233.76,103.01,234,102.87,234.25,102.74z"/>
		<path class="st10" d="M245.31,183.87c0.01-0.47,0-0.98,0.69-0.48C245.77,183.55,245.54,183.71,245.31,183.87z"/>
		<path class="st17" d="M347.51,181.17c0.07-0.15,0.13-0.3,0.2-0.46c0.13,0.2,0.25,0.39,0.38,0.59
			C347.9,181.26,347.71,181.22,347.51,181.17z"/>
		<path class="st13" d="M286.3,130.34c-1.12,0.2-1.32-0.97-2.02-1.4c-0.38-0.24-0.53-0.84-0.78-1.28c0.72,0.49,1.39,1.14,2.18,1.41
			C286.48,129.34,286.28,129.83,286.3,130.34z"/>
		<path class="st19" d="M301.48,170.68c-0.09-0.57-0.2-1.14-0.27-1.71c-0.1-0.82,0.52-0.7,1.01-0.76c0,0.65,0,1.31,0,1.96
			C301.97,170.34,301.72,170.51,301.48,170.68z"/>
		<path class="st18" d="M264.29,118.27c-0.8-0.08-1.98,0.6-2.04-1c0.59-0.04,1.17-0.08,1.82-0.12
			C264.16,117.59,264.23,117.93,264.29,118.27z"/>
		<path class="st19" d="M302.18,163.2c-0.69,0.08-1.07-0.14-0.99-0.91c0.05-0.43,0.04-0.87,0.06-1.31c0.32,0.02,0.63,0.04,0.95,0.05
			C302.2,161.75,302.19,162.48,302.18,163.2z"/>
		<path class="st20" d="M302.2,161.03c-0.32-0.02-0.63-0.04-0.95-0.05c0.01-0.63,0.02-1.26,0.02-1.9
			C302.48,159.29,302.61,159.57,302.2,161.03z"/>
		<path class="st20" d="M301.48,170.68c0.25-0.17,0.49-0.34,0.74-0.51c0.45,1.73,0.31,2.05-0.93,2.19
			C301.35,171.8,301.41,171.24,301.48,170.68z"/>
		<path class="st21" d="M291.16,135.27c-0.26-0.04-0.64,0.01-0.75-0.14c-0.4-0.57-0.71-1.2-1.05-1.81
			C290.29,133.22,291.03,134.02,291.16,135.27z"/>
		<path class="st21" d="M280.77,125.79c-0.29-0.17-0.58-0.49-0.87-0.49c-0.77,0-0.76-0.47-0.76-0.99c0.68,0.28,1.37,0.56,2.12,0.88
			C281.05,125.45,280.91,125.62,280.77,125.79z"/>
		<path class="st21" d="M297.16,181.23c-0.17-0.92,0.39-1.07,1.11-1.05C298.52,181.17,297.88,181.25,297.16,181.23z"/>
		<path class="st21" d="M278.42,124.26c-0.33-0.31-0.65-0.61-0.98-0.92C278.35,123.03,278.35,123.03,278.42,124.26z"/>
		<path class="st18" d="M298.24,147.16c-0.7,0.03-0.98-0.32-0.89-0.99C298.16,146.05,298.48,146.35,298.24,147.16z"/>
		<path class="st21" d="M296.19,182.18c-0.06-0.69,0.15-1.12,0.95-0.94C297.21,181.94,296.89,182.25,296.19,182.18z"/>
		<path class="st20" d="M300.75,175.22c0.14-0.33,0.28-0.65,0.43-0.98C301.65,174.83,301.47,175.14,300.75,175.22z"/>
		<path class="st20" d="M301.17,156.24c-0.14-0.33-0.28-0.65-0.42-0.98C301.48,155.34,301.65,155.65,301.17,156.24z"/>
		<path class="st21" d="M292.77,137.79c-0.15-0.25-0.31-0.5-0.46-0.74c0.27,0.02,0.53,0.03,0.94,0.06
			C293.05,137.4,292.91,137.59,292.77,137.79z"/>
		<path class="st18" d="M297.24,145.26c-0.2-0.17-0.4-0.34-0.6-0.51c0.17-0.12,0.34-0.25,0.68-0.49
			C297.29,144.71,297.26,144.98,297.24,145.26z"/>
		<path class="st21" d="M289.31,133.29c-0.2-0.17-0.4-0.34-0.6-0.51c0.17-0.13,0.35-0.27,0.73-0.56
			C289.37,132.73,289.34,133.01,289.31,133.29z"/>
		<path class="st13" d="M286.38,169.92c-0.03-1.52-0.08-3.04-0.07-4.57c0.01-0.49,0.2-0.98,0.31-1.47c0.22,0.36,0.58,0.71,0.62,1.09
			c0.09,1.01-0.02,2.05,0.05,3.06C287.35,168.87,287.08,169.48,286.38,169.92z"/>
		<path class="st18" d="M279.31,162.25c0.26,0.21,0.73,0.39,0.75,0.63c0.13,1.16,0.14,2.34,0.19,3.51
			c-0.29-0.28-0.81-0.53-0.84-0.84C279.29,164.45,279.33,163.35,279.31,162.25z"/>
		<path class="st18" d="M296.25,167.3c0.04,0.82,0.17,1.66,0.07,2.46c-0.03,0.27-0.67,0.46-1.03,0.68
			C295.31,169.31,295.35,168.17,296.25,167.3z"/>
		<path class="st20" d="M296.19,162.23c0.05,0.71,0.1,1.43,0.15,2.14c-0.23,0.09-0.45,0.19-0.68,0.28
			c-0.13-0.82-0.26-1.64-0.39-2.45C295.58,162.21,295.88,162.22,296.19,162.23z"/>
		<path class="st18" d="M280.26,166.98c0,0.84,0,1.68,0,2.52c-0.68-0.04-0.98-0.36-0.89-1.07C279.45,167.8,279.2,167,280.26,166.98z
			"/>
		<path class="st18" d="M271.18,146.18c0.92,0.04,1.78,0.96,1.97,2.09C272.33,148.21,271.32,147.14,271.18,146.18z"/>
		<path class="st22" d="M296.19,162.23c-0.31-0.01-0.61-0.02-0.92-0.04c0-0.64,0.01-1.27,0.01-1.91
			C296.24,160.5,296.5,161.05,296.19,162.23z"/>
		<path class="st19" d="M284.17,180.28c0.08,0.74-0.26,0.94-0.97,0.94c-0.71,0-1.05-0.22-0.97-0.95
			C282.88,180.27,283.52,180.28,284.17,180.28z"/>
		<path class="st13" d="M284.11,172.26c0.08-0.74,0.25-1.38,1.23-1C285.49,172.28,284.94,172.44,284.11,172.26z"/>
		<path class="st18" d="M278.36,158.16c1.11-0.13,1.07,0.53,0.88,1.29C278.57,159.29,277.87,159.13,278.36,158.16z"/>
		<path class="st18" d="M284.26,153.42c-0.85-0.04-1.21-0.46-1.01-1.31C284.12,152.14,284.59,152.47,284.26,153.42z"/>
		<path class="st20" d="M286.26,159.42c-0.9,0.01-1-0.55-0.9-1.26C286.47,158,286.38,158.7,286.26,159.42z"/>
		<path class="st18" d="M266.35,135.15c-0.66,0.03-1.25-0.04-1.19-0.93C265.92,134.08,266.54,134.1,266.35,135.15z"/>
		<path class="st13" d="M281.27,171.37c0.7-0.11,1.01,0.22,1.01,0.9C281.5,172.47,281.14,172.2,281.27,171.37z"/>
		<path class="st20" d="M285.12,155.29c-0.77,0.11-0.83-0.36-0.75-0.94C285.16,154.23,285.15,154.75,285.12,155.29z"/>
		<path class="st22" d="M294.75,156.23c0.75,0.08,0.93,0.39,0.4,0.98C295.02,156.88,294.88,156.56,294.75,156.23z"/>
		<path class="st18" d="M295.66,164.65c0.23-0.09,0.45-0.19,0.68-0.28c-0.04,0.32-0.07,0.65-0.11,0.97
			C296.05,165.11,295.86,164.88,295.66,164.65z"/>
		<path class="st18" d="M267.85,135.83c-0.19-0.19-0.37-0.38-0.56-0.57c0.28-0.03,0.57-0.07,1.04-0.12
			C268.09,135.49,267.97,135.66,267.85,135.83z"/>
		<path class="st23" d="M257.25,117.35c0,1.94-0.01,3.88-0.01,5.82c-0.31-0.01-0.63-0.01-0.94-0.02c0.1-0.68-0.1-1.08-0.88-1
			c-0.43,0.05-0.87,0.03-1.31,0.05c-1.89,0-3.79,0-5.68-0.01c-0.43-0.01-0.87,0.01-1.3-0.04c-0.78-0.08-0.97,0.33-0.9,0.99
			c-1.04,0.06-2.08,0.11-3.12,0.17c-1.46-0.4-1.75-0.26-1.98,0.92c-1.12-0.02-2.12,0.15-3.12,0.81c-0.72,0.48-1.79,0.4-2.66,0.7
			c-1.02,0.35-1.99,0.83-2.97,1.26c-0.84,0.37-1.69,0.75-2.51,1.17c-0.52,0.27-1,0.62-1.49,0.95c-1.59,1.06-3.13,2.19-4.79,3.15
			c-0.84,0.48-1.51,1.28-2.26,1.93c-1,0.04-2.12,1.13-2.19,2.13c-0.51,0.48-1.07,0.91-1.52,1.44c-0.52,0.62-0.93,1.32-1.39,1.98
			c-0.17,0.25-0.32,0.52-0.5,0.77c-0.97,1.35-2.11,2.57-2.68,4.21c-0.25,0.73-1.03,1.29-1.57,1.92c-0.08-0.5-0.24-1-0.24-1.5
			c-0.04-2.95-0.04-5.9-0.05-8.86c0.03-0.34,0.06-0.69,0.09-1.03c0.65,0.04,1.27,0.06,0.94-0.91c0.07-0.15,0.14-0.3,0.22-0.45
			c0.07-0.06,0.14-0.12,0.2-0.19c1.93-1.96,3.87-3.92,5.81-5.88c0.16-0.16,0.37-0.28,0.56-0.41c0.93-0.63,1.83-1.28,2.78-1.86
			c1.28-0.78,2.62-1.47,3.9-2.25c0.35-0.22,0.59-0.63,0.84-0.98c0.55-0.39,1.66,0.34,1.85-0.94c0.01-0.09,0.5-0.11,0.77-0.16
			c0.34-0.06,0.71-0.07,1.03-0.2c1.04-0.42,2.06-0.88,3.09-1.32c0.25-0.14,0.49-0.28,0.74-0.42c0.39-0.03,0.77-0.06,1.16-0.1
			c0.88,0.22,1.51-0.1,1.96-0.86c0.7-0.03,1.4-0.05,2.11-0.08c0.72-0.17,1.9,0.71,1.99-0.88c1.04-0.09,2.07-0.17,3.11-0.26
			c0.64,0.01,1.27,0.01,1.91,0.02c0.94-0.03,1.89-0.02,2.83-0.12c0.13-0.01,0.21-0.51,0.31-0.79c1.66,0,3.33,0,4.99,0
			c-0.01,0.53,0.11,0.89,0.78,0.89C255.86,117.14,256.55,117.27,257.25,117.35z"/>
		<path class="st24" d="M249.38,116.25c-0.1,0.28-0.18,0.78-0.31,0.79c-0.94,0.09-1.89,0.09-2.83,0.12
			c0.02-0.31,0.03-0.61,0.05-0.92C247.32,116.24,248.35,116.24,249.38,116.25z"/>
		<path class="st24" d="M257.25,117.35c-0.7-0.08-1.4-0.22-2.09-0.22c-0.67,0-0.79-0.35-0.78-0.89c0.96-0.02,1.92-0.04,2.88-0.06
			c0.1,0.16,0.19,0.31,0.29,0.47C257.44,116.89,257.35,117.12,257.25,117.35z"/>
		<path class="st18" d="M241.22,117.39c-0.09,1.59-1.27,0.71-1.99,0.88c0.06-0.34,0.12-0.68,0.19-1.08
			C240.07,117.26,240.64,117.33,241.22,117.39z"/>
		<path class="st20" d="M246.29,116.23c-0.02,0.31-0.03,0.61-0.05,0.92c-0.64-0.01-1.27-0.01-1.91-0.02
			C244.34,115.44,245.58,116.4,246.29,116.23z"/>
		<path class="st20" d="M237.12,118.35c-0.44,0.76-1.08,1.08-1.96,0.86C235.39,118.22,235.99,117.96,237.12,118.35z"/>
		<path class="st15" d="M212.22,134.37c0.33,0.97-0.3,0.95-0.94,0.91c0-0.3,0.01-0.61,0.01-0.91
			C211.6,134.37,211.91,134.37,212.22,134.37z"/>
		<path class="st20" d="M234,119.31c-0.25,0.14-0.49,0.28-0.74,0.42C233.32,119.25,233.38,118.79,234,119.31z"/>
		<path class="st15" d="M212.64,133.73c-0.07,0.06-0.14,0.12-0.2,0.19c-0.09-0.16-0.17-0.33-0.26-0.49c0.05-0.03,0.11-0.06,0.16-0.1
			C212.44,133.46,212.54,133.6,212.64,133.73z"/>
		<path class="st13" d="M266.25,176.23c-0.69-0.04-1.26-0.18-0.99-1.09C265.94,175.19,266.66,175.21,266.25,176.23z"/>
		<path class="st13" d="M248.44,122.2c1.89,0,3.79,0,5.68,0.01c0.02,0.32,0.03,0.63,0.05,0.95c-1.92,0-3.84-0.01-5.76-0.01
			C248.41,122.83,248.43,122.51,248.44,122.2z"/>
		<path class="st20" d="M254.4,131.76c-0.18,0.16-0.35,0.45-0.53,0.46c-1.5,0.04-3,0.04-4.49,0c-0.25-0.01-0.49-0.29-0.74-0.45
			C249.46,131.05,253.57,131.04,254.4,131.76z"/>
		<path class="st19" d="M215.76,163.68c0.39,0.47,0.73,2.9,0.39,3.32c-0.16,0.19-0.55,0.2-0.83,0.28c-0.01-0.87-0.07-1.75-0.01-2.62
			C215.33,164.33,215.6,164.01,215.76,163.68z"/>
		<path class="st19" d="M216.24,171.36c-0.01,0.97-0.01,1.94-0.02,2.91c-0.3-0.02-0.61-0.03-0.91-0.05
			c0.01-0.96,0.01-1.91,0.02-2.87C215.63,171.35,215.94,171.36,216.24,171.36z"/>
		<path class="st24" d="M248.44,122.2c-0.01,0.31-0.03,0.63-0.04,0.94c-0.72,0-1.44,0.01-2.16,0.01c-0.08-0.67,0.11-1.08,0.9-0.99
			C247.57,122.21,248,122.19,248.44,122.2z"/>
		<path class="st18" d="M219.14,136.35c0.07-1,1.2-2.09,2.19-2.13c-0.03,0.59,0,1.13-0.9,1.19
			C219.94,135.43,220.04,136.62,219.14,136.35z"/>
		<path class="st13" d="M215.31,174.22c0.3,0.02,0.61,0.03,0.91,0.05c0.01,0.51,0.07,1.03,0,1.54c-0.03,0.22-0.33,0.4-0.51,0.6
			C215.58,175.67,215.44,174.95,215.31,174.22z"/>
		<path class="st6" d="M216.24,171.36c-0.3,0-0.61-0.01-0.91-0.01c0-0.72,0-1.43,0-2.15c0.63-0.07,0.99,0.14,0.92,0.85
			C216.21,170.48,216.24,170.92,216.24,171.36z"/>
		<path class="st24" d="M254.16,123.16c-0.02-0.32-0.03-0.63-0.05-0.95c0.43-0.01,0.87,0,1.31-0.05c0.78-0.08,0.98,0.32,0.88,1
			C255.59,123.16,254.88,123.16,254.16,123.16z"/>
		<path class="st13" d="M241.14,124.25c0.23-1.18,0.52-1.32,1.98-0.92C242.72,124.18,242.05,124.47,241.14,124.25z"/>
		<path class="st18" d="M217.26,184.29c1.05,0.22,1.27,0.66,0.95,1.94C217.9,185.58,217.58,184.93,217.26,184.29z"/>
		<path class="st18" d="M218.39,188.16c1.13-0.14,1.01,0.56,0.87,1.28C218.64,189.24,217.82,189.17,218.39,188.16z"/>
		<path class="st13" d="M218.25,155.2c0.41,1.01-0.25,1.08-0.97,1.1C216.99,155.4,217.55,155.24,218.25,155.2z"/>
		<path class="st22" d="M220.28,151.14c0.23,0.87-0.27,1.07-0.99,1.07C218.86,151.15,219.66,151.23,220.28,151.14z"/>
		<path class="st22" d="M219.16,153.21c-0.27,0.37-0.54,0.74-0.81,1.11C218.06,153.54,218.36,153.19,219.16,153.21z"/>
		<path class="st20" d="M248.42,138.25c2.23,0,4.46,0,6.69,0c0.01,0.31,0.03,0.62,0.04,0.92c-2.26,0-4.51,0-6.77,0.01
			C248.39,138.87,248.41,138.56,248.42,138.25z"/>
		<path class="st21" d="M229.35,149.11c0.65-0.92,1.26-1.87,1.96-2.75c0.17-0.21,0.65-0.16,0.99-0.23c0.04,0.6,0.08,1.1-0.73,1.35
			c-0.47,0.15-0.92,0.74-1.12,1.24C230.17,149.4,229.84,149.34,229.35,149.11z"/>
		<path class="st19" d="M251.76,148.33c-0.42,0.32-0.87,0.92-1.26,0.89c-0.85-0.07-1.88,0.62-2.58-0.4
			c0.08-0.15,0.16-0.31,0.25-0.46C249.37,148.34,250.56,148.34,251.76,148.33z"/>
		<path class="st22" d="M224.24,182.21c-0.76,0.02-1.14-0.29-1.05-1.11c0.07-0.62,0.03-1.24,0.04-1.86
			c1.05,0.06,0.98,0.92,1.08,1.59C224.37,181.28,224.27,181.75,224.24,182.21z"/>
		<path class="st24" d="M232.77,165.83c0.16,0.68,0.35,1.36,0.43,2.06c0.01,0.08-0.56,0.23-0.86,0.35
			C232.48,167.44,232.63,166.64,232.77,165.83z"/>
		<path class="st19" d="M232.33,173.28c0.3,0.12,0.88,0.27,0.87,0.35c-0.08,0.7-0.27,1.4-0.43,2.09
			C232.62,174.91,232.47,174.09,232.33,173.28z"/>
		<path class="st19" d="M255.15,139.17c-0.01-0.31-0.03-0.62-0.04-0.92c0.72,0,1.43,0,2.15,0c0,0.32,0,0.65,0,0.97
			C256.55,139.2,255.85,139.19,255.15,139.17z"/>
		<path class="st19" d="M248.42,138.25c-0.01,0.31-0.03,0.62-0.04,0.93c-0.71,0-1.43,0.01-2.14,0.01c-0.07-0.67,0.16-1.03,0.9-0.96
			C247.56,138.28,247.99,138.25,248.42,138.25z"/>
		<path class="st19" d="M254.49,149.21c-0.43,0.02-0.87,0.02-1.3,0.07c-0.73,0.08-1.04-0.23-0.95-0.95
			c0.72-0.01,1.44-0.02,2.17-0.02C254.43,148.61,254.46,148.91,254.49,149.21z"/>
		<path class="st21" d="M254.49,149.21c-0.03-0.3-0.06-0.6-0.08-0.9c1.16-0.34,1.74-0.08,1.94,0.89
			C255.73,149.2,255.11,149.21,254.49,149.21z"/>
		<path class="st22" d="M222.7,164.4c-0.15-0.57-0.35-1.14-0.39-1.72c-0.01-0.13,0.58-0.29,0.89-0.44
			C223.1,162.98,223.65,163.86,222.7,164.4z"/>
		<path class="st13" d="M222.25,175.19c0.11-0.73,0.21-1.46,0.32-2.19c1.12,0.49,0.48,1.46,0.61,2.22
			C222.87,175.21,222.56,175.2,222.25,175.19z"/>
		<path class="st19" d="M222.25,175.19c0.31,0.01,0.62,0.02,0.93,0.03c0,0.64,0,1.27,0,1.91
			C221.52,177.13,222.52,175.85,222.25,175.19z"/>
		<path class="st22" d="M223.26,159.4c-0.14-0.78-0.04-1.36,0.97-1.24c0.02,0.38,0.04,0.76,0.06,1.14
			C223.95,159.33,223.6,159.37,223.26,159.4z"/>
		<path class="st21" d="M248.17,148.35c-0.08,0.15-0.16,0.31-0.25,0.46c-0.57,0.13-1.14,0.27-1.7,0.4
			C246.43,148.22,247.06,147.94,248.17,148.35z"/>
		<path class="st13" d="M226.25,188.45c-0.74-0.09-1.42-0.23-0.95-1.25C226.33,187.08,226.42,187.67,226.25,188.45z"/>
		<path class="st13" d="M225.16,185.25c-0.94,0.14-0.98-0.49-0.97-1.15c0.24-0.01,0.47-0.01,0.71-0.02
			C224.99,184.47,225.07,184.86,225.16,185.25z"/>
		<path class="st20" d="M223.26,159.4c0.34-0.03,0.69-0.07,1.03-0.1c0.36,1.02-0.33,1.04-1.01,1.06
			C223.27,160.04,223.26,159.72,223.26,159.4z"/>
		<path class="st20" d="M224.34,157.27c-0.42-0.96,0.26-1.03,0.91-1.13C225.55,157.01,225.11,157.28,224.34,157.27z"/>
		<path class="st13" d="M240.15,141.23c0.07-0.66,0.15-1.31,1.1-0.99C241.26,140.99,241.13,141.59,240.15,141.23z"/>
		<path class="st20" d="M225.29,155.27c-0.47-1.07,0.33-0.96,0.95-1.03C226.48,155.09,226.07,155.35,225.29,155.27z"/>
		<path class="st13" d="M242.16,140.13c0.41-0.14,0.81-0.28,1.22-0.43C243.24,140.6,242.75,140.53,242.16,140.13z"/>
		<path class="st13" d="M238.04,142.28c0.2-0.45-0.15-1.5,1-0.92C238.71,141.67,238.37,141.97,238.04,142.28z"/>
		<path class="st22" d="M224.9,184.08c-0.24,0.01-0.48,0.01-0.71,0.02c0.03-0.23,0.07-0.47,0.1-0.7
			C224.49,183.62,224.69,183.85,224.9,184.08z"/>
		<path class="st21" d="M245.04,149.29c-0.25,0.14-0.49,0.29-0.74,0.43C244.34,149.21,244.42,148.79,245.04,149.29z"/>
		<path class="st21" d="M228.68,149.72c0.19-0.18,0.39-0.36,0.58-0.54c0.07,0.26,0.13,0.51,0.25,0.95
			C229.13,149.95,228.9,149.84,228.68,149.72z"/>
		<path class="st13" d="M249.16,163.24c-1.46,2.18-0.45,4.67-0.88,6.98c-0.35-0.61-0.97-1.19-1.01-1.82
			c-0.11-1.57-0.3-3.18,0.84-4.62C248.46,163.32,248.66,163.15,249.16,163.24z"/>
		<path class="st20" d="M254.39,169.21c-0.06-1.37-0.12-2.74-0.19-4.12c0.84-0.02,1.21,0.35,1.14,1.22
			c-0.08,0.98-0.07,1.96-0.11,2.95C254.96,169.25,254.68,169.23,254.39,169.21z"/>
		<path class="st22" d="M248.37,155.2c0.46-0.29,0.88-0.76,1.37-0.84c0.84-0.14,1.72-0.01,2.58-0.05c0.67-0.04,0.93,0.25,0.9,0.89
			C251.61,155.2,249.99,155.2,248.37,155.2z"/>
		<path class="st18" d="M252.48,162.75c-0.89,0.92-1.76,0.55-2.64-0.02C250.62,162.02,251.71,162.03,252.48,162.75z"/>
		<path class="st20" d="M238.52,167.52c-0.53-1.52-0.31-2.23,0.73-2.43c0.01,0.54,0.1,1.1-0.01,1.61
			C239.17,167.01,238.77,167.25,238.52,167.52z"/>
		<path class="st13" d="M248.32,173.06c1.7,0.16,0.82,1.39,0.91,2.21C248.46,174.72,247.91,174.09,248.32,173.06z"/>
		<path class="st20" d="M249.25,176.3c0.75,0.48,1.21,1.1,1.02,2.05C248.89,178.18,249.21,177.17,249.25,176.3z"/>
		<path class="st24" d="M254.39,169.21c0.28,0.02,0.57,0.04,0.85,0.06c-0.03,0.3-0.07,0.6-0.1,0.9
			C254.38,170.25,254.37,169.74,254.39,169.21z"/>
		<path class="st20" d="M255.8,173.79c-0.18-0.27-0.36-0.55-0.53-0.82c0.3,0.05,0.59,0.1,1,0.17
			C256.08,173.41,255.94,173.6,255.8,173.79z"/>
		<path class="st22" d="M255.35,155.33c0.24-0.11,0.49-0.22,0.73-0.33c0.05,0.07,0.1,0.13,0.14,0.2c-0.13,0.19-0.27,0.38-0.4,0.58
			C255.66,155.63,255.5,155.48,255.35,155.33z"/>
		<path class="st22" d="M246.5,155.78c-0.03-0.21-0.07-0.42-0.1-0.63c0.19,0.05,0.38,0.11,0.57,0.16
			C246.81,155.47,246.66,155.63,246.5,155.78z"/>
	</g>
</g>
</svg>
