<?xml version="1.0" encoding="utf-8"?>
<!-- Generator: Adobe Illustrator 23.0.1, SVG Export Plug-In . SVG Version: 6.00 Build 0)  -->
<svg version="1.1" id="Calque_1" xmlns="http://www.w3.org/2000/svg" xmlns:xlink="http://www.w3.org/1999/xlink" x="0px" y="0px"
	 viewBox="0 0 560 288" style="enable-background:new 0 0 560 288;" xml:space="preserve">
<style type="text/css">
	.st0{fill:#FDFDFD;}
	.st1{fill:#37605A;}
</style>
<g>
	<g>
		<path class="st0" d="M356.4,220.32c-50.4,0-100.8,0-151.2,0c0-50.4,0-100.8,0-151.2c50.4,0,100.8,0,151.2,0
			C356.4,119.52,356.4,169.92,356.4,220.32z M264.85,191.28c0.66,4.07,1.85,7.09,3.67,9.44c4.39,5.68,13.31,7.81,20.36,4.82
			c4.76-2.02,7.84-5.5,9.06-10.58c0.72-3.02,1.74-3.79,4.88-3.79c1.52,0,3.04,0.06,4.56,0.06c9.88,0.01,19.76,0.05,29.64-0.04
			c1.8-0.02,3.68-0.36,5.38-0.96c2.73-0.97,3.77-3.25,3.83-6.05c0.06-2.8-0.99-4.97-3.66-6c-1.58-0.62-3.28-1.01-4.96-1.27
			c-2.6-0.4-4.83-1.2-6.16-3.73c-0.68-1.3-1.72-2.41-2.47-3.68c-2.24-3.81-4.62-7.57-6.59-11.53c-2.7-5.42-2.94-11.36-3.08-17.31
			c-0.13-5.31-0.16-10.65-0.87-15.9c-1.78-13.07-8.47-23-20.15-29.32c-2.44-1.32-4.31-3-5.77-5.35c-3.41-5.47-8.7-7.11-14.88-5.7
			c-3.88,0.89-6.51,3.44-8.3,6.89c-0.85,1.63-1.99,2.75-3.67,3.56c-8.05,3.89-14.37,9.61-18.24,17.8
			c-3.21,6.8-4.14,14.03-4.04,21.47c0.06,4.15,0.3,8.33-0.13,12.44c-1.06,10.14-5.6,18.8-12.09,26.52
			c-1.82,2.17-4.02,3.84-6.88,4.24c-1.99,0.28-3.41,1.32-4.81,2.65c-2.91,2.76-2.39,8.48,2.31,10.14c2.95,1.04,5.96,1.1,8.98,1.11
			c10.96,0.05,21.92,0.04,32.88,0.05C264,191.28,264.4,191.28,264.85,191.28z"/>
		<path class="st1" d="M264.85,191.28c-0.45,0-0.85,0-1.24,0c-10.96-0.01-21.92,0-32.88-0.05c-3.02-0.01-6.03-0.07-8.98-1.11
			c-4.71-1.66-5.22-7.38-2.31-10.14c1.4-1.33,2.82-2.37,4.81-2.65c2.87-0.4,5.06-2.07,6.88-4.24c6.49-7.72,11.03-16.38,12.09-26.52
			c0.43-4.11,0.19-8.29,0.13-12.44c-0.1-7.44,0.83-14.66,4.04-21.47c3.87-8.19,10.19-13.91,18.24-17.8
			c1.69-0.81,2.83-1.94,3.67-3.56c1.79-3.44,4.42-6,8.3-6.89c6.18-1.41,11.47,0.22,14.88,5.7c1.47,2.35,3.33,4.03,5.77,5.35
			c11.69,6.32,18.37,16.25,20.15,29.32c0.72,5.24,0.74,10.59,0.87,15.9c0.14,5.95,0.38,11.89,3.08,17.31
			c1.97,3.96,4.34,7.71,6.59,11.53c0.75,1.27,1.79,2.38,2.47,3.68c1.33,2.53,3.56,3.33,6.16,3.73c1.68,0.26,3.38,0.65,4.96,1.27
			c2.67,1.04,3.72,3.2,3.66,6c-0.06,2.8-1.09,5.08-3.83,6.05c-1.7,0.6-3.58,0.94-5.38,0.96c-9.88,0.09-19.76,0.05-29.64,0.04
			c-1.52,0-3.04-0.06-4.56-0.06c-3.13,0-4.15,0.78-4.88,3.79c-1.22,5.08-4.3,8.56-9.06,10.58c-7.05,2.99-15.97,0.85-20.36-4.82
			C266.7,198.37,265.51,195.35,264.85,191.28z"/>
	</g>
</g>
</svg>
