<?xml version="1.0" encoding="utf-8"?>
<!-- Generator: Adobe Illustrator 23.0.1, SVG Export Plug-In . SVG Version: 6.00 Build 0)  -->
<svg version="1.1" id="Calque_1" xmlns="http://www.w3.org/2000/svg" xmlns:xlink="http://www.w3.org/1999/xlink" x="0px" y="0px"
	 viewBox="0 0 560 288" style="enable-background:new 0 0 560 288;" xml:space="preserve">
<style type="text/css">
	.st0{fill:#FEFEFE;}
	.st1{fill:#365F59;}
	.st2{fill:#5D7E79;}
	.st3{fill:#708D89;}
	.st4{fill:#98AEAA;}
	.st5{fill:#BDCAC8;}
	.st6{fill:#688682;}
	.st7{fill:#7B9692;}
	.st8{fill:#8CA3A0;}
	.st9{fill:#D8E0DF;}
	.st10{fill:#87A09C;}
	.st11{fill:#C5CCCB;}
	.st12{fill:#CFD9D7;}
	.st13{fill:#567873;}
	.st14{fill:#50736E;}
	.st15{fill:#4C716B;}
	.st16{fill:#A1B4B1;}
	.st17{fill:#9AAEAB;}
	.st18{fill:#64837F;}
	.st19{fill:#829B97;}
	.st20{fill:#A8BAB6;}
	.st21{fill:#FDFDFD;}
	.st22{fill:#617C78;}
	.st23{fill:#D6DEDD;}
	.st24{fill:#BCC6C4;}
	.st25{fill:#879794;}
	.st26{fill:#889E9A;}
	.st27{fill:#93A2A0;}
	.st28{fill:#BDC9C7;}
</style>
<g>
	<g>
		<path class="st0" d="M205.2,69.12c50.08,0,100.16,0,150.24,0c0,50.08,0,100.16,0,150.24c-50.08,0-100.16,0-150.24,0
			C205.2,169.28,205.2,119.2,205.2,69.12z M269.29,75.14c-0.33,0.01-0.66,0.02-1,0.03c-0.32,0.05-0.64,0.1-0.96,0.15
			c-0.64-0.03-1.02,0.2-0.96,0.91c-0.47,0.03-0.94,0.06-1.41,0.09c-1.39-0.5-2.47-0.15-2.68,0.86c-0.47,0.04-0.93,0.08-1.4,0.11
			c-0.62-0.25-1.3-0.68-1.42,0.5c-0.73,0.32-1.45,0.63-2.18,0.95c-0.33,0.14-0.65,0.27-0.98,0.41c-0.31,0.04-0.62,0.08-0.93,0.12
			c-1.18,0.38-2.37,0.74-3.53,1.17c-0.17,0.06-0.22,0.46-0.32,0.7c-0.38,0.04-0.76,0.09-1.13,0.13c-0.95-0.34-1.23,0.2-1.31,1
			c-0.36,0.1-0.81,0.11-1.07,0.33c-0.62,0.54-1.69,0.39-2,1.49c-0.1,0.36-0.95,0.5-1.45,0.75c-0.1-0.09-0.21-0.19-0.29-0.26
			c-0.04,0.24-0.08,0.45-0.11,0.66c-0.26,0.01-0.52,0.02-0.78,0.03c-0.89,0.52-2.1,0.69-2.3,2.01c-0.82,0.51-1.66,1-2.45,1.55
			c-0.61,0.42-1.14,0.96-1.75,1.39c-0.72,0.51-1.57,0.85-2.2,1.44c-1.66,1.56-3.24,3.2-4.84,4.82c-0.83,0.84-1.67,1.69-2.39,2.62
			c-0.48,0.62-0.69,1.45-1.16,2.08c-0.38,0.51-1.07,0.8-1.46,1.31c-1.06,1.37-2.31,2.69-2.97,4.24c-0.67,1.56-1.71,2.86-2.41,4.37
			c-0.18,0.38-0.25,0.8-0.37,1.21c-0.81-0.11-1.04,0.22-0.75,0.96c-0.02,0.29-0.04,0.58-0.06,0.86c-0.33,0.07-0.66,0.15-1.02,0.23
			c0,0.41,0,0.75,0,1.1c-0.03,0.23-0.06,0.46-0.09,0.68c-0.57,0.52-1.15,1.04-0.91,1.94c-0.06,0.39,0.02,0.87-0.19,1.14
			c-1.26,1.74-1.58,3.78-2,5.8c-1.19,0.28-1.01,1.08-0.74,1.93c-0.06,0.74-0.11,1.47-0.17,2.21c-0.69-0.04-1.16,0.11-0.83,0.96
			c-0.01,0.73-0.03,1.45-0.04,2.18c-0.17,1.15-0.33,2.31-0.5,3.46c-0.2,0.36-0.54,0.71-0.56,1.08c-0.06,1.11,0,2.22,0.02,3.33
			c0.02,3.02,0.03,6.04,0.05,9.06c-0.13,1.15-0.32,2.32,0.97,3.01c0.02,0.69,0.05,1.37,0.07,2.06c-0.01,0.62-0.02,1.25-0.04,1.87
			c-0.13,0.88-0.3,1.78,0.91,2.06c0.05,0.77,0.09,1.55,0.14,2.32c-0.07,0.5-0.13,1-0.21,1.57c0.37-0.09,0.55-0.14,0.73-0.19
			c1.28,3.29,1.97,6.81,3.82,9.87c-0.16,0.36-0.31,0.72-0.47,1.09c0.32,0.11,0.65,0.23,0.97,0.34c0.02,0.29,0.04,0.59,0.06,0.88
			c0.02,0.34-0.08,0.76,0.08,1.02c0.61,1.05,1.3,2.05,2.02,3.17c0.09-0.25,0.14-0.39,0.19-0.53c0.22,0.22,0.57,0.4,0.65,0.67
			c0.49,1.64,1.48,2.96,2.39,4.38c1.16,1.79,2.47,3.4,4.02,4.82c0.59,0.54,0.55,1.52,1.52,1.85c0.28,0.1,0.47,0.95,0.92,1.48
			c1.8,2.08,3.76,3.92,6.14,5.31c-0.11,0.74,0.1,1.17,0.95,0.96l0.01,0c0.03,0.31,0.07,0.61,0.1,0.94c0.38,0.03,0.7,0.06,1.01,0.09
			c0.75,0.46,1.5,0.91,2.25,1.37c0.06,0.87,1.01,1.65,1.95,1.58c0.23,0.03,0.45,0.07,0.68,0.1c-0.04,0.53-0.1,1.02,0.7,1.03
			c0.3,0.01,0.6,0.3,0.89,0.46c1.79,0.86,3.58,1.72,5.37,2.58c0.12,0.48,0.05,1.23,0.92,0.68c0.38,0.05,0.77,0.09,1.15,0.14
			c0.05,0.34,0.09,0.68,0.15,1.1c0.42-0.05,0.75-0.08,1.09-0.12c0.21-0.01,0.43-0.01,0.64-0.02c0.48,0.96,1.27,1.24,2.28,1.05
			c0.31,0.03,0.62,0.07,0.93,0.1c0.33,0.14,0.65,0.28,0.98,0.42c2.31,0.65,4.62,1.31,6.93,1.96c0.14,0.6,0.41,0.87,0.97,0.38
			c1.02,0.05,2.04,0.11,3.06,0.16c0.1,1.59,1.28,0.7,1.99,0.87c0.72,0,1.44,0,2.15,0c1.99,0.03,3.99,0.07,5.98,0.1
			c-0.05,0.67,0.25,0.89,0.92,0.88c0.65-0.01,1.11-0.09,1.04-0.89c1.99-0.03,3.99-0.07,5.98-0.1c0.64,0,1.28,0.01,1.92,0.01
			c0.8,0.02,1.61,0.12,2.39,0c0.29-0.04,0.5-0.58,0.75-0.9c0.64-0.02,1.27-0.04,1.91-0.06c0.76,0.02,1.53,0.05,2.29,0.06
			c0.67,0.01,0.9-0.38,0.84-0.99c0.64-0.18,1.27-0.37,1.91-0.55c0.25-0.14,0.49-0.28,0.74-0.41c0.39-0.03,0.79-0.06,1.18-0.1
			c0.65-0.29,1.29-0.58,1.94-0.87c0.39-0.04,0.79-0.07,1.18-0.11c0.41-0.12,0.83-0.24,1.24-0.36c0.15-0.17,0.3-0.34,0.45-0.51
			c0.38-0.05,0.76-0.11,1.14-0.16c0.96,0.36,1.27-0.14,1.31-0.99c0.3-0.04,0.6-0.08,0.9-0.12c1.33,0.32,2.11-0.52,2.89-1.37
			c0.12-0.01,0.28,0.03,0.35-0.03c0.89-0.75,1.66-1.61,2.95-1.81c0.72-0.11,1.38-0.67,2.06-1.03c0.15-0.16,0.3-0.32,0.44-0.48
			c0.15-0.06,0.31-0.12,0.46-0.19c1.21,0.59,0.84-0.43,0.96-0.95c0.24-0.02,0.48-0.04,0.73-0.06c0.69-0.29,1.38-0.57,2.05-0.85
			c-0.17-0.33-0.27-0.54-0.37-0.74c0.71-0.46,1-1.56,2.14-1.4c0.06,0.01,0.12-0.27,0.23-0.35c0.29-0.21,0.6-0.37,0.91-0.56
			c0.39-0.1,0.9-0.07,1.16-0.31c0.97-0.93,1.85-1.94,2.81-2.96c-0.07-0.06-0.22-0.17-0.37-0.29c1.08-0.88,2.16-1.76,3.23-2.65
			c0.1-0.08,0.13-0.25,0.19-0.38c0.72-1.66,1.71-3.13,3.01-4.39c0.56-0.55,1.33-1.11,1.48-1.79c0.19-0.83,0.58-1.34,1.15-1.85
			c0.26-0.23,0.47-0.52,0.64-0.83c1.03-1.89,2.04-3.78,3.05-5.68c0.43-0.8,0.83-1.62,1.24-2.43c0.18,0.12,0.36,0.25,0.8,0.56
			c-0.22-0.51-0.31-0.73-0.4-0.95c0.05-0.3,0.09-0.61,0.14-0.91c0.34-0.07,0.68-0.14,1.11-0.22c-0.04-0.41-0.07-0.76-0.11-1.11
			c0.03-0.29,0.06-0.59,0.09-0.88c0.76,0.1,1.06-0.23,0.9-0.98c0-0.34-0.01-0.68-0.01-1.02c0.02-0.29,0.04-0.59,0.07-0.88
			c1.03,0.12,1.12-0.47,0.94-1.25c0.09-0.66-0.03-1.47,0.31-1.93c0.77-1.02,0.65-2.13,0.74-3.25c0.09-1.07,0.19-2.17,0.52-3.19
			c0.55-1.72,0.97-3.43,0.93-5.24c0.91-0.57,0.36-1.43,0.44-2.17c0-3.68,0-7.36,0-11.03c-0.14-0.72-0.29-1.45-0.43-2.17
			c-0.02-0.75,0.03-1.52-0.09-2.26c-0.25-1.59-0.58-3.16-0.91-4.73c-0.21-1-0.49-1.99-0.75-2.99c-0.31-1.22-0.63-2.45-0.95-3.67
			c-0.27-0.68-0.54-1.35-0.81-2.03c-0.03-0.37-0.07-0.74-0.1-1.11c0.37-0.82-0.01-1.04-0.77-0.95c-0.04-0.3-0.08-0.6-0.12-0.9
			c0.34-0.86-0.11-1.36-0.79-1.76c-0.69-1.37-1.39-2.72-2.06-4.1c-0.49-1.03-0.92-2.08-1.43-3.22c-0.18-0.04-0.52-0.1-0.57-0.11
			c-0.33-0.62-0.55-1.03-0.78-1.45c-0.16-0.5-0.33-1.01-0.5-1.52c-0.31-0.07-0.61-0.13-0.91-0.19c-0.01-0.22-0.02-0.44-0.03-0.66
			c-0.23-0.25-0.47-0.5-0.7-0.75c-0.91-1.26-1.82-2.51-2.73-3.77c-0.06-0.21-0.06-0.46-0.18-0.62c-0.4-0.56-0.79-1.15-1.3-1.6
			c-0.43-0.38-0.76-1.1-1.56-0.81c-0.68-0.68-1.36-1.36-2.03-2.04c0.09-0.15,0.27-0.43,0.25-0.45c-1.14-0.93-1.89-2.37-3.48-2.72
			c-1.04-1.78-3.07-2.3-4.51-3.59c-0.83-0.75-1.83-1.31-2.71-2.01c-0.44-0.35-2.08-1.7-2.3-1.79c-1.05-0.43-2.13-0.82-3.14-1.33
			c-0.91-0.46-1.74-1.06-2.61-1.6c-0.55-0.34-1.09-0.7-1.67-0.97c-0.73-0.34-1.48-0.79-2.24-0.83c-1.9-0.09-3.34-1.33-5.07-1.78
			c-0.12-0.64-0.41-0.88-0.98-0.39c-0.62-0.05-1.25-0.1-1.87-0.14c-0.23-1.03-0.92-1.29-2.21-0.84c-0.63-0.04-1.25-0.08-1.88-0.12
			c-0.09-0.58,0-1.36-1.02-0.96c-0.39-0.04-0.78-0.07-1.18-0.11c-0.32,0.04-0.64,0.07-0.96,0.11c-1.33-0.04-2.67-0.08-4-0.11
			c-0.54-0.34-1.05-0.88-1.63-0.96c-1.08-0.14-2.19-0.01-3.29,0.01c-1.34,0-2.68,0.01-4.02,0.01c-1.19-0.02-2.38-0.11-3.56-0.01
			c-0.37,0.03-0.69,0.57-1.03,0.88c-1.2,0.06-2.41,0.11-3.61,0.17C269.76,75.24,269.53,75.19,269.29,75.14z"/>
		<path class="st1" d="M212.34,154.31c-0.02-0.69-0.05-1.37-0.07-2.06c-0.02-0.99-0.03-1.98-0.05-2.97
			c0.06-0.23,0.16-0.45,0.16-0.68c0.01-3.2,0.01-6.4-0.01-9.6c0-0.26-0.15-0.51-0.22-0.77c-0.12-0.82-0.24-1.65-0.35-2.47
			c0.17-1.15,0.33-2.31,0.5-3.46c1.19-0.39,1.04-1.31,0.87-2.23c0-0.3,0-0.6,0-0.9c0.06-0.74,0.11-1.47,0.17-2.21
			c0.25-0.64,0.49-1.28,0.74-1.93c0.42-2.02,0.74-4.06,2-5.8c0.2-0.28,0.13-0.76,0.19-1.14c0.99-0.21,1.26-0.79,0.91-1.94
			c0.03-0.23,0.06-0.46,0.09-0.68c0.88-0.03,1.31-0.41,1.02-1.33c0.02-0.29,0.04-0.58,0.06-0.86c0.63-0.03,1.35,0.02,0.75-0.96
			c0.12-0.4,0.19-0.83,0.37-1.21c0.7-1.51,1.75-2.8,2.41-4.37c0.66-1.56,1.91-2.87,2.97-4.24c0.39-0.51,1.08-0.8,1.46-1.31
			c0.47-0.63,0.68-1.46,1.16-2.08c0.72-0.93,1.56-1.77,2.39-2.62c1.59-1.63,3.18-3.27,4.84-4.82c0.63-0.59,1.48-0.94,2.2-1.44
			c0.61-0.43,1.14-0.97,1.75-1.39c0.79-0.55,1.63-1.04,2.45-1.55c1.15,0.04,2.2-0.88,2.3-2.01c0.26-0.01,0.52-0.02,0.78-0.03
			c0.13-0.13,0.27-0.26,0.4-0.39c0.51-0.24,1.36-0.39,1.45-0.75c0.31-1.1,1.38-0.95,2-1.49c0.26-0.22,0.71-0.23,1.07-0.33
			c0.83,0.18,1.37-0.01,1.31-1c0.38-0.04,0.76-0.09,1.13-0.13c1.26-0.43,2.52-0.85,3.76-1.31c0.09-0.03,0.06-0.37,0.09-0.56
			c0.31-0.04,0.62-0.08,0.93-0.12c0.59,0.51,0.91,0.34,0.98-0.41c0.73-0.32,1.45-0.63,2.18-0.95c0.47-0.17,0.94-0.33,1.42-0.5
			c0.47-0.04,0.93-0.08,1.4-0.11c0.89-0.29,1.78-0.57,2.68-0.86c0.47-0.03,0.94-0.06,1.41-0.09c0.32-0.01,0.64-0.01,0.97-0.02
			c0.41-0.14,0.81-0.27,1.22-0.41c0.24-0.01,0.48-0.01,0.71-0.02c0.24-0.17,0.48-0.34,0.72-0.51c1.2-0.06,2.41-0.11,3.61-0.17
			c1.2,0,2.4,0,3.6,0c1.68,0,3.36,0,5.04,0c1.63,0.02,3.26,0.04,4.89,0.06c1.33,0.04,2.67,0.08,4,0.11
			c0.23,0.19,0.47,0.37,0.71,0.56c0.48,0.13,0.97,0.27,1.45,0.4c0.33,0,0.66,0,1,0.01c0.63,0.04,1.25,0.08,1.88,0.12
			c0.53,0.82,1.32,0.97,2.21,0.84c0.62,0.05,1.25,0.1,1.87,0.14c0.33,0.13,0.65,0.26,0.98,0.39c1.74,0.45,3.18,1.7,5.07,1.78
			c0.76,0.03,1.52,0.49,2.24,0.83c0.58,0.27,1.12,0.63,1.67,0.97c0.87,0.53,1.7,1.14,2.61,1.6c1.01,0.51,2.09,0.9,3.14,1.33
			c0.22,0.09,1.87,1.44,2.3,1.79c0.88,0.7,1.88,1.26,2.71,2.01c1.43,1.29,3.47,1.81,4.51,3.59c-0.02,0.22-0.12,0.58-0.05,0.63
			c1.23,0.67,1.86,2.13,3.28,2.54c0.68,0.68,1.36,1.36,2.03,2.04c0.89,1.11,1.77,2.21,2.68,3.35c0.08-0.07,0.22-0.2,0.36-0.32
			c0.91,1.26,1.82,2.51,2.73,3.77c-0.02,0.23-0.04,0.47-0.07,0.75c0.32,0,0.55,0,0.77,0c0.01,0.22,0.02,0.44,0.03,0.66
			c-0.41,1.17,1.05,1.26,1.27,2.12c0.05-0.14,0.09-0.27,0.14-0.41c0.22,0.41,0.44,0.83,0.78,1.45c0.05,0.01,0.38,0.08,0.57,0.11
			c0.5,1.14,0.94,2.19,1.43,3.22c0.66,1.38,1.37,2.74,2.06,4.1c-0.43,0.9-0.41,1.6,0.79,1.76c0.04,0.3,0.08,0.6,0.12,0.9
			c-0.5,0.93,0.08,0.99,0.77,0.95c0.03,0.37,0.07,0.74,0.1,1.11c-0.05,0.8-0.59,1.8,0.81,2.03c0.32,1.22,0.63,2.45,0.95,3.67
			c0.25,0.99,0.53,1.98,0.75,2.99c0.33,1.57,0.66,3.15,0.91,4.73c0.12,0.74,0.07,1.51,0.09,2.26c-0.16,0.58-0.38,1.16-0.45,1.75
			c-0.01,0.11,0.57,0.28,0.88,0.43c0,3.68,0,7.36,0,11.03c-0.31,0.15-0.89,0.32-0.88,0.46c0.03,0.58-0.48,1.36,0.44,1.71
			c0.04,1.81-0.39,3.52-0.93,5.24c-0.32,1.02-0.43,2.12-0.52,3.19c-0.09,1.13,0.03,2.23-0.74,3.25c-0.35,0.46-0.22,1.28-0.31,1.93
			c-0.83,0.03-1.38,0.27-0.94,1.25c-0.02,0.29-0.04,0.59-0.07,0.88c-0.22,0.18-0.44,0.36-0.66,0.53c-0.08,0.49-0.15,0.97-0.23,1.46
			c-0.03,0.29-0.06,0.59-0.09,0.88c-0.93-0.01-1.18,0.5-1,1.33c-0.05,0.3-0.09,0.61-0.14,0.91c-0.13,0.13-0.27,0.26-0.4,0.39
			c-0.41,0.81-0.81,1.63-1.24,2.43c-1.01,1.9-2.02,3.79-3.05,5.68c-0.16,0.3-0.38,0.6-0.64,0.83c-0.57,0.51-0.96,1.02-1.15,1.85
			c-0.15,0.68-0.92,1.24-1.48,1.79c-1.3,1.26-2.29,2.73-3.01,4.39c-0.06,0.13-0.09,0.3-0.19,0.38c-1.07,0.89-2.15,1.77-3.23,2.65
			c-0.68,0.49-1.5,0.88-2.02,1.51c-0.54,0.66-1.65,0.92-1.58,2.05c-0.3,0.18-0.62,0.35-0.91,0.56c-0.11,0.08-0.17,0.36-0.23,0.35
			c-1.13-0.16-1.43,0.94-2.14,1.4c-0.67,0.42-1.65,0.5-1.68,1.59c-0.24,0.02-0.48,0.04-0.73,0.06c-0.32,0.32-0.64,0.63-0.96,0.95
			c-0.15,0.06-0.31,0.12-0.46,0.19c-0.17-0.03-0.34-0.07-0.52-0.1c0.02,0.19,0.05,0.39,0.07,0.58c-0.68,0.36-1.34,0.92-2.06,1.03
			c-1.29,0.2-2.05,1.06-2.95,1.81c-0.07,0.06-0.23,0.02-0.35,0.03c-0.94,0.26-1.87,0.51-2.8,0.81c-0.08,0.03-0.07,0.37-0.09,0.56
			c-0.3,0.04-0.6,0.08-0.9,0.12c-0.81-0.16-1.37,0-1.31,0.99c-0.38,0.05-0.76,0.11-1.14,0.16c-0.23-0.07-0.45-0.13-0.68-0.2
			c-0.72,0-1.08,0.34-1.01,1.07c-0.39,0.04-0.79,0.07-1.18,0.11c-1.12-0.4-1.75-0.12-1.94,0.87c-0.39,0.03-0.79,0.06-1.18,0.1
			c-0.62-0.53-0.71-0.12-0.74,0.41c-0.64,0.18-1.27,0.37-1.91,0.55c-1.04,0.31-2.08,0.63-3.13,0.94c-0.64,0.02-1.27,0.04-1.91,0.06
			c-0.96,0.14-1.93,0.29-2.89,0.43c-0.61-0.15-1.21-0.34-1.82-0.42c-0.08-0.01-0.23,0.56-0.35,0.87c-1.99,0.03-3.99,0.07-5.98,0.1
			c-0.65,0-1.31,0-1.96,0c-1.99-0.03-3.99-0.07-5.98-0.1c-0.19-1.64-1.42-0.73-2.21-0.91c-0.65,0.01-1.29,0.02-1.94,0.03
			c-1.02-0.05-2.04-0.11-3.06-0.16c-0.32-0.13-0.65-0.25-0.97-0.38c-2.31-0.65-4.62-1.31-6.93-1.96c-0.07-0.72-0.39-0.89-0.98-0.42
			c-0.31-0.03-0.62-0.07-0.93-0.1c-0.18-1.61-1.37-1.03-2.28-1.05c-0.21,0.01-0.43,0.01-0.64,0.02c-0.01-0.83-0.42-1.18-1.24-0.98
			c-0.38-0.05-0.77-0.09-1.15-0.14c-0.31-0.23-0.62-0.45-0.92-0.68c-1.79-0.86-3.58-1.72-5.37-2.58c0.11-0.18,0.22-0.36,0.35-0.57
			c-0.67-0.32-1.31-0.62-1.95-0.93c-0.23-0.03-0.45-0.07-0.68-0.1c-0.09-0.34-0.18-0.67-0.21-0.79c-0.7-0.32-1.22-0.56-1.74-0.79
			c-0.75-0.46-1.5-0.91-2.25-1.37c0.19-0.96-0.37-1.09-1.12-1.03c0,0-0.01,0-0.01,0c0.04-0.67-0.3-0.96-0.95-0.96
			c-2.38-1.39-4.33-3.23-6.14-5.31c-0.45-0.52-0.64-1.38-0.92-1.48c-0.97-0.33-0.93-1.31-1.52-1.85c-1.55-1.42-2.86-3.03-4.02-4.82
			c-0.92-1.42-1.91-2.74-2.39-4.38c-0.08-0.26-0.42-0.45-0.65-0.67c-0.42-0.91-1.03-1.78-1.21-2.73c-0.15-0.78-0.53-0.85-1.08-0.94
			c-0.02-0.29-0.04-0.59-0.06-0.88c-0.17-0.48-0.34-0.95-0.5-1.43c-1.86-3.07-2.55-6.58-3.82-9.87c-0.18-0.46-0.35-0.92-0.53-1.38
			c-0.05-0.77-0.09-1.55-0.14-2.32c-0.04-0.67-0.08-1.33-0.12-2C213.45,155.36,213.49,154.6,212.34,154.31z M291.12,176.16
			c0.35-0.02,0.69-0.05,1.17-0.08c0-3.51,0.05-6.96-0.04-10.4c-0.02-0.89-0.78-1.45-1.73-1.5c-0.75-0.04-1.51-0.03-2.26-0.03
			c-0.01-2.56-0.02-5.12-0.02-7.68c0-6.64,0-13.27,0-19.91c0-0.66,0.09-1.36-0.94-1.2c-0.43-0.05-0.85-0.14-1.28-0.14
			c-3.87-0.01-7.74-0.01-11.61-0.01c-1.67,0-3.34,0-5.11,0c0,0.44,0,0.78,0,1.13c0,3.26,0,6.52,0,9.9c1.34,0,2.59,0,3.88,0
			c0,6.06,0,12,0,17.93c-1.25,0-2.51,0-3.82,0c-0.03,0.52-0.06,0.86-0.08,1.21c0.01,3.27,0.01,6.54,0.02,9.81
			c-0.11,0.65-0.02,1.02,0.82,1.02C277.13,176.16,284.12,176.17,291.12,176.16z M282.24,127.21c1.18,0.36,1.77,0.08,1.92-0.95
			c1.85-1.59,3.09-3.49,3.16-6.01c0.62,0.06,0.97-0.12,0.93-0.85c-0.03-0.66-0.04-1.23-0.94-1.1c0.42-1.54-0.83-2.59-1.25-4.02
			c-1.02,0.52-0.59-0.79-1.09-0.99c-1.35-0.54-2.76-0.96-3.85-2.01c-0.09-0.09-0.31-0.07-0.47-0.04c-1.46,0.28-3.23-0.8-4.37,0.97
			c-0.04,0.07-0.24,0.01-0.34,0.06c-0.51,0.24-1.07,0.41-1.5,0.75c-0.66,0.53-1.23,1.18-1.83,1.78c-0.1-0.1-0.21-0.2-0.31-0.31
			c-0.19,1.02-1.59,1.6-1.05,2.89c0,1.34,0.01,2.68,0.01,4.02c0.13,0.33,0.26,0.66,0.39,0.99c0.17,0.47,0.3,0.95,0.51,1.39
			c0.17,0.35,0.46,0.64,0.65,0.98c0.61,1.08,1.76,1.37,2.73,1.91c-0.01,0.21-0.02,0.43-0.03,0.64c0.16-0.06,0.31-0.12,0.47-0.18
			c0.39,0.04,0.77,0.07,1.16,0.11c0.75,1.35,2.05,0.79,3.16,0.92c0.71,0.08,1.04-0.19,1-0.91
			C281.63,127.25,281.94,127.23,282.24,127.21z"/>
		<path class="st2" d="M212.16,138.24c0.08,0.26,0.22,0.51,0.22,0.77c0.02,3.2,0.02,6.4,0.01,9.6c0,0.23-0.11,0.45-0.16,0.68
			c-0.31-0.01-0.61-0.03-0.92-0.04c-0.02-3.02-0.03-6.04-0.05-9.06c0.14-0.28,0.28-0.57,0.41-0.85
			C211.83,138.97,211.99,138.6,212.16,138.24z"/>
		<path class="st3" d="M282.24,75.13c-1.68,0-3.36,0-5.04,0c0.33-0.29,0.66-0.58,0.99-0.88c1.34,0,2.68-0.01,4.02-0.01
			C282.22,74.54,282.23,74.83,282.24,75.13z"/>
		<path class="st4" d="M282.24,75.13c-0.01-0.3-0.02-0.59-0.03-0.89c1.1-0.02,2.21-0.15,3.29-0.01c0.57,0.07,1.09,0.62,1.63,0.96
			C285.5,75.17,283.87,75.15,282.24,75.13z"/>
		<path class="st5" d="M325.15,196.28c-0.08-1.13,1.03-1.4,1.58-2.05c0.52-0.63,1.33-1.02,2.02-1.51c0.15,0.12,0.3,0.24,0.37,0.29
			c-0.95,1.02-1.84,2.04-2.81,2.96C326.05,196.21,325.54,196.18,325.15,196.28z"/>
		<path class="st6" d="M328.7,94.81c-1.42-0.41-2.05-1.87-3.28-2.54c-0.07-0.04,0.03-0.41,0.05-0.63c1.59,0.35,2.34,1.79,3.48,2.72
			C328.97,94.38,328.79,94.66,328.7,94.81z"/>
		<path class="st4" d="M278.19,74.25c-0.33,0.29-0.66,0.58-0.99,0.88c-1.2,0-2.4,0-3.6,0c0.34-0.31,0.67-0.85,1.03-0.88
			C275.81,74.14,277,74.23,278.19,74.25z"/>
		<path class="st5" d="M218.27,174.13c0.55,0.09,0.93,0.16,1.08,0.94c0.18,0.95,0.79,1.82,1.21,2.73c-0.05,0.14-0.1,0.28-0.19,0.53
			c-0.73-1.12-1.41-2.13-2.02-3.17C218.2,174.88,218.29,174.47,218.27,174.13z"/>
		<path class="st6" d="M255.38,79.27c-0.03,0.19,0,0.53-0.09,0.56c-1.24,0.46-2.5,0.88-3.76,1.31c0.1-0.24,0.15-0.64,0.32-0.7
			C253.01,80.02,254.2,79.66,255.38,79.27z"/>
		<path class="st7" d="M333.78,99.88c-0.14,0.12-0.28,0.25-0.36,0.32c-0.91-1.14-1.8-2.24-2.68-3.35c0.8-0.3,1.13,0.43,1.56,0.81
			c0.51,0.45,0.89,1.05,1.3,1.6C333.71,99.42,333.72,99.67,333.78,99.88z"/>
		<path class="st8" d="M212.16,138.24c-0.16,0.36-0.32,0.73-0.49,1.09c-0.13,0.29-0.27,0.57-0.41,0.85
			c-0.01-1.11-0.08-2.23-0.02-3.33c0.02-0.37,0.37-0.72,0.56-1.08C211.92,136.59,212.04,137.42,212.16,138.24z"/>
		<path class="st8" d="M211.31,149.24c0.31,0.01,0.61,0.03,0.92,0.04c0.02,0.99,0.03,1.98,0.05,2.97
			C210.99,151.56,211.17,150.39,211.31,149.24z"/>
		<path class="st9" d="M294.24,211.21c1.04-0.31,2.08-0.63,3.13-0.94c0.06,0.62-0.16,1-0.84,0.99
			C295.77,211.26,295.01,211.23,294.24,211.21z"/>
		<path class="st7" d="M309.35,206.09c0.03-0.19,0.01-0.53,0.09-0.56c0.92-0.3,1.86-0.55,2.8-0.81
			C311.46,205.57,310.68,206.41,309.35,206.09z"/>
		<path class="st9" d="M289.44,211.7c0.96-0.14,1.93-0.29,2.89-0.43c-0.25,0.31-0.46,0.86-0.75,0.9c-0.78,0.11-1.59,0.01-2.39,0
			C289.28,212.01,289.36,211.85,289.44,211.7z"/>
		<path class="st6" d="M243.38,85.27c-0.09,1.13-1.14,2.05-2.3,2.01C241.28,85.96,242.49,85.79,243.38,85.27z"/>
		<path class="st10" d="M213.17,130.07c0.17,0.92,0.32,1.84-0.87,2.23c0.01-0.73,0.03-1.45,0.04-2.18
			C212.62,130.11,212.9,130.09,213.17,130.07z"/>
		<path class="st11" d="M264.96,76.33c-0.89,0.29-1.78,0.57-2.68,0.86C262.49,76.18,263.57,75.83,264.96,76.33z"/>
		<path class="st3" d="M254.07,207.19c0.91,0.02,2.1-0.56,2.28,1.05C255.34,208.43,254.55,208.15,254.07,207.19z"/>
		<path class="st12" d="M320.19,200.17c0.03-1.09,1.02-1.17,1.68-1.59c0.1,0.2,0.2,0.41,0.37,0.74
			C321.57,199.6,320.88,199.89,320.19,200.17z"/>
		<path class="st2" d="M212.34,154.31c1.15,0.29,1.11,1.05,0.76,1.93c-0.26-0.02-0.53-0.04-0.79-0.06
			C212.32,155.56,212.33,154.94,212.34,154.31z"/>
		<path class="st13" d="M348.75,151.45c-0.93-0.35-0.41-1.13-0.44-1.71c-0.01-0.14,0.57-0.3,0.88-0.46
			C349.11,150.01,349.66,150.88,348.75,151.45z"/>
		<path class="st14" d="M271.15,211.24c0.79,0.18,2.02-0.73,2.21,0.91c-0.72,0-1.44,0-2.15,0
			C271.19,211.84,271.17,211.54,271.15,211.24z"/>
		<path class="st14" d="M349.19,138.24c-0.31-0.14-0.89-0.32-0.88-0.43c0.07-0.59,0.28-1.17,0.45-1.75
			C348.9,136.79,349.04,137.52,349.19,138.24z"/>
		<path class="st15" d="M289.44,211.7c-0.08,0.15-0.16,0.31-0.24,0.46c-0.64,0-1.28-0.01-1.92-0.01c0.12-0.3,0.27-0.88,0.35-0.87
			C288.24,211.36,288.84,211.54,289.44,211.7z"/>
		<path class="st16" d="M298.36,77.21c-0.89,0.13-1.68-0.02-2.21-0.84C297.44,75.92,298.13,76.19,298.36,77.21z"/>
		<path class="st17" d="M212.3,156.18c0.26,0.02,0.53,0.04,0.79,0.06c0.04,0.67,0.08,1.33,0.12,2
			C212.01,157.96,212.17,157.06,212.3,156.18z"/>
		<path class="st9" d="M279.34,212.25c0.65,0,1.31,0,1.96,0c0.08,0.79-0.39,0.88-1.04,0.89
			C279.59,213.14,279.29,212.92,279.34,212.25z"/>
		<path class="st8" d="M271.15,211.24c0.02,0.3,0.04,0.6,0.06,0.91c-0.71-0.18-1.9,0.72-1.99-0.87
			C269.86,211.26,270.51,211.25,271.15,211.24z"/>
		<path class="st17" d="M240.53,199.65c0.52,0.24,1.04,0.47,1.74,0.79c0.03,0.12,0.12,0.45,0.21,0.79
			C241.54,201.3,240.58,200.52,240.53,199.65z"/>
		<path class="st18" d="M338.64,106.77c-0.05,0.14-0.09,0.27-0.14,0.41c-0.22-0.86-1.68-0.95-1.27-2.12c0.3,0.06,0.6,0.13,0.91,0.19
			C338.31,105.77,338.48,106.27,338.64,106.77z"/>
		<path class="st17" d="M243.15,201.33c0.64,0.31,1.28,0.61,1.95,0.93c-0.13,0.2-0.24,0.39-0.35,0.57c-0.3-0.16-0.59-0.46-0.89-0.46
			C243.05,202.35,243.11,201.86,243.15,201.33z"/>
		<path class="st19" d="M217.17,116.16c0.35,1.15,0.08,1.73-0.91,1.94C216.02,117.19,216.6,116.68,217.17,116.16z"/>
		<path class="st10" d="M344.26,117.42c-1.2-0.17-1.22-0.87-0.79-1.76C344.15,116.06,344.6,116.56,344.26,117.42z"/>
		<path class="st4" d="M293.28,76.25c-0.48-0.13-0.97-0.27-1.45-0.4c0.08-0.22,0.17-0.44,0.25-0.66c0.39,0.04,0.78,0.07,1.18,0.11
			C293.27,75.62,293.28,75.94,293.28,76.25z"/>
		<path class="st14" d="M301.19,209.21c0.19-0.99,0.82-1.27,1.94-0.87C302.48,208.63,301.83,208.92,301.19,209.21z"/>
		<path class="st17" d="M344.35,169.19c0.08-0.49,0.15-0.97,0.23-1.46c0.22,0.16,0.45,0.32,0.67,0.49
			C345.41,168.97,345.1,169.29,344.35,169.19z"/>
		<path class="st16" d="M345.3,166.31c-0.43-0.98,0.11-1.22,0.94-1.25C346.42,165.85,346.33,166.44,345.3,166.31z"/>
		<path class="st7" d="M307.14,207.2c-0.06-0.99,0.5-1.15,1.31-0.99C308.41,207.06,308.1,207.56,307.14,207.2z"/>
		<path class="st17" d="M343.26,171.4c-0.18-0.83,0.07-1.34,1-1.33c0.03,0.35,0.07,0.69,0.11,1.11
			C343.94,171.27,343.6,171.33,343.26,171.4z"/>
		<path class="st10" d="M214.08,125.03c-0.25,0.64-0.49,1.28-0.74,1.93C213.06,126.12,212.89,125.32,214.08,125.03z"/>
		<path class="st19" d="M218.29,114.14c0.28,0.92-0.14,1.3-1.02,1.33c0-0.35,0-0.69,0-1.1
			C217.63,114.29,217.96,114.22,218.29,114.14z"/>
		<path class="st8" d="M250.39,81.28c0.06,0.99-0.49,1.18-1.31,1C249.17,81.48,249.45,80.94,250.39,81.28z"/>
		<path class="st4" d="M252.19,206.23c0.83-0.2,1.23,0.15,1.24,0.98c-0.34,0.04-0.67,0.07-1.09,0.12
			C252.28,206.9,252.24,206.57,252.19,206.23z"/>
		<path class="st10" d="M346.06,122.41c-1.39-0.23-0.86-1.23-0.81-2.03C345.52,121.06,345.79,121.74,346.06,122.41z"/>
		<path class="st16" d="M268.55,75.81c-0.41,0.14-0.81,0.27-1.22,0.41c0-0.3,0-0.59,0-0.89c0.32-0.05,0.64-0.1,0.96-0.15
			C268.38,75.39,268.47,75.6,268.55,75.81z"/>
		<path class="st14" d="M304.31,208.23c-0.06-0.74,0.29-1.08,1.01-1.07c0.08,0.24,0.15,0.48,0.23,0.72
			C305.13,207.99,304.72,208.11,304.31,208.23z"/>
		<path class="st5" d="M217.7,171.81c0.17,0.48,0.34,0.95,0.5,1.43c-0.32-0.11-0.65-0.23-0.97-0.34
			C217.39,172.54,217.55,172.18,217.7,171.81z"/>
		<path class="st19" d="M219.09,112.31c0.61,0.98-0.12,0.94-0.75,0.96C218.05,112.54,218.28,112.2,219.09,112.31z"/>
		<path class="st10" d="M345.15,119.28c-0.69,0.03-1.27-0.02-0.77-0.95C345.14,118.24,345.52,118.46,345.15,119.28z"/>
		<path class="st16" d="M293.28,76.25c-0.01-0.32-0.02-0.64-0.02-0.95c1.02-0.4,0.92,0.38,1.02,0.96
			C293.95,76.26,293.62,76.26,293.28,76.25z"/>
		<path class="st4" d="M237.16,197.25c0.75-0.06,1.31,0.07,1.12,1.03c-0.31-0.03-0.63-0.06-1.01-0.09
			C237.23,197.86,237.19,197.55,237.16,197.25z"/>
		<path class="st17" d="M213.35,160.56c0.18,0.46,0.35,0.92,0.53,1.38c-0.18,0.05-0.36,0.09-0.73,0.19
			C213.22,161.56,213.29,161.06,213.35,160.56z"/>
		<path class="st11" d="M260.88,77.3c-0.47,0.17-0.94,0.33-1.42,0.5C259.58,76.62,260.26,77.05,260.88,77.3z"/>
		<path class="st12" d="M318.5,201.18c0.32-0.32,0.64-0.63,0.96-0.95C319.34,200.75,319.71,201.77,318.5,201.18z"/>
		<path class="st4" d="M236.2,196.29c0.64,0,0.99,0.28,0.95,0.96C236.3,197.45,236.1,197.02,236.2,196.29z"/>
		<path class="st11" d="M267.33,75.33c0,0.3,0,0.59,0,0.89c-0.32,0.01-0.64,0.01-0.97,0.02C266.31,75.53,266.7,75.29,267.33,75.33z"
			/>
		<path class="st20" d="M213.17,130.07c-0.28,0.02-0.55,0.04-0.83,0.06c-0.34-0.85,0.13-1,0.83-0.96
			C213.17,129.47,213.17,129.77,213.17,130.07z"/>
		<path class="st4" d="M250.12,205.41c0.31,0.23,0.62,0.45,0.92,0.68C250.16,206.64,250.24,205.89,250.12,205.41z"/>
		<path class="st16" d="M301.21,77.74c-0.33-0.13-0.65-0.26-0.98-0.39C300.81,76.87,301.09,77.1,301.21,77.74z"/>
		<path class="st6" d="M257.29,78.75c-0.08,0.74-0.39,0.91-0.98,0.41C256.64,79.02,256.96,78.89,257.29,78.75z"/>
		<path class="st8" d="M265.18,210.74c0.32,0.13,0.65,0.25,0.97,0.38C265.59,211.61,265.32,211.34,265.18,210.74z"/>
		<path class="st11" d="M268.55,75.81c-0.09-0.21-0.17-0.42-0.26-0.63c0.33-0.01,0.66-0.02,1-0.03c-0.01,0.22-0.02,0.43-0.03,0.65
			C269.03,75.8,268.79,75.81,268.55,75.81z"/>
		<path class="st3" d="M257.27,208.35c0.59-0.46,0.9-0.29,0.98,0.42C257.93,208.63,257.6,208.49,257.27,208.35z"/>
		<path class="st16" d="M292.09,75.19c-0.08,0.22-0.17,0.44-0.25,0.66c-0.24-0.19-0.47-0.37-0.71-0.56
			C291.45,75.26,291.77,75.23,292.09,75.19z"/>
		<path class="st17" d="M342.72,172.71c0.13-0.13,0.27-0.26,0.4-0.39c0.09,0.22,0.19,0.44,0.4,0.95
			C343.07,172.96,342.9,172.83,342.72,172.71z"/>
		<path class="st16" d="M345.25,168.22c-0.22-0.16-0.45-0.32-0.67-0.49c0.22-0.18,0.44-0.36,0.66-0.53
			C345.24,167.54,345.24,167.88,345.25,168.22z"/>
		<path class="st14" d="M299.27,209.72c0.02-0.53,0.12-0.94,0.74-0.41C299.76,209.44,299.52,209.58,299.27,209.72z"/>
		<path class="st16" d="M269.27,75.79c0.01-0.22,0.02-0.43,0.03-0.65c0.23,0.05,0.47,0.1,0.7,0.14
			C269.75,75.46,269.51,75.63,269.27,75.79z"/>
		<path class="st12" d="M317.6,201.85c-0.02-0.19-0.05-0.39-0.07-0.58c0.17,0.03,0.34,0.07,0.52,0.1
			C317.89,201.53,317.74,201.69,317.6,201.85z"/>
		<path class="st7" d="M305.55,207.87c-0.08-0.24-0.15-0.48-0.23-0.72c0.23,0.07,0.45,0.13,0.68,0.2
			C305.85,207.53,305.7,207.7,305.55,207.87z"/>
		<path class="st6" d="M244.56,84.85c-0.13,0.13-0.27,0.26-0.4,0.39c0.03-0.21,0.07-0.41,0.11-0.66
			C244.35,84.66,244.46,84.76,244.56,84.85z"/>
		<path class="st18" d="M337.2,104.4c-0.22,0-0.44,0-0.77,0c0.03-0.28,0.05-0.52,0.07-0.75C336.74,103.9,336.97,104.15,337.2,104.4z
			"/>
		<path class="st0" d="M269.31,175.18c-0.01-3.27-0.01-6.54-0.02-9.81c1.3,0,2.59,0,4.04,0c-0.06-0.54-0.1-0.88-0.14-1.21
			c0-5.94,0-11.87,0-17.93c-1.29,0-2.54,0-3.88,0c0-3.39,0-6.64,0-9.9c5.98,0,11.96,0,17.94,0c0.01,2.4,0.02,4.8,0.03,7.19
			c0.02,6.87,0.03,13.75,0.04,20.62c0.06,0.17,0.12,0.34,0.18,0.5c-0.02,0.2-0.05,0.4-0.07,0.6c0.19-0.04,0.38-0.08,0.57-0.12
			c0.75,0.01,1.51,0.04,2.26,0.04c0.62-0.01,0.96,0.19,0.95,0.89c-0.04,3.06-0.05,6.11-0.07,9.17
			C283.86,175.21,276.59,175.2,269.31,175.18z"/>
		<path class="st21" d="M287.33,120.26c-0.07,2.52-1.31,4.42-3.16,6.01c-0.89-0.18-1.51,0.17-1.92,0.95
			c-0.31,0.02-0.61,0.04-0.92,0.06c-1.39,0-2.77-0.01-4.16-0.01c-0.39-0.04-0.77-0.07-1.16-0.11c-0.15-0.15-0.29-0.31-0.44-0.46
			c-0.97-0.55-2.13-0.83-2.73-1.91c-0.19-0.34-0.48-0.63-0.65-0.98c-0.21-0.44-0.34-0.93-0.51-1.39c0.53-0.59,0.11-0.81-0.39-0.99
			c0-1.34-0.01-2.68-0.01-4.02c0.85,0.03,1.15-0.41,1.14-1.22c-0.01-0.45,0.14-0.91,0.22-1.36c0.61-0.6,1.17-1.25,1.83-1.78
			c0.43-0.34,0.99-0.51,1.5-0.75c0.1-0.05,0.3,0,0.34-0.06c1.14-1.77,2.91-0.69,4.37-0.97c0.15-0.03,0.38-0.04,0.47,0.04
			c1.09,1.05,2.49,1.46,3.85,2.01c0.5,0.2,0.07,1.51,1.09,0.99c0.41,1.43,1.66,2.49,1.25,4.02
			C287.32,118.96,287.32,119.61,287.33,120.26z"/>
		<path class="st22" d="M287.32,164.15c-0.01-6.87-0.03-13.75-0.04-20.62c-0.01-2.4-0.02-4.8-0.03-7.19
			c0.02-0.33,0.04-0.65,0.05-0.98c1.03-0.16,0.94,0.54,0.94,1.2c-0.01,6.64,0,13.27,0,19.91c0,2.56,0.01,5.12,0.02,7.68
			C287.95,164.14,287.64,164.15,287.32,164.15z"/>
		<path class="st23" d="M287.3,135.35c-0.02,0.33-0.04,0.65-0.05,0.98c-5.98,0-11.96,0-17.94,0c0-0.35,0-0.69,0-1.13
			c1.77,0,3.44,0,5.11,0c3.87,0,7.74,0,11.61,0.01C286.45,135.21,286.88,135.3,287.3,135.35z"/>
		<path class="st24" d="M269.31,175.18c7.28,0.01,14.55,0.03,21.83,0.04c-0.01,0.31-0.02,0.62-0.02,0.93
			c-6.99,0.01-13.99,0.01-20.98,0.05C269.29,176.21,269.2,175.83,269.31,175.18z"/>
		<path class="st25" d="M291.12,176.16c0.01-0.31,0.02-0.62,0.02-0.93c0.02-3.06,0.03-6.11,0.07-9.17c0.01-0.7-0.33-0.89-0.95-0.89
			c-0.75,0.01-1.51-0.02-2.26-0.04c-0.16-0.16-0.33-0.32-0.49-0.48c-0.06-0.17-0.12-0.34-0.18-0.5c0.31,0,0.62,0,0.93-0.01
			c0.75,0.01,1.51,0,2.26,0.03c0.96,0.05,1.71,0.61,1.73,1.5c0.09,3.44,0.04,6.89,0.04,10.4
			C291.81,176.11,291.46,176.13,291.12,176.16z"/>
		<path class="st26" d="M273.19,164.16c0.04,0.33,0.08,0.67,0.14,1.21c-1.44,0-2.74,0-4.04,0c0.02-0.35,0.04-0.69,0.08-1.21
			C270.68,164.16,271.94,164.16,273.19,164.16z"/>
		<path class="st27" d="M277.16,127.26c1.39,0,2.77,0.01,4.16,0.01c0.04,0.72-0.29,0.99-1,0.91
			C279.22,128.05,277.92,128.61,277.16,127.26z"/>
		<path class="st28" d="M272.63,114.81c-0.08,0.45-0.23,0.91-0.22,1.36c0.01,0.82-0.29,1.25-1.14,1.22
			c-0.54-1.29,0.86-1.87,1.05-2.89C272.42,114.6,272.52,114.7,272.63,114.81z"/>
		<path class="st6" d="M287.33,120.26c0-0.65,0-1.3-0.01-1.95c0.9-0.13,0.91,0.44,0.94,1.1
			C288.29,120.14,287.95,120.32,287.33,120.26z"/>
		<path class="st22" d="M282.24,127.21c0.41-0.78,1.04-1.13,1.92-0.95C284.01,127.29,283.43,127.57,282.24,127.21z"/>
		<path class="st28" d="M271.28,121.41c0.5,0.19,0.92,0.4,0.39,0.99C271.54,122.07,271.41,121.74,271.28,121.41z"/>
		<path class="st27" d="M275.56,126.69c0.15,0.15,0.29,0.31,0.44,0.46c-0.16,0.06-0.31,0.12-0.47,0.18
			C275.54,127.12,275.55,126.9,275.56,126.69z"/>
		<path class="st11" d="M287.5,164.65c0.16,0.16,0.33,0.32,0.49,0.48c-0.19,0.04-0.38,0.08-0.57,0.12
			C287.46,165.06,287.48,164.85,287.5,164.65z"/>
	</g>
</g>
</svg>
